<svg xmlns="http://www.w3.org/2000/svg" xmlns:xlink="http://www.w3.org/1999/xlink" viewBox="0 0 136.5 136.5"><defs><style>.cls-1{fill:#fff;}.cls-2{fill:url(#linear-gradient);}.cls-3{fill:url(#linear-gradient-2);}.cls-4{fill:url(#linear-gradient-3);}.cls-5{fill:url(#linear-gradient-4);}.cls-6{fill:url(#linear-gradient-5);}.cls-7{fill:url(#linear-gradient-6);}.cls-8{fill:url(#linear-gradient-7);}.cls-9{fill:url(#linear-gradient-8);}.cls-10{fill:url(#linear-gradient-9);}</style><linearGradient id="linear-gradient" x1="19.99" y1="116.51" x2="116.51" y2="19.99" gradientUnits="userSpaceOnUse"><stop offset="0" stop-color="#272525"/><stop offset="1" stop-color="#042f3b"/></linearGradient><linearGradient id="linear-gradient-2" x1="41.67" y1="59.15" x2="94.84" y2="59.15" xlink:href="#linear-gradient"/><linearGradient id="linear-gradient-3" x1="35.05" y1="37.3" x2="101.45" y2="37.3" xlink:href="#linear-gradient"/><linearGradient id="linear-gradient-4" x1="58.54" y1="64.09" x2="77.97" y2="64.09" xlink:href="#linear-gradient"/><linearGradient id="linear-gradient-5" x1="61.12" y1="61.2" x2="75.39" y2="61.2" xlink:href="#linear-gradient"/><linearGradient id="linear-gradient-6" x1="67.42" y1="61.2" x2="69.09" y2="61.2" xlink:href="#linear-gradient"/><linearGradient id="linear-gradient-7" x1="65.06" y1="84.26" x2="71.44" y2="84.26" xlink:href="#linear-gradient"/><linearGradient id="linear-gradient-8" x1="50.72" y1="97.3" x2="85.79" y2="97.3" xlink:href="#linear-gradient"/><linearGradient id="linear-gradient-9" x1="57.87" y1="91.51" x2="78.63" y2="91.51" xlink:href="#linear-gradient"/></defs><title>1</title><g id="Capa_2" data-name="Capa 2"><g id="Object"><path class="cls-1" d="M40.81,134.5H95.69L134.5,95.69V40.81L95.69,2H40.81L2,40.81V95.69Z"/><path class="cls-2" d="M96.52,136.5H40l-40-40V40L40,0H96.52l40,40V96.52Zm-55.71-2H95.69L134.5,95.69V40.81L95.69,2H40.81L2,40.81V95.69Z"/><path class="cls-3" d="M57.19,75.08l-1-.5A26.48,26.48,0,0,1,41.67,50.87V43.22H94.84v7.65A26.49,26.49,0,0,1,80.29,74.58l-1,.5v-14a11.06,11.06,0,1,0-22.12,0ZM43,44.57v6.3a25.14,25.14,0,0,0,12.84,22V61.1a12.41,12.41,0,0,1,24.81,0V72.86a25.15,25.15,0,0,0,12.83-22v-6.3Z"/><rect class="cls-4" x="35.05" y="35.25" width="66.4" height="4.1"/><path class="cls-5" d="M68.25,51.39a9.73,9.73,0,0,0-9.71,9.71V74.9a25.91,25.91,0,0,0,9.71,1.88h0A25.93,25.93,0,0,0,78,74.9V61.1A9.73,9.73,0,0,0,68.25,51.39Zm0,18a8.23,8.23,0,1,1,8.23-8.22A8.23,8.23,0,0,1,68.25,69.42Z"/><path class="cls-6" d="M68.25,54.06a7.14,7.14,0,1,0,7.14,7.14A7.13,7.13,0,0,0,68.25,54.06Zm0,10.47a3.34,3.34,0,1,1,3.34-3.33A3.33,3.33,0,0,1,68.25,64.53Z"/><circle class="cls-7" cx="68.25" cy="61.2" r="0.84"/><path class="cls-8" d="M68.25,87.45a3.19,3.19,0,1,0-3.19-3.19A3.2,3.2,0,0,0,68.25,87.45Z"/><path class="cls-9" d="M68.25,103.7A19.34,19.34,0,0,0,85.63,93a1.43,1.43,0,1,0-2.55-1.28,16.58,16.58,0,0,1-29.66,0,1.41,1.41,0,0,0-1.28-.79,1.39,1.39,0,0,0-.63.15,1.41,1.41,0,0,0-.72.83A1.42,1.42,0,0,0,50.87,93h0A19.34,19.34,0,0,0,68.25,103.7Z"/><path class="cls-10" d="M68.25,92.84a8.55,8.55,0,0,1-7.68-4.74,1.4,1.4,0,0,0-.82-.71,1.42,1.42,0,0,0-1.73,2,11.44,11.44,0,0,0,20.46,0,1.43,1.43,0,0,0-.63-1.91,1.46,1.46,0,0,0-.64-.15,1.42,1.42,0,0,0-1.28.78A8.54,8.54,0,0,1,68.25,92.84Z"/></g></g></svg>