<svg xmlns="http://www.w3.org/2000/svg" xmlns:xlink="http://www.w3.org/1999/xlink" viewBox="0 0 136.5 136.5"><defs><style>.cls-1{fill:#fff;}.cls-2{fill:url(#linear-gradient);}.cls-3{fill:url(#linear-gradient-2);}.cls-4{fill:url(#linear-gradient-3);}.cls-5{fill:url(#linear-gradient-4);}.cls-6{fill:url(#linear-gradient-5);}</style><linearGradient id="linear-gradient" x1="19.99" y1="116.51" x2="116.51" y2="19.99" gradientUnits="userSpaceOnUse"><stop offset="0" stop-color="#272525"/><stop offset="1" stop-color="#042f3b"/></linearGradient><linearGradient id="linear-gradient-2" x1="35.06" y1="69.42" x2="101.44" y2="69.42" xlink:href="#linear-gradient"/><linearGradient id="linear-gradient-3" x1="50.36" y1="69.29" x2="86.14" y2="69.29" xlink:href="#linear-gradient"/><linearGradient id="linear-gradient-4" x1="50.36" y1="60.87" x2="86.14" y2="60.87" xlink:href="#linear-gradient"/><linearGradient id="linear-gradient-5" x1="40.01" y1="69.42" x2="96.49" y2="69.42" xlink:href="#linear-gradient"/></defs><title>2</title><g id="Capa_2" data-name="Capa 2"><g id="Object"><path class="cls-1" d="M40.81,134.5H95.69L134.5,95.69V40.81L95.69,2H40.81L2,40.81V95.69Z"/><path class="cls-2" d="M96.52,136.5H40l-40-40V40L40,0H96.52l40,40V96.52Zm-55.71-2H95.69L134.5,95.69V40.81L95.69,2H40.81L2,40.81V95.69Z"/><path class="cls-3" d="M68.25,107.9h0A7.48,7.48,0,0,1,63.69,106L41.09,87a7.51,7.51,0,0,1-2.49-5.55L35.06,45.18v0A7.55,7.55,0,0,1,40.43,38h0l26.13-6.7a7.55,7.55,0,0,1,1.63-.3h.08a7.44,7.44,0,0,1,1.63.3L96.07,38a7.53,7.53,0,0,1,5.37,7.19v.06L97.9,81.47A7.54,7.54,0,0,1,95.42,87h0L72.81,106a7.46,7.46,0,0,1-4.52,1.91ZM41.92,86.07l22.61,19a6.17,6.17,0,0,0,3.72,1.59A6.17,6.17,0,0,0,72,105h0l22.59-19a6.24,6.24,0,0,0,2.06-4.63v-.06l3.54-36.26a6.29,6.29,0,0,0-4.45-5.95L69.58,32.46a6,6,0,0,0-1.33-.24,5.9,5.9,0,0,0-1.32.24h0l-26.12,6.7a6.29,6.29,0,0,0-4.46,5.95l3.54,36.29v0A6.28,6.28,0,0,0,41.92,86.07Z"/><polygon class="cls-4" points="68.25 70.51 50.36 64.53 50.36 68.08 68.25 74.06 86.14 68.08 86.14 64.53 68.25 70.51"/><polygon class="cls-5" points="68.25 62.09 50.36 56.11 50.36 59.66 68.25 65.64 86.14 59.66 86.14 56.11 68.25 62.09"/><path class="cls-6" d="M94.67,42.7,68.53,36l-.28-.06L68,36,41.84,42.7A2.57,2.57,0,0,0,40,45.15l3.54,36.29a2.57,2.57,0,0,0,.85,1.9L67,102.3a2.58,2.58,0,0,0,1.26.62,2.54,2.54,0,0,0,1.26-.62l22.6-19a2.6,2.6,0,0,0,.84-1.9l3.54-36.29A2.57,2.57,0,0,0,94.67,42.7ZM92.33,81.44a1.93,1.93,0,0,1-.64,1.44l-22.6,19a1.84,1.84,0,0,1-.84.44,2,2,0,0,1-.84-.44l-22.6-19a1.93,1.93,0,0,1-.64-1.44L40.63,45.15A1.94,1.94,0,0,1,42,43.3l26.14-6.71.1,0,.1,0L94.49,43.3a1.94,1.94,0,0,1,1.38,1.85Z"/></g></g></svg>