<svg xmlns="http://www.w3.org/2000/svg" xmlns:xlink="http://www.w3.org/1999/xlink" viewBox="0 0 136.5 136.5"><defs><style>.cls-1{fill:#fff;}.cls-2{fill:url(#linear-gradient);}.cls-3{fill:url(#linear-gradient-2);}.cls-4{fill:url(#linear-gradient-3);}.cls-5{fill:url(#linear-gradient-4);}.cls-6{fill:url(#linear-gradient-5);}.cls-7{fill:url(#linear-gradient-6);}.cls-8{fill:url(#linear-gradient-7);}.cls-9{fill:url(#linear-gradient-8);}.cls-10{fill:url(#linear-gradient-9);}.cls-11{fill:url(#linear-gradient-10);}</style><linearGradient id="linear-gradient" x1="19.99" y1="116.51" x2="116.51" y2="19.99" gradientUnits="userSpaceOnUse"><stop offset="0" stop-color="#272525"/><stop offset="1" stop-color="#042f3b"/></linearGradient><linearGradient id="linear-gradient-2" x1="65.28" y1="44.2" x2="71.22" y2="44.2" xlink:href="#linear-gradient"/><linearGradient id="linear-gradient-3" x1="51.93" y1="32.06" x2="84.57" y2="32.06" xlink:href="#linear-gradient"/><linearGradient id="linear-gradient-4" x1="58.59" y1="37.45" x2="77.91" y2="37.45" xlink:href="#linear-gradient"/><linearGradient id="linear-gradient-5" x1="52.59" y1="80.94" x2="83.92" y2="80.94" xlink:href="#linear-gradient"/><linearGradient id="linear-gradient-6" x1="82.44" y1="63.12" x2="84.14" y2="63.12" xlink:href="#linear-gradient"/><linearGradient id="linear-gradient-7" x1="82.44" y1="98.38" x2="84.14" y2="98.38" xlink:href="#linear-gradient"/><linearGradient id="linear-gradient-8" x1="34.78" y1="109.77" x2="101.72" y2="109.77" xlink:href="#linear-gradient"/><linearGradient id="linear-gradient-9" x1="51.64" y1="80.46" x2="54.78" y2="80.46" xlink:href="#linear-gradient"/><linearGradient id="linear-gradient-10" x1="41.25" y1="83.35" x2="65.18" y2="83.35" xlink:href="#linear-gradient"/></defs><title>3</title><g id="Capa_2" data-name="Capa 2"><g id="Object"><path class="cls-1" d="M40.81,134.5H95.69L134.5,95.69V40.81L95.69,2H40.81L2,40.81V95.69Z"/><path class="cls-2" d="M96.52,136.5H40l-40-40V40L40,0H96.52l40,40V96.52Zm-55.71-2H95.69L134.5,95.69V40.81L95.69,2H40.81L2,40.81V95.69Z"/><path class="cls-3" d="M68.25,41.23a3,3,0,1,0,3,3A3,3,0,0,0,68.25,41.23Z"/><path class="cls-4" d="M68.25,26.11a18,18,0,0,0-16.17,10,1.33,1.33,0,0,0,.59,1.79,1.31,1.31,0,0,0,1,.07,1.32,1.32,0,0,0,.77-.66,15.43,15.43,0,0,1,27.6,0,1.34,1.34,0,0,0,1.19.73,1.39,1.39,0,0,0,.6-.14,1.34,1.34,0,0,0,.59-1.79h0A18,18,0,0,0,68.25,26.11Z"/><path class="cls-5" d="M68.25,36.21a8,8,0,0,1,7.15,4.41,1.31,1.31,0,0,0,1.78.59,1.29,1.29,0,0,0,.66-.77,1.27,1.27,0,0,0-.07-1,10.65,10.65,0,0,0-19,0,1.33,1.33,0,0,0,.59,1.78,1.27,1.27,0,0,0,.6.15,1.35,1.35,0,0,0,1.19-.74A7.94,7.94,0,0,1,68.25,36.21Z"/><path class="cls-6" d="M83.92,110.4H52.59V98.61h1.25v10.53H82.66V55.49a2.76,2.76,0,0,0-2.76-2.76H56.6a2.77,2.77,0,0,0-2.76,2.76V68.25H52.59V55.49a4,4,0,0,1,4-4H79.9a4,4,0,0,1,4,4Z"/><rect class="cls-7" x="82.44" y="60.54" width="1.69" height="5.15"/><rect class="cls-8" x="82.44" y="95.81" width="1.69" height="5.15"/><rect class="cls-9" x="34.78" y="109.14" width="66.94" height="1.25"/><rect class="cls-10" x="51.64" y="78.39" width="3.14" height="4.15"/><path class="cls-11" d="M65.17,73.93h0A21.45,21.45,0,0,1,63,74c-2.68,0-7.2-.46-9.76-3.15h0C50.64,73.57,46.13,74,43.44,74a21.11,21.11,0,0,1-2.18-.1h0V75c.17,18.45,12,20.79,12,20.79h0S65,93.47,65.18,75v-.45C65.18,74.36,65.18,74.14,65.17,73.93ZM57.32,88.42A1.31,1.31,0,0,1,56,89.72h-5.6a1.3,1.3,0,0,1-1.3-1.3V83.84a1.3,1.3,0,0,1,1.11-1.29V78.39A1.43,1.43,0,0,1,51.64,77h3.15a1.42,1.42,0,0,1,1.41,1.42v4.16a1.31,1.31,0,0,1,1.12,1.29Z"/></g></g></svg>