<svg xmlns="http://www.w3.org/2000/svg" xmlns:xlink="http://www.w3.org/1999/xlink" viewBox="0 0 444.67 277.92"><defs><style>.cls-1{fill:none;}.cls-2{isolation:isolate;}.cls-3{fill:url(#linear-gradient);}.cls-20,.cls-4,.cls-5{fill:#fff;}.cls-4{opacity:0.15;}.cls-20,.cls-23,.cls-4{mix-blend-mode:overlay;}.cls-6{fill:url(#linear-gradient-2);}.cls-7{fill:#bbcee1;}.cls-8{fill:#a7bcce;}.cls-9{clip-path:url(#clip-path);}.cls-10{fill:#496721;}.cls-11{fill:url(#linear-gradient-3);}.cls-12{fill:#c9dafc;}.cls-13{fill:#db4655;}.cls-14{fill:#7763a5;}.cls-15{fill:#e2f7e8;}.cls-16{fill:#9db0ce;}.cls-17{fill:#394372;}.cls-18{fill:#455e8e;}.cls-19{fill:#b8bcfc;}.cls-20,.cls-23{opacity:0.45;}.cls-21{opacity:0.5;}.cls-22{fill:url(#linear-gradient-4);}.cls-24{fill:#f0eeff;}</style><linearGradient id="linear-gradient" y1="138.96" x2="444.67" y2="138.96" gradientTransform="matrix(1, 0, 0, -1, 0, 277.92)" gradientUnits="userSpaceOnUse"><stop offset="0" stop-color="#1c75bc"/><stop offset="0.28" stop-color="#2077bc"/><stop offset="0.54" stop-color="#2b7ebc"/><stop offset="0.8" stop-color="#3e88bc"/><stop offset="1" stop-color="#5394bc"/></linearGradient><linearGradient id="linear-gradient-2" x1="250.36" y1="227.24" x2="386.04" y2="133.36" gradientTransform="matrix(-1, 0, 0, 1, 444.67, 0)" gradientUnits="userSpaceOnUse"><stop offset="0" stop-color="#9b7ddd"/><stop offset="0.25" stop-color="#9b82dd"/><stop offset="0.55" stop-color="#9b90dd"/><stop offset="0.87" stop-color="#9ca8dd"/><stop offset="1" stop-color="#9cb4dd"/></linearGradient><clipPath id="clip-path"><path class="cls-1" d="M156.46,142.87l0,4c0-2.58,0-3.33,0-5.9v-4C156.46,139.54,156.46,140.29,156.46,142.87Z"/></clipPath><linearGradient id="linear-gradient-3" x1="215.81" y1="165.01" x2="182.63" y2="115.06" xlink:href="#linear-gradient-2"/><linearGradient id="linear-gradient-4" x1="254.1" y1="140.39" x2="250.73" y2="71.43" xlink:href="#linear-gradient-2"/></defs><title>Recurso 3</title><g class="cls-2"><g id="Capa_2" data-name="Capa 2"><g id="OBJECTS"><rect class="cls-3" width="444.67" height="277.92" transform="translate(444.67 277.92) rotate(-180)"/><path class="cls-4" d="M270.78,148.14c24.68-29.3,54.87-54.29,90-74.5a420.08,420.08,0,0,1,83.85-36.21V43.6c-88.5,28.34-142.84,74.47-175.69,116-6.59,47.14-2.68,90.5,1.7,118.37h-5.86c-4.08-26.34-7.65-65.8-2.83-109.19-.86,1.18-1.71,2.35-2.53,3.51a298.92,298.92,0,0,0-47.6,105.68h-5.93a304.68,304.68,0,0,1,48.61-108.77c2.87-4.06,5.86-8,8.92-12,.05-.35.09-.7.15-1,7.16-48.56,23.85-91.29,49.61-127A254.16,254.16,0,0,1,337.78,0h7.86Q286.66,57.5,270.78,148.14Z"/><path class="cls-4" d="M.17,93.89C43.88,65.44,72.93,32.93,92,4.2,93,2.8,93.87,1.4,94.77,0h6.73C100,2.36,98.52,4.72,97,7.09,72.34,44.17,39.79,75.71.17,100.92Z"/><path class="cls-4" d="M29,161.61c0,31.56,47.05,57.14,105.08,57.14s105.08-25.58,105.08-57.14-47-57.13-105.08-57.13S29,130.06,29,161.61Zm29.32,0c0-22.74,33.92-41.19,75.76-41.19s75.77,18.45,75.77,41.19-33.92,41.2-75.77,41.2S58.3,184.37,58.3,161.61Z"/><path class="cls-4" d="M72.52,161.61c0,18.48,27.56,33.47,61.54,33.47s61.54-15,61.54-33.47-27.55-33.46-61.54-33.46S72.52,143.14,72.52,161.61Zm17.17,0c0-13.33,19.87-24.13,44.37-24.13s44.38,10.8,44.38,24.13-19.87,24.12-44.38,24.12S89.69,174.94,89.69,161.62Z"/><path class="cls-5" d="M41.37,160.47l51-29.59a7,7,0,0,1,7,0l113.47,65.5a3.07,3.07,0,0,1,0,5.32L163,230.62a8.31,8.31,0,0,1-8.31,0L41.38,165.24A2.75,2.75,0,0,1,41.37,160.47Z"/><polygon class="cls-6" points="150.5 225.24 46.25 164.94 100.16 133.79 204.4 194.08 150.5 225.24"/><path class="cls-7" d="M41.38,165.24l113.28,65.39a8.31,8.31,0,0,0,8.31,0l49.83-28.93a3,3,0,0,0,1.53-2.65v6.26h0a3,3,0,0,1-1.53,2.6L163,236.83a8.28,8.28,0,0,1-8.31,0L41.38,171.45a2.73,2.73,0,0,1-1.38-2.4h0v-6.19A2.74,2.74,0,0,0,41.38,165.24Z"/><path class="cls-8" d="M41.38,165.24l113.28,65.39a8.32,8.32,0,0,0,3.79,1.09v6.21a8.32,8.32,0,0,1-3.79-1.09L41.38,171.45a2.73,2.73,0,0,1-1.38-2.4h0v-6.19A2.74,2.74,0,0,0,41.38,165.24Z"/><g class="cls-2"><g class="cls-9"><g class="cls-2"><path class="cls-10" d="M156.46,142.87l0,4c0-2.58,0-3.33,0-5.9v-4c0,2.57,0,3.32,0,5.9"/></g></g></g><path class="cls-7" d="M87.74,175.36h0a.64.64,0,0,0,.08.14v0a.49.49,0,0,0,.12.13l.11.08.06,0a2.08,2.08,0,0,0,.3.13l.1,0,.13,0,.17,0h.05l.28,0H99a2.38,2.38,0,0,0,.55-.06h0a1.84,1.84,0,0,0,.45-.18.73.73,0,0,0,.41-.55c.54-8.65,6.83-16.34,16.58-22,.62-.36,1.26-.72,1.92-1.06l.65-.33,1.35-.67c.27-.14.55-.26.83-.39s.82-.38,1.25-.56.62-.26.93-.39l1.22-.51.08,0,.24-.09c.88-.34,1.79-.67,2.71-1l.74-.25c1-.33,2-.65,3.08-.95l.09,0,.49-.13,2.1-.56,1-.23,1.83-.41.54-.12.55-.11,1.48-.28,1.17-.2,1.53-.25.79-.12.4-.05,1.37-.17,1.28-.16,1.4-.13c.31,0,.62-.07.94-.09l.35,0,1.37-.09,1.34-.08,1.38-.05c.34,0,.67,0,1,0l.7,0a2.11,2.11,0,0,0,.52-.07h0a1.67,1.67,0,0,0,.43-.16.73.73,0,0,0,.42-.59l0,4a.75.75,0,0,1-.43.59l-.21.1-.17.06h-.07l-.09,0-.14,0h-.29q-.86,0-1.71.06l-1.38,0-1.34.08-1.36.09-1.3.12-1.4.13-1.28.16-1.37.17c-.4.05-.8.12-1.19.18s-1,.15-1.53.24l-1.17.2-1.48.28-1.08.23c-.62.13-1.24.27-1.85.42l-.94.22-2.1.56-.59.16c-1,.3-2.07.62-3.08.95l-.74.25c-.92.32-1.83.65-2.72,1l-.31.11-1.25.52-.9.38c-.43.18-.84.38-1.26.57l-.82.38c-.46.21-.9.44-1.34.67l-.66.33c-.65.34-1.29.7-1.92,1.06-9.75,5.63-16,13.32-16.58,22a.72.72,0,0,1-.41.55l-.21.1-.17.06-.07,0h0l-.06,0-.14,0-.14,0H88.83l-.1,0h-.07l-.13,0h-.07l0,0a2.08,2.08,0,0,1-.3-.13h0l-.06,0L88,179.7h0a.28.28,0,0,1-.09-.1l0,0v0l0-.05a.2.2,0,0,1,0-.08h0s0,0,0-.06,0-.06,0-.09h0v-4A.45.45,0,0,0,87.74,175.36Z"/><path class="cls-5" d="M107.14,147.46c-11.47,6.62-18.72,16-19.43,27.72,0,.47.62.86,1.44.86H99a2.08,2.08,0,0,0,1-.24.73.73,0,0,0,.41-.55c.54-8.65,6.83-16.34,16.58-22,9.91-5.73,23.41-9.31,38.07-9.57a2.13,2.13,0,0,0,1-.24.73.73,0,0,0,.42-.59c0-2.58,0-3.33,0-5.9,0-.47-.67-.84-1.49-.82C136.14,136.52,119.28,140.45,107.14,147.46Z"/><path class="cls-7" d="M106.48,175.35h0l.07.14,0,0,.11.12.11.08.06.05a2.08,2.08,0,0,0,.3.13l.1,0,.14,0,.17,0h0l.28,0h9.55A2.36,2.36,0,0,0,118,176h0a1.51,1.51,0,0,0,.45-.18.75.75,0,0,0,.42-.55c.47-5.68,4.64-10.73,11.06-14.43.8-.46,1.62-.9,2.48-1.31l.11,0c.83-.4,1.7-.78,2.59-1.14l.2-.08.13-.05c.82-.33,1.67-.63,2.54-.92l.75-.23c.43-.13.86-.28,1.3-.4l.92-.25.57-.15c.81-.2,1.63-.4,2.47-.57l.25,0c.84-.17,1.7-.31,2.56-.44l.89-.16h.1c.83-.11,1.68-.2,2.53-.28l1-.11h0c1.05-.09,2.11-.14,3.18-.17l.43,0h0a2.73,2.73,0,0,0,.51-.07h0a1.76,1.76,0,0,0,.42-.17.71.71,0,0,0,.42-.58c0-1.84,0-3.69,0-5.53v4c0,1.84,0,3.69,0,5.53a.71.71,0,0,1-.42.58,1,1,0,0,1-.21.1.85.85,0,0,1-.17.06h-.06l-.09,0-.14,0-.14,0H155l-.45,0c-1.06,0-2.12.08-3.17.17l-1,.11c-.85.08-1.7.17-2.54.28l-1,.17c-.86.13-1.72.27-2.56.44s-1.84.4-2.73.62l-.57.15c-.76.2-1.49.42-2.22.65l-.75.23c-.91.31-1.81.62-2.67,1l-.2.08c-.89.36-1.76.74-2.59,1.14a.31.31,0,0,0-.1.05c-.86.41-1.69.85-2.48,1.31-6.43,3.7-10.6,8.75-11.07,14.43a.73.73,0,0,1-.42.55,1,1,0,0,1-.21.1l-.17.06-.07,0h0l-.06,0-.14,0-.14,0H107.57l-.1,0h-.07l-.14,0-.07,0h0a1.57,1.57,0,0,1-.29-.13h0l-.06,0-.11-.08h0a.28.28,0,0,1-.09-.1h0l0,0,0,0,0-.08h0a.14.14,0,0,1,0-.06.28.28,0,0,1,0-.09h0v-4A.41.41,0,0,0,106.48,175.35Z"/><path class="cls-5" d="M121.15,155.66c-8.49,4.91-14.22,11.66-14.7,19.5,0,.47.62.86,1.44.86h9.55a2.08,2.08,0,0,0,1-.25.75.75,0,0,0,.42-.55c.47-5.68,4.64-10.73,11.06-14.43s15.39-6.15,25-6.39a2,2,0,0,0,.95-.25.71.71,0,0,0,.42-.58c0-1.84,0-3.69,0-5.53,0-.46-.65-.84-1.44-.83C142.52,147.28,130.25,150.41,121.15,155.66Z"/><path class="cls-7" d="M125.26,175.36h0l.08.14h0a.46.46,0,0,0,.12.12l.1.08.07.05.29.13.1,0,.15,0,.16,0h0l.27,0h9.61a2.43,2.43,0,0,0,.55-.07h0a1.83,1.83,0,0,0,.45-.17.75.75,0,0,0,.41-.51c.39-2.59,2.16-4.89,5.46-6.8.44-.25.88-.48,1.34-.71l.46-.2.94-.41.11,0,.22-.07c.56-.22,1.13-.41,1.72-.58l.25-.09.18,0c.53-.15,1.07-.28,1.62-.4l.09,0h0c.56-.12,1.12-.21,1.7-.3l.1,0,.45,0c.4-.06.8-.1,1.2-.14l.22,0,1.15-.08a2.21,2.21,0,0,0,.47-.07h0a1.76,1.76,0,0,0,.39-.15.75.75,0,0,0,.43-.59c0-1.86,0-3.71.05-5.56v4c0,1.85,0,3.7-.05,5.56a.73.73,0,0,1-.42.59l-.21.09-.17.06h0l-.12,0-.14,0-.13,0h-.08c-.46,0-.92.06-1.37.1l-1.19.13-.56.07c-.57.09-1.14.18-1.69.3l-.11,0c-.55.12-1.09.25-1.62.4l-.43.13c-.59.17-1.16.36-1.72.58l-.33.12-.94.41-.46.2c-.46.23-.9.46-1.34.71-3.3,1.91-5.07,4.21-5.46,6.8a.75.75,0,0,1-.41.51l-.21.1-.18.06h-.08l-.07,0-.15,0-.14,0H126.35l-.1,0h-.06l-.15,0H126l0,0a2.08,2.08,0,0,1-.3-.13h0l-.06,0-.1-.08h0l-.09-.1h0l0-.06,0-.08h0s0-.05,0-.07,0-.05,0-.08h0v-4A.45.45,0,0,0,125.26,175.36Z"/><path class="cls-5" d="M134.36,163.34c-5.18,3-8.73,7.08-9.13,11.81,0,.48.62.87,1.43.87h9.61a2.26,2.26,0,0,0,1-.25.75.75,0,0,0,.41-.51c.39-2.59,2.16-4.89,5.46-6.8a25.87,25.87,0,0,1,11.76-3.17,2,2,0,0,0,.87-.23.75.75,0,0,0,.43-.59c0-1.86,0-3.71.05-5.56,0-.47-.67-.85-1.49-.83A43.38,43.38,0,0,0,134.36,163.34Z"/><path class="cls-7" d="M144.85,174.72a2.45,2.45,0,0,0,0,.27l0,.28.06.23c0,.09,0,.18.08.27l.09.22c0,.1.08.19.13.29l.13.2a2.82,2.82,0,0,0,.21.31l.14.19c.12.14.25.27.39.41a1,1,0,0,0,.15.14,3,3,0,0,0,.27.23l.26.2a3.62,3.62,0,0,0,.32.22l.35.22a9.75,9.75,0,0,0,1.26.6l.35.13c.27.1.56.18.85.26l.9.23c.36.07.73.14,1.1.19l.27,0c.5.06,1,.08,1.52.09H154c.5,0,1,0,1.5-.09l.23,0a13.71,13.71,0,0,0,1.45-.25l.26-.06a12.14,12.14,0,0,0,1.25-.39l.23-.07a9.6,9.6,0,0,0,1.37-.65c1.78-1,2.67-2.38,2.67-3.73v4c0,1.35-.88,2.7-2.66,3.73a10.53,10.53,0,0,1-1.31.62l-.07,0-.23.07a14.56,14.56,0,0,1-8.81.26,9.29,9.29,0,0,1-3-1.37,4.49,4.49,0,0,1-2-3c0-.06,0-.13,0-.19v-4.12Z"/><path class="cls-5" d="M147.52,171c-3.54,2-3.56,5.37,0,7.41a14.11,14.11,0,0,0,12.78,0c3.54-2,3.56-5.36.05-7.4A14.1,14.1,0,0,0,147.52,171Z"/><path class="cls-8" d="M125.26,175.37l.08.14h0a.46.46,0,0,0,.12.12l.1.08.07.05.29.13.1,0,.15,0,.16,0h0l.27,0h9.61a2.43,2.43,0,0,0,.55-.07h0a1.83,1.83,0,0,0,.45-.17,1.3,1.3,0,0,0,.18-.15v4a1.15,1.15,0,0,1-.17.14l-.21.1-.18.06h-.08l-.07,0-.15,0-.14,0H126.35l-.1,0h-.06l-.15,0H126l0,0a2.08,2.08,0,0,1-.3-.13h0l-.06,0-.1-.08h0l-.09-.1h0l0-.06,0-.08h0s0-.05,0-.07,0-.05,0-.08h0v-4a.45.45,0,0,0,0,.16Z"/><path class="cls-8" d="M106.48,175.37s0,.09.07.14h0a.63.63,0,0,0,.11.12l.1.08.07.05a2.08,2.08,0,0,0,.3.13l.1,0,.14,0,.16,0h.06l.27,0h9.6A2.36,2.36,0,0,0,118,176h0a1.83,1.83,0,0,0,.45-.17,1.3,1.3,0,0,0,.18-.15v4a.79.79,0,0,1-.17.14,1,1,0,0,1-.21.1l-.17.06H118l-.07,0-.14,0-.14,0H107.57l-.11,0h-.06l-.14,0h-.07l0,0a2.08,2.08,0,0,1-.3-.13h0l-.06,0-.1-.08h0a.39.39,0,0,1-.08-.1h0l0-.06,0-.08h0a.19.19,0,0,1,0-.07.22.22,0,0,1,0-.08h0v-4a.45.45,0,0,0,0,.16Z"/><path class="cls-8" d="M87.74,175.37a.64.64,0,0,0,.08.14v0a.49.49,0,0,0,.12.13l.11.08.06,0a2.08,2.08,0,0,0,.3.13l.1,0,.13,0,.17,0h.05l.28,0H99a2.38,2.38,0,0,0,.55-.06h0l.2-.08V180l-.12,0-.07,0h0l-.06,0-.14,0-.14,0H88.83l-.1,0h-.07l-.13,0h-.07l0,0a2.08,2.08,0,0,1-.3-.13h0l-.06,0L88,179.7h0a.28.28,0,0,1-.09-.1l0,0v0l0-.05a.2.2,0,0,1,0-.08h0s0,0,0-.06,0-.06,0-.09h0v-4a.45.45,0,0,0,0,.16Z"/><path class="cls-8" d="M144.9,175.27l.06.23c0,.09,0,.18.08.27l.09.22c0,.1.08.19.13.29l.13.2a2.82,2.82,0,0,0,.21.31l.14.19c.12.14.25.27.39.41a1,1,0,0,0,.15.14,3,3,0,0,0,.27.23l.26.2a3.62,3.62,0,0,0,.32.22l.35.22a9.75,9.75,0,0,0,1.26.6l.35.13c.27.1.56.18.84.26l.91.23c.36.07.73.14,1.1.19l.27,0c.5.06,1,.08,1.52.09h.17v4a15.62,15.62,0,0,1-4-.55,9.29,9.29,0,0,1-3-1.37,4.49,4.49,0,0,1-2-3c0-.06,0-.13,0-.19v-4.12a2.45,2.45,0,0,0,0,.27Z"/><path class="cls-5" d="M189.67,170.17l28.6-16.51a2.44,2.44,0,0,1,2.45,0l39.68,22.91a1.08,1.08,0,0,1,0,1.86L232.19,194.7a2.91,2.91,0,0,1-2.91,0l-39.61-22.87A1,1,0,0,1,189.67,170.17Z"/><path class="cls-7" d="M189.67,171.83l39.61,22.87a2.91,2.91,0,0,0,2.91,0l28.21-16.27a1.08,1.08,0,0,0,.53-.93v1.9h0a1.06,1.06,0,0,1-.53.91l-28.21,16.28a2.91,2.91,0,0,1-2.91,0l-39.61-22.87a1,1,0,0,1-.48-.84h0V171A.94.94,0,0,0,189.67,171.83Z"/><path class="cls-5" d="M262,142.79,221.4,119.34a.75.75,0,0,0-.8,0h0l-1,.57.82,1.12.31.35v29.87a1.31,1.31,0,0,0,.66,1.15L260,174.72l.06.34,1.23,1.72,1.16-.67h0a.61.61,0,0,0,.29-.52V144A1.36,1.36,0,0,0,262,142.79Z"/><path class="cls-7" d="M260.88,143.45,220.16,120a.6.6,0,0,0-.9.52v31.65a1.34,1.34,0,0,0,.67,1.15l40.72,23.5a.61.61,0,0,0,.92-.53v-31.6A1.37,1.37,0,0,0,260.88,143.45Z"/><polygon class="cls-11" points="260.24 145.52 220.25 122.3 220.25 150.28 260.25 173.43 260.24 145.52"/><polygon class="cls-7" points="217.42 157.54 219.44 156.37 221.72 157.69 219.72 158.85 217.42 157.54"/><polygon class="cls-7" points="220.28 159.18 222.29 158.01 224.58 159.33 222.57 160.5 220.28 159.18"/><polygon class="cls-7" points="223.13 160.82 225.14 159.66 227.43 160.97 225.42 162.14 223.13 160.82"/><polygon class="cls-7" points="225.98 162.46 228 161.3 230.28 162.62 228.28 163.78 225.98 162.46"/><polygon class="cls-7" points="228.84 164.11 230.85 162.94 233.13 164.26 231.13 165.42 228.84 164.11"/><polygon class="cls-7" points="231.69 165.75 233.7 164.58 235.99 165.9 233.98 167.06 231.69 165.75"/><polygon class="cls-7" points="234.54 167.39 236.55 166.22 238.84 167.54 236.84 168.71 234.54 167.39"/><polygon class="cls-7" points="237.39 169.03 239.41 167.87 241.69 169.19 239.69 170.35 237.39 169.03"/><polygon class="cls-7" points="240.25 170.68 242.26 169.51 244.55 170.83 242.54 171.99 240.25 170.68"/><polygon class="cls-7" points="243.1 172.32 245.11 171.15 247.4 172.47 245.39 173.63 243.1 172.32"/><polygon class="cls-7" points="245.95 173.96 247.97 172.79 250.25 174.11 248.25 175.28 245.95 173.96"/><polygon class="cls-7" points="248.81 175.6 250.82 174.44 253.11 175.75 251.1 176.92 248.81 175.6"/><polygon class="cls-7" points="253.67 176.08 255.96 177.4 253.95 178.56 251.66 177.24 253.67 176.08"/><polygon class="cls-7" points="217.11 160.36 214.82 159.05 216.83 157.88 219.12 159.2 217.11 160.36"/><polygon class="cls-7" points="221.97 160.84 219.97 162 217.67 160.69 219.69 159.52 221.97 160.84"/><polygon class="cls-7" points="224.82 162.48 222.82 163.65 220.53 162.33 222.54 161.16 224.82 162.48"/><polygon class="cls-7" points="227.68 164.13 225.67 165.29 223.38 163.97 225.39 162.81 227.68 164.13"/><polygon class="cls-7" points="230.53 165.77 228.53 166.93 226.23 165.62 228.24 164.45 230.53 165.77"/><polygon class="cls-7" points="233.38 167.41 231.38 168.57 229.09 167.26 231.1 166.09 233.38 167.41"/><polygon class="cls-7" points="236.24 169.05 234.23 170.22 231.94 168.9 233.95 167.73 236.24 169.05"/><polygon class="cls-7" points="239.09 170.69 237.08 171.86 234.79 170.54 236.8 169.38 239.09 170.69"/><polygon class="cls-7" points="241.94 172.34 239.94 173.5 237.64 172.18 239.66 171.02 241.94 172.34"/><polygon class="cls-7" points="244.8 173.98 242.79 175.14 240.5 173.83 242.51 172.66 244.8 173.98"/><polygon class="cls-7" points="247.65 175.62 245.64 176.78 243.35 175.47 245.36 174.3 247.65 175.62"/><polygon class="cls-7" points="250.5 177.26 248.5 178.43 246.2 177.11 248.22 175.94 250.5 177.26"/><polygon class="cls-7" points="251.07 177.59 253.35 178.9 251.35 180.07 249.06 178.75 251.07 177.59"/><polygon class="cls-7" points="214.51 161.87 212.22 160.56 214.23 159.39 216.52 160.71 214.51 161.87"/><polygon class="cls-7" points="219.37 162.35 217.36 163.51 215.07 162.2 217.08 161.03 219.37 162.35"/><polygon class="cls-7" points="217.92 163.84 219.93 162.67 222.22 163.99 220.22 165.16 217.92 163.84"/><polygon class="cls-7" points="225.07 165.63 223.07 166.8 220.78 165.48 222.79 164.31 225.07 165.63"/><polygon class="cls-7" points="227.93 167.28 225.92 168.44 223.63 167.12 225.64 165.96 227.93 167.28"/><polygon class="cls-7" points="230.78 168.92 228.77 170.08 226.48 168.77 228.49 167.6 230.78 168.92"/><polygon class="cls-7" points="233.63 170.56 231.63 171.72 229.33 170.41 231.35 169.24 233.63 170.56"/><polygon class="cls-7" points="236.49 172.2 234.48 173.37 232.19 172.05 234.2 170.88 236.49 172.2"/><polygon class="cls-7" points="239.34 173.84 237.33 175.01 235.04 173.69 237.05 172.53 239.34 173.84"/><polygon class="cls-7" points="242.19 175.49 240.19 176.65 237.89 175.34 239.91 174.17 242.19 175.49"/><polygon class="cls-7" points="245.04 177.13 243.04 178.29 240.75 176.98 242.76 175.81 245.04 177.13"/><polygon class="cls-7" points="243.6 178.62 245.61 177.45 247.9 178.77 245.89 179.93 243.6 178.62"/><polygon class="cls-7" points="248.46 179.09 250.75 180.41 248.74 181.58 246.45 180.26 248.46 179.09"/><polygon class="cls-7" points="211.91 163.38 209.61 162.06 211.63 160.9 213.91 162.22 211.91 163.38"/><polygon class="cls-7" points="212.47 163.71 214.48 162.54 216.76 163.86 214.76 165.02 212.47 163.71"/><polygon class="cls-7" points="215.32 165.35 217.33 164.18 219.62 165.5 217.61 166.66 215.32 165.35"/><polygon class="cls-7" points="218.17 166.99 220.18 165.82 222.47 167.14 220.46 168.31 218.17 166.99"/><polygon class="cls-7" points="221.02 168.63 223.04 167.47 225.32 168.78 223.32 169.95 221.02 168.63"/><polygon class="cls-7" points="223.88 170.27 225.89 169.11 228.18 170.43 226.17 171.59 223.88 170.27"/><polygon class="cls-7" points="226.73 171.92 228.74 170.75 231.03 172.07 229.02 173.23 226.73 171.92"/><polygon class="cls-7" points="229.58 173.56 231.59 172.39 233.88 173.71 231.88 174.87 229.58 173.56"/><polygon class="cls-7" points="232.44 175.2 234.45 174.03 236.74 175.35 234.73 176.52 232.44 175.2"/><polygon class="cls-7" points="235.29 176.84 237.3 175.68 239.59 177 237.58 178.16 235.29 176.84"/><polygon class="cls-7" points="238.14 178.49 240.15 177.32 242.44 178.64 240.43 179.8 238.14 178.49"/><polygon class="cls-7" points="240.99 180.13 243.01 178.96 245.29 180.28 243.29 181.44 240.99 180.13"/><polygon class="cls-7" points="245.86 180.6 248.15 181.92 246.14 183.09 243.85 181.77 245.86 180.6"/><polygon class="cls-7" points="209.3 164.89 207.01 163.57 209.02 162.4 211.31 163.72 209.3 164.89"/><polygon class="cls-7" points="209.86 165.21 211.87 164.05 214.16 165.37 212.16 166.53 209.86 165.21"/><polygon class="cls-7" points="212.71 166.86 214.73 165.69 217.01 167.01 215.01 168.17 212.71 166.86"/><polygon class="cls-7" points="215.57 168.5 217.58 167.33 219.87 168.65 217.86 169.81 215.57 168.5"/><polygon class="cls-7" points="218.42 170.14 220.43 168.97 222.72 170.29 220.71 171.46 218.42 170.14"/><polygon class="cls-7" points="221.27 171.78 223.28 170.62 225.57 171.93 223.57 173.1 221.27 171.78"/><polygon class="cls-7" points="224.13 173.43 226.14 172.26 228.43 173.58 226.42 174.74 224.13 173.43"/><polygon class="cls-7" points="226.98 175.07 228.99 173.9 231.28 175.22 229.27 176.38 226.98 175.07"/><polygon class="cls-7" points="229.83 176.71 231.84 175.54 234.13 176.86 232.13 178.03 229.83 176.71"/><polygon class="cls-7" points="232.68 178.35 234.7 177.18 236.98 178.5 234.98 179.67 232.68 178.35"/><polygon class="cls-7" points="235.54 179.99 237.55 178.83 239.84 180.15 237.83 181.31 235.54 179.99"/><polygon class="cls-7" points="238.39 181.64 240.4 180.47 242.69 181.79 240.68 182.95 238.39 181.64"/><polygon class="cls-7" points="243.25 182.11 245.54 183.43 243.54 184.59 241.24 183.28 243.25 182.11"/><polygon class="cls-7" points="206.42 163.91 208.7 165.23 206.7 166.4 204.4 165.08 206.42 163.91"/><polygon class="cls-7" points="211.56 166.87 209.55 168.04 207.26 166.72 209.27 165.56 211.56 166.87"/><polygon class="cls-7" points="214.41 168.52 212.4 169.68 210.11 168.37 212.12 167.2 214.41 168.52"/><polygon class="cls-7" points="217.26 170.16 215.26 171.32 212.96 170.01 214.98 168.84 217.26 170.16"/><polygon class="cls-7" points="220.12 171.8 218.11 172.96 215.82 171.65 217.83 170.48 220.12 171.8"/><polygon class="cls-7" points="222.97 173.44 220.96 174.61 218.67 173.29 220.68 172.12 222.97 173.44"/><polygon class="cls-7" points="223.53 173.77 226.39 175.41 226.39 175.41 226.95 175.73 229.24 177.05 229.24 177.05 230.4 177.72 232.09 178.69 232.09 178.69 233.89 179.73 237.23 181.65 235.23 182.82 231.74 180.81 230.08 179.86 230.08 179.86 228.35 178.86 227.23 178.22 227.23 178.22 224.97 176.92 224.38 176.57 224.38 176.57 221.52 174.93 223.53 173.77"/><polygon class="cls-7" points="240.09 183.3 238.08 184.46 235.79 183.14 237.8 181.98 240.09 183.3"/><polygon class="cls-7" points="242.94 184.94 240.93 186.1 238.64 184.79 240.65 183.62 242.94 184.94"/><path class="cls-7" d="M206.69,177.94l7.17-4.14a.62.62,0,0,1,.62,0l10,5.75a.27.27,0,0,1,0,.47l-7.07,4.08a.73.73,0,0,1-.73,0l-9.94-5.74A.24.24,0,0,1,206.69,177.94Z"/><polygon class="cls-7" points="141.37 104.06 155.7 95.74 155.7 110.22 141.37 118.52 141.37 104.06"/><polygon class="cls-5" points="131.4 81.73 155.7 95.74 141.37 104.06 117.05 90.04 131.4 81.73"/><polygon class="cls-8" points="117.04 90.04 141.37 104.06 141.37 118.52 117.04 104.44 117.04 90.04"/><polygon class="cls-7" points="141.37 104.06 149.03 89.99 155.7 95.74 141.37 104.06"/><polygon class="cls-12" points="117.05 90.04 124.7 75.96 131.38 81.72 117.05 90.04"/><polygon class="cls-13" points="124.7 75.96 149.03 89.99 141.37 104.06 117.05 90.04 124.7 75.96"/><polygon class="cls-14" points="146.64 102.59 151.41 99.85 151.41 111.28 146.64 114.03 146.64 102.59"/><polygon class="cls-5" points="150.62 110.91 150.62 100.3 151.41 99.85 151.41 111.28 146.64 114.03 146.64 113.21 150.62 110.91"/><polygon class="cls-14" points="137.48 105.26 132.72 102.52 132.72 109.6 137.48 112.35 137.48 105.26"/><polygon class="cls-5" points="133.51 109.23 133.51 102.97 132.72 102.52 132.72 109.6 137.48 112.35 137.48 111.53 133.51 109.23"/><polygon class="cls-14" points="125.19 98.16 120.43 95.41 120.43 102.5 125.19 105.25 125.19 98.16"/><polygon class="cls-5" points="121.22 102.13 121.22 95.87 120.43 95.41 120.43 102.5 125.19 105.25 125.19 104.42 121.22 102.13"/><polygon class="cls-7" points="118.15 117.49 132.49 109.17 132.49 123.65 118.15 131.95 118.15 117.49"/><polygon class="cls-5" points="108.19 95.16 132.49 109.17 118.15 117.49 93.83 103.47 108.19 95.16"/><polygon class="cls-8" points="93.83 103.47 118.15 117.49 118.15 131.95 93.83 117.87 93.83 103.47"/><polygon class="cls-7" points="118.15 117.49 125.81 103.42 132.49 109.17 118.15 117.49"/><polygon class="cls-12" points="93.83 103.47 101.49 89.39 108.16 95.15 93.83 103.47"/><polygon class="cls-13" points="101.49 89.39 125.81 103.42 118.15 117.49 93.83 103.47 101.49 89.39"/><polygon class="cls-14" points="123.43 116.02 128.19 113.28 128.19 124.71 123.43 127.47 123.43 116.02"/><polygon class="cls-5" points="127.4 124.34 127.4 113.73 128.19 113.28 128.19 124.71 123.43 127.47 123.43 126.64 127.4 124.34"/><polygon class="cls-14" points="114.26 118.69 109.5 115.94 109.5 123.03 114.26 125.78 114.26 118.69"/><polygon class="cls-5" points="110.29 122.66 110.29 116.4 109.5 115.94 109.5 123.03 114.26 125.78 114.26 124.96 110.29 122.66"/><polygon class="cls-14" points="101.97 111.59 97.21 108.84 97.21 115.93 101.97 118.68 101.97 111.59"/><polygon class="cls-5" points="98 115.56 98 109.3 97.21 108.84 97.21 115.93 101.97 118.68 101.97 117.85 98 115.56"/><polygon class="cls-7" points="60.59 235.5 64.33 233.33 64.33 238.18 60.59 240.33 60.59 235.5"/><polygon class="cls-15" points="36.61 217.32 64.33 233.33 60.59 235.5 32.85 219.49 36.61 217.32"/><polygon class="cls-16" points="32.85 219.49 60.59 235.5 60.59 240.33 32.85 224.29 32.85 219.49"/><polygon class="cls-7" points="60.59 227.12 64.33 224.95 64.33 233.34 60.59 235.5 60.59 227.12"/><polygon class="cls-15" points="60.48 222.76 64.33 224.95 60.59 227.12 56.72 224.92 60.48 222.76"/><polygon class="cls-16" points="56.72 224.92 60.59 227.12 60.59 235.5 56.72 233.27 56.72 224.92"/><polygon class="cls-7" points="86.3 211.47 88.33 210.27 88.33 225.46 86.29 226.62 86.3 211.47"/><polygon class="cls-15" points="60.7 194.38 88.33 210.27 86.3 211.47 58.64 195.56 60.7 194.38"/><polygon class="cls-8" points="58.63 195.56 86.3 211.47 86.29 226.62 58.63 210.63 58.63 195.56"/><path class="cls-15" d="M77.45,232.39a4.5,4.5,0,0,1-1.24-3.64,12.37,12.37,0,0,1,3.87-8.05,6.84,6.84,0,0,1,3.49-1.93,3.07,3.07,0,0,1,2.11.24l-4.87-2.81-.21-.11-.07,0a3.56,3.56,0,0,0-2.49,0,7.33,7.33,0,0,0-2.22,1.23.12.12,0,0,0,0,.05l-.12.09a12.25,12.25,0,0,0-4.34,8.21c-.11,1.49.17,3.35,1.59,4.17l4.88,2.82-.17-.11,0,0Z"/><path class="cls-8" d="M81.71,219.4A12.26,12.26,0,0,0,76.15,229c0,3.54,2.51,5,5.6,3.19a12.28,12.28,0,0,0,5.56-9.64C87.3,219.05,84.79,217.62,81.71,219.4Z"/><path class="cls-17" d="M81.81,220.5a10.36,10.36,0,0,0-4.7,8.14c0,3,2.13,4.2,4.73,2.7a10.35,10.35,0,0,0,4.7-8.14C86.53,220.2,84.41,219,81.81,220.5Z"/><path class="cls-15" d="M85,220.06a3.53,3.53,0,0,1,1,2.8A10.34,10.34,0,0,1,81.3,231a3.5,3.5,0,0,1-3.14.44c.87.73,2.2.76,3.68-.1a10.35,10.35,0,0,0,4.7-8.14A3.18,3.18,0,0,0,85,220.06Z"/><path class="cls-18" d="M81.54,221.92a7.47,7.47,0,0,0-3.38,5.85c0,2.15,1.53,3,3.4,1.93a7.41,7.41,0,0,0,3.37-5.84C84.93,221.71,83.41,220.84,81.54,221.92Z"/><polygon class="cls-7" points="74.47 218.34 86.3 211.47 86.3 213.63 74.47 220.46 74.47 218.34"/><polygon class="cls-15" points="58.7 195.6 86.3 211.47 74.47 218.34 46.84 202.45 58.7 195.6"/><polygon class="cls-19" points="46.84 202.45 74.47 218.34 74.47 220.46 46.84 204.48 46.84 202.45"/><polygon class="cls-7" points="72.43 219.54 74.47 218.34 74.47 233.53 72.43 234.69 72.43 219.54"/><polygon class="cls-15" points="46.84 202.45 74.47 218.34 72.43 219.54 44.77 203.63 46.84 202.45"/><polygon class="cls-8" points="44.77 203.63 72.43 219.54 72.43 234.69 44.77 218.7 44.77 203.63"/><polygon class="cls-18" points="46.02 205.95 49.46 207.94 49.46 210.12 46.02 208.13 46.02 205.95"/><polygon class="cls-18" points="50.25 208.38 53.69 210.37 53.69 212.55 50.25 210.56 50.25 208.38"/><polygon class="cls-18" points="54.48 210.81 57.92 212.8 57.92 214.98 54.48 212.98 54.48 210.81"/><polygon class="cls-20" points="255.99 147.85 240.71 138.98 240.71 149.66 255.99 158.51 255.99 147.85"/><g class="cls-21"><path class="cls-5" d="M175.74,160.52c8.12-1.5,16.56.8,25.06,6.85l-.7,1c-8.22-5.85-16.34-8.09-24.13-6.65-12.33,2.27-19.69,13.12-19.76,13.23l-1-.67C155.51,173.81,162.9,162.89,175.74,160.52Z"/><path class="cls-5" d="M122.75,170.34A76.32,76.32,0,0,1,154.13,175l-.48,1.12a74.74,74.74,0,0,0-30.81-4.55c-15.66,1.08-37.39,8.4-52,37.11l-1.08-.56C84.63,178.9,106.79,171.44,122.75,170.34Z"/><path class="cls-5" d="M118.79,83.78h-.08c-2.36.07-5.7,3.4-8.29,18.83l-1.2-.2c2.22-13.23,5.31-19.72,9.45-19.84h.11c14.6,0,34.85,87.46,35.71,91.19l-1.19.28C147.53,148.88,130.1,83.78,118.79,83.78Z"/></g><path class="cls-5" d="M201.47,91.18l-15.56-9a1.18,1.18,0,0,0-1.25,0h0l-1.38.78,1.27,1.72.47.55v46.22a2.06,2.06,0,0,0,1,1.78l12.42,7.17.1.52,1.9,2.67,1.58-.92h0a.94.94,0,0,0,.45-.8V93A2.12,2.12,0,0,0,201.47,91.18Z"/><path class="cls-22" d="M199.9,92.08l-15.7-9a.92.92,0,0,0-1.38.8v49a2.07,2.07,0,0,0,1,1.79l15.71,9.07a.94.94,0,0,0,1.41-.82V93.92A2.12,2.12,0,0,0,199.9,92.08Z"/><path class="cls-8" d="M182.82,83.83v49a2.07,2.07,0,0,0,1,1.79l15.71,9.07a1,1,0,0,0,.47.12.94.94,0,0,0,.94-.94V93.92a2.12,2.12,0,0,0-1.06-1.84l-15.7-9a.89.89,0,0,0-.46-.13h0A.93.93,0,0,0,182.82,83.83Zm.89,0v0l0,0,15.7,9a1.24,1.24,0,0,1,.62,1.06v48.91s0,0,0,0l-15.73-9.08a1.18,1.18,0,0,1-.58-1Z"/><path class="cls-7" d="M200.49,143.65h0Z"/><path class="cls-7" d="M201,142.83V93.92a2.19,2.19,0,0,0-.14-.72l1.58-.88a2.28,2.28,0,0,1,.13.69v48.91a.94.94,0,0,1-.45.8h0l-1.56.9A.92.92,0,0,0,201,142.83Z"/><polygon class="cls-20" points="198.92 114.99 184.86 106.83 184.86 108.06 198.92 116.2 198.92 114.99"/><polygon class="cls-20" points="198.92 117.04 184.86 108.88 184.86 110.12 198.92 118.25 198.92 117.04"/><polygon class="cls-20" points="198.92 119.1 184.86 110.94 184.86 112.17 198.92 120.31 198.92 119.1"/><polygon class="cls-20" points="198.92 121.15 184.86 112.99 184.86 114.23 198.92 122.36 198.92 121.15"/><polygon class="cls-20" points="198.92 123.21 184.86 115.05 184.86 116.28 198.92 124.42 198.92 123.21"/><polygon class="cls-20" points="198.92 125.26 184.86 117.1 184.86 118.34 198.92 126.47 198.92 125.26"/><polygon class="cls-20" points="198.92 127.32 184.86 119.16 184.86 120.39 198.92 128.53 198.92 127.32"/><polygon class="cls-20" points="198.92 135.27 184.86 127.11 184.86 128.35 198.92 136.49 198.92 135.27"/><polygon class="cls-20" points="198.92 137.33 184.86 129.17 184.86 130.41 198.92 138.54 198.92 137.33"/><polygon class="cls-20" points="198.92 139.38 184.86 131.22 184.86 132.46 198.92 140.6 198.92 139.38"/><g class="cls-23"><polygon class="cls-5" points="184.89 93.81 185.71 94.29 185.7 98.5 184.88 98.02 184.89 93.81"/><polygon class="cls-5" points="187.35 95.23 189.8 96.65 189.79 100.86 188.97 100.38 188.97 98.64 187.53 97.81 187.53 97.01 188.97 97.85 188.98 96.97 187.35 96.03 187.35 95.23"/><polygon class="cls-5" points="192.53 98.22 192.52 102.43 191.69 101.96 191.71 97.75 192.53 98.22"/><path class="cls-5" d="M195.08,100.44l.12.85c.05.28.09.56.14.83s.09.52.14.76l.17-.53.18-.56c.06-.19.11-.37.17-.55s.09-.34.14-.48l.7.4.13.63c.05.23.1.48.15.73l.18.77c.06.26.12.51.18.74.05-.18.1-.37.15-.59s.09-.44.14-.67.09-.47.14-.7.08-.46.11-.68l.9.52c-.13.63-.27,1.27-.44,1.9s-.33,1.22-.52,1.76l-.76-.43c-.12-.46-.24-.94-.35-1.43l-.33-1.48c-.12.36-.23.72-.35,1.09s-.24.69-.36,1l-.76-.44c-.18-.76-.36-1.54-.51-2.36s-.31-1.62-.43-2.39l.86.49C195,99.89,195,100.16,195.08,100.44Z"/></g><polygon class="cls-7" points="62.86 95.31 80.97 84.79 80.97 129.95 62.86 140.43 62.86 95.31"/><polygon class="cls-5" points="62.25 74.03 80.97 84.79 62.86 95.31 44.11 84.53 62.25 74.03"/><polygon class="cls-8" points="44.11 84.53 62.86 95.31 62.86 140.43 44.11 129.58 44.11 84.53"/><polygon class="cls-14" points="76.52 89.97 79.3 88.36 79.3 93.61 76.52 95.21 76.52 89.97"/><polygon class="cls-5" points="78.83 93.39 78.83 88.63 79.3 88.36 79.3 93.61 76.52 95.21 76.52 94.73 78.83 93.39"/><polygon class="cls-14" points="70.62 93.39 73.4 91.79 73.4 97.03 70.62 98.64 70.62 93.39"/><polygon class="cls-5" points="72.94 96.82 72.94 92.06 73.4 91.79 73.4 97.03 70.62 98.64 70.62 98.16 72.94 96.82"/><polygon class="cls-14" points="64.72 96.82 67.5 95.21 67.5 100.46 64.72 102.06 64.72 96.82"/><polygon class="cls-5" points="67.04 100.24 67.04 95.48 67.5 95.21 67.5 100.46 64.72 102.06 64.72 101.58 67.04 100.24"/><polygon class="cls-14" points="76.52 98.53 79.3 96.92 79.3 102.17 76.52 103.78 76.52 98.53"/><polygon class="cls-5" points="78.83 101.95 78.83 97.19 79.3 96.92 79.3 102.17 76.52 103.78 76.52 103.29 78.83 101.95"/><polygon class="cls-14" points="70.62 101.95 73.4 100.35 73.4 105.59 70.62 107.2 70.62 101.95"/><polygon class="cls-5" points="72.94 105.38 72.94 100.62 73.4 100.35 73.4 105.59 70.62 107.2 70.62 106.72 72.94 105.38"/><polygon class="cls-14" points="64.72 105.38 67.5 103.78 67.5 109.02 64.72 110.63 64.72 105.38"/><polygon class="cls-5" points="67.04 108.8 67.04 104.04 67.5 103.78 67.5 109.02 64.72 110.63 64.72 110.14 67.04 108.8"/><polygon class="cls-14" points="76.52 107.09 79.3 105.48 79.3 110.73 76.52 112.34 76.52 107.09"/><polygon class="cls-5" points="78.83 110.51 78.83 105.75 79.3 105.48 79.3 110.73 76.52 112.34 76.52 111.85 78.83 110.51"/><polygon class="cls-14" points="70.62 110.51 73.4 108.91 73.4 114.16 70.62 115.76 70.62 110.51"/><polygon class="cls-5" points="72.94 113.94 72.94 109.18 73.4 108.91 73.4 114.16 70.62 115.76 70.62 115.28 72.94 113.94"/><polygon class="cls-14" points="64.72 113.94 67.5 112.34 67.5 117.58 64.72 119.19 64.72 113.94"/><polygon class="cls-5" points="67.04 117.37 67.04 112.6 67.5 112.34 67.5 117.58 64.72 119.19 64.72 118.71 67.04 117.37"/><polygon class="cls-14" points="76.52 115.65 79.3 114.05 79.3 119.29 76.52 120.9 76.52 115.65"/><polygon class="cls-5" points="78.83 119.08 78.83 114.31 79.3 114.05 79.3 119.29 76.52 120.9 76.52 120.42 78.83 119.08"/><polygon class="cls-14" points="70.62 119.07 73.4 117.47 73.4 122.72 70.62 124.32 70.62 119.07"/><polygon class="cls-5" points="72.94 122.5 72.94 117.74 73.4 117.47 73.4 122.72 70.62 124.32 70.62 123.84 72.94 122.5"/><polygon class="cls-14" points="64.72 122.5 67.5 120.9 67.5 126.14 64.72 127.75 64.72 122.5"/><polygon class="cls-5" points="67.04 125.93 67.04 121.17 67.5 120.9 67.5 126.14 64.72 127.75 64.72 127.27 67.04 125.93"/><polygon class="cls-14" points="76.52 124.21 79.3 122.61 79.3 127.85 76.52 129.46 76.52 124.21"/><polygon class="cls-5" points="78.83 127.64 78.83 122.88 79.3 122.61 79.3 127.85 76.52 129.46 76.52 128.98 78.83 127.64"/><polygon class="cls-14" points="70.62 127.64 73.4 126.03 73.4 131.28 70.62 132.88 70.62 127.64"/><polygon class="cls-5" points="72.94 131.06 72.94 126.3 73.4 126.03 73.4 131.28 70.62 132.88 70.62 132.4 72.94 131.06"/><polygon class="cls-14" points="64.72 131.06 67.5 129.46 67.5 134.7 64.72 136.31 64.72 131.06"/><polygon class="cls-5" points="67.04 134.49 67.04 129.73 67.5 129.46 67.5 134.7 64.72 136.31 64.72 135.83 67.04 134.49"/><polygon class="cls-14" points="48.81 89.97 46.03 88.36 46.03 93.61 48.81 95.21 48.81 89.97"/><polygon class="cls-5" points="46.49 93.39 46.49 88.63 46.03 88.36 46.03 93.61 48.81 95.21 48.81 94.73 46.49 93.39"/><polygon class="cls-14" points="54.71 93.39 51.93 91.79 51.93 97.03 54.71 98.64 54.71 93.39"/><polygon class="cls-5" points="52.39 96.82 52.39 92.06 51.93 91.79 51.93 97.03 54.71 98.64 54.71 98.16 52.39 96.82"/><polygon class="cls-14" points="60.61 96.82 57.83 95.21 57.83 100.46 60.61 102.06 60.61 96.82"/><polygon class="cls-5" points="58.29 100.24 58.29 95.48 57.83 95.21 57.83 100.46 60.61 102.06 60.61 101.58 58.29 100.24"/><polygon class="cls-14" points="48.81 98.53 46.03 96.92 46.03 102.17 48.81 103.78 48.81 98.53"/><polygon class="cls-5" points="46.49 101.95 46.49 97.19 46.03 96.92 46.03 102.17 48.81 103.78 48.81 103.29 46.49 101.95"/><polygon class="cls-14" points="54.71 101.95 51.93 100.35 51.93 105.59 54.71 107.2 54.71 101.95"/><polygon class="cls-5" points="52.39 105.38 52.39 100.62 51.93 100.35 51.93 105.59 54.71 107.2 54.71 106.72 52.39 105.38"/><polygon class="cls-14" points="60.61 105.38 57.83 103.78 57.83 109.02 60.61 110.63 60.61 105.38"/><polygon class="cls-5" points="58.29 108.8 58.29 104.04 57.83 103.78 57.83 109.02 60.61 110.63 60.61 110.14 58.29 108.8"/><polygon class="cls-14" points="48.81 107.09 46.03 105.48 46.03 110.73 48.81 112.34 48.81 107.09"/><polygon class="cls-5" points="46.49 110.51 46.49 105.75 46.03 105.48 46.03 110.73 48.81 112.34 48.81 111.85 46.49 110.51"/><polygon class="cls-14" points="54.71 110.51 51.93 108.91 51.93 114.16 54.71 115.76 54.71 110.51"/><polygon class="cls-5" points="52.39 113.94 52.39 109.18 51.93 108.91 51.93 114.16 54.71 115.76 54.71 115.28 52.39 113.94"/><polygon class="cls-14" points="60.61 113.94 57.83 112.34 57.83 117.58 60.61 119.19 60.61 113.94"/><polygon class="cls-5" points="58.29 117.37 58.29 112.6 57.83 112.34 57.83 117.58 60.61 119.19 60.61 118.71 58.29 117.37"/><polygon class="cls-14" points="48.81 115.65 46.03 114.05 46.03 119.29 48.81 120.9 48.81 115.65"/><polygon class="cls-5" points="46.49 119.08 46.49 114.31 46.03 114.05 46.03 119.29 48.81 120.9 48.81 120.42 46.49 119.08"/><polygon class="cls-14" points="54.71 119.07 51.93 117.47 51.93 122.72 54.71 124.32 54.71 119.07"/><polygon class="cls-5" points="52.39 122.5 52.39 117.74 51.93 117.47 51.93 122.72 54.71 124.32 54.71 123.84 52.39 122.5"/><polygon class="cls-14" points="60.61 122.5 57.83 120.9 57.83 126.14 60.61 127.75 60.61 122.5"/><polygon class="cls-5" points="58.29 125.93 58.29 121.17 57.83 120.9 57.83 126.14 60.61 127.75 60.61 127.27 58.29 125.93"/><polygon class="cls-14" points="48.81 124.21 46.03 122.61 46.03 127.85 48.81 129.46 48.81 124.21"/><polygon class="cls-5" points="46.49 127.64 46.49 122.88 46.03 122.61 46.03 127.85 48.81 129.46 48.81 128.98 46.49 127.64"/><polygon class="cls-14" points="54.71 127.64 51.93 126.03 51.93 131.28 54.71 132.88 54.71 127.64"/><polygon class="cls-5" points="52.39 131.06 52.39 126.3 51.93 126.03 51.93 131.28 54.71 132.88 54.71 132.4 52.39 131.06"/><polygon class="cls-14" points="60.61 131.06 57.83 129.46 57.83 134.7 60.61 136.31 60.61 131.06"/><polygon class="cls-5" points="58.29 134.49 58.29 129.73 57.83 129.46 57.83 134.7 60.61 136.31 60.61 135.83 58.29 134.49"/><polygon class="cls-7" points="40.58 125.14 58.69 114.63 58.69 142.84 40.57 153.33 40.58 125.14"/><polygon class="cls-5" points="39.97 103.87 58.69 114.63 40.58 125.14 21.83 114.37 39.97 103.87"/><polygon class="cls-8" points="21.83 114.37 40.58 125.14 40.57 153.33 21.83 142.48 21.83 114.37"/><polygon class="cls-14" points="54.23 119.98 57.02 118.38 57.02 123.63 54.23 125.23 54.23 119.98"/><polygon class="cls-5" points="56.55 123.41 56.55 118.65 57.02 118.38 57.02 123.63 54.23 125.23 54.23 124.75 56.55 123.41"/><polygon class="cls-14" points="48.34 123.41 51.12 121.81 51.12 127.05 48.34 128.66 48.34 123.41"/><polygon class="cls-5" points="50.65 126.84 50.65 122.07 51.12 121.81 51.12 127.05 48.34 128.66 48.34 128.18 50.65 126.84"/><polygon class="cls-14" points="42.44 126.84 45.22 125.23 45.22 130.48 42.44 132.09 42.44 126.84"/><polygon class="cls-5" points="44.75 130.26 44.75 125.5 45.22 125.23 45.22 130.48 42.44 132.09 42.44 131.6 44.75 130.26"/><polygon class="cls-14" points="54.23 128.55 57.02 126.94 57.02 132.19 54.23 133.79 54.23 128.55"/><polygon class="cls-5" points="56.55 131.97 56.55 127.21 57.02 126.94 57.02 132.19 54.23 133.79 54.23 133.31 56.55 131.97"/><polygon class="cls-14" points="48.34 131.97 51.12 130.37 51.12 135.61 48.34 137.22 48.34 131.97"/><polygon class="cls-5" points="50.65 135.4 50.65 130.64 51.12 130.37 51.12 135.61 48.34 137.22 48.34 136.74 50.65 135.4"/><polygon class="cls-14" points="42.44 135.4 45.22 133.79 45.22 139.04 42.44 140.65 42.44 135.4"/><polygon class="cls-5" points="44.75 138.82 44.75 134.06 45.22 133.79 45.22 139.04 42.44 140.65 42.44 140.16 44.75 138.82"/><polygon class="cls-14" points="54.23 137.11 57.02 135.5 57.02 140.75 54.23 142.36 54.23 137.11"/><polygon class="cls-5" points="56.55 140.53 56.55 135.77 57.02 135.5 57.02 140.75 54.23 142.36 54.23 141.87 56.55 140.53"/><polygon class="cls-14" points="48.34 140.53 51.12 138.93 51.12 144.18 48.34 145.78 48.34 140.53"/><polygon class="cls-5" points="50.65 143.96 50.65 139.2 51.12 138.93 51.12 144.18 48.34 145.78 48.34 145.3 50.65 143.96"/><polygon class="cls-14" points="42.44 143.96 45.22 142.36 45.22 147.6 42.44 149.21 42.44 143.96"/><polygon class="cls-5" points="44.75 147.38 44.75 142.62 45.22 142.36 45.22 147.6 42.44 149.21 42.44 148.73 44.75 147.38"/><polygon class="cls-14" points="26.53 119.98 23.75 118.38 23.75 123.63 26.53 125.23 26.53 119.98"/><polygon class="cls-5" points="24.21 123.41 24.21 118.65 23.75 118.38 23.75 123.63 26.53 125.23 26.53 124.75 24.21 123.41"/><polygon class="cls-14" points="32.43 123.41 29.65 121.81 29.65 127.05 32.43 128.66 32.43 123.41"/><polygon class="cls-5" points="30.11 126.84 30.11 122.07 29.65 121.81 29.65 127.05 32.43 128.66 32.43 128.18 30.11 126.84"/><polygon class="cls-14" points="38.33 126.84 35.55 125.23 35.55 130.48 38.33 132.09 38.33 126.84"/><polygon class="cls-5" points="36.01 130.26 36.01 125.5 35.55 125.23 35.55 130.48 38.33 132.09 38.33 131.6 36.01 130.26"/><polygon class="cls-14" points="26.53 128.55 23.75 126.94 23.75 132.19 26.53 133.79 26.53 128.55"/><polygon class="cls-5" points="24.21 131.97 24.21 127.21 23.75 126.94 23.75 132.19 26.53 133.79 26.53 133.31 24.21 131.97"/><polygon class="cls-14" points="32.43 131.97 29.65 130.37 29.65 135.61 32.43 137.22 32.43 131.97"/><polygon class="cls-5" points="30.11 135.4 30.11 130.64 29.65 130.37 29.65 135.61 32.43 137.22 32.43 136.74 30.11 135.4"/><polygon class="cls-14" points="38.33 135.4 35.55 133.79 35.55 139.04 38.33 140.65 38.33 135.4"/><polygon class="cls-5" points="36.01 138.82 36.01 134.06 35.55 133.79 35.55 139.04 38.33 140.65 38.33 140.16 36.01 138.82"/><polygon class="cls-14" points="26.53 137.11 23.75 135.5 23.75 140.75 26.53 142.36 26.53 137.11"/><polygon class="cls-5" points="24.21 140.53 24.21 135.77 23.75 135.5 23.75 140.75 26.53 142.36 26.53 141.87 24.21 140.53"/><polygon class="cls-14" points="32.43 140.53 29.65 138.93 29.65 144.18 32.43 145.78 32.43 140.53"/><polygon class="cls-5" points="30.11 143.96 30.11 139.2 29.65 138.93 29.65 144.18 32.43 145.78 32.43 145.3 30.11 143.96"/><polygon class="cls-14" points="38.33 143.96 35.55 142.36 35.55 147.6 38.33 149.21 38.33 143.96"/><polygon class="cls-5" points="36.01 147.38 36.01 142.62 35.55 142.36 35.55 147.6 38.33 149.21 38.33 148.73 36.01 147.38"/><polygon class="cls-7" points="62.73 87.34 73.35 81.17 73.35 84.81 62.73 90.96 62.73 87.34"/><polygon class="cls-24" points="62.37 74.86 73.35 81.17 62.73 87.34 51.73 81.02 62.37 74.86"/><polygon class="cls-8" points="51.73 81.02 62.73 87.34 62.73 90.96 51.73 84.6 51.73 81.02"/><polygon class="cls-7" points="229.98 213.13 248.09 202.62 248.09 209.79 229.98 220.28 229.98 213.13"/><polygon class="cls-5" points="240.12 198.02 248.09 202.62 229.98 213.13 221.98 208.52 240.12 198.02"/><polygon class="cls-8" points="221.98 208.52 229.98 213.13 229.98 220.28 221.98 215.59 221.98 208.52"/><polygon class="cls-7" points="209.06 225.38 227.17 214.87 227.17 222.04 209.05 232.52 209.06 225.38"/><polygon class="cls-5" points="219.2 210.27 227.17 214.87 209.06 225.38 201.06 220.77 219.2 210.27"/><polygon class="cls-8" points="201.06 220.77 209.06 225.38 209.05 232.52 201.06 227.84 201.06 220.77"/><g class="cls-21"><path class="cls-5" d="M155.83,174.36c.13-.87,13.22-87.29,28.6-91.26,2-.52,3.95.5,5.94,3.1l1-.78c-2.31-3-4.76-4.21-7.28-3.56-16.19,4.18-29,88.72-29.54,92.32Z"/></g><g class="cls-21"><path class="cls-5" d="M150.81,176.18l1.19-.48a255.77,255.77,0,0,0-20-37.65C120.6,120.41,102.57,98.6,81.61,94.87c-14.32-2.55-28.29,3.51-41.51,18l.95.86C54,99.59,67.52,93.66,81.38,96.13,120.71,103.13,150.52,175.45,150.81,176.18Z"/></g></g></g></g></svg>