<svg xmlns="http://www.w3.org/2000/svg" xmlns:xlink="http://www.w3.org/1999/xlink" viewBox="0 0 165.06 291.99"><defs><style>.cls-1{fill:#fff;}.cls-2{fill:url(#linear-gradient);}.cls-3{fill:url(#linear-gradient-2);}.cls-4{fill:url(#linear-gradient-3);}.cls-5{fill:url(#linear-gradient-4);}.cls-6{fill:url(#linear-gradient-5);}.cls-7{fill:url(#linear-gradient-6);}.cls-8{fill:url(#linear-gradient-7);}.cls-9{fill:url(#linear-gradient-8);}.cls-10{fill:url(#linear-gradient-9);}</style><linearGradient id="linear-gradient" x1="24.17" y1="140.89" x2="140.89" y2="24.17" gradientUnits="userSpaceOnUse"><stop offset="0" stop-color="#272525"/><stop offset="1" stop-color="#042f3b"/></linearGradient><linearGradient id="linear-gradient-2" x1="50.38" y1="71.52" x2="114.68" y2="71.52" xlink:href="#linear-gradient"/><linearGradient id="linear-gradient-3" x1="42.38" y1="45.1" x2="122.68" y2="45.1" xlink:href="#linear-gradient"/><linearGradient id="linear-gradient-4" x1="70.78" y1="77.49" x2="94.28" y2="77.49" xlink:href="#linear-gradient"/><linearGradient id="linear-gradient-5" x1="73.9" y1="74" x2="91.16" y2="74" xlink:href="#linear-gradient"/><linearGradient id="linear-gradient-6" x1="81.52" y1="74" x2="83.54" y2="74" xlink:href="#linear-gradient"/><linearGradient id="linear-gradient-7" x1="78.68" y1="101.89" x2="86.39" y2="101.89" xlink:href="#linear-gradient"/><linearGradient id="linear-gradient-8" x1="61.33" y1="117.66" x2="103.73" y2="117.66" xlink:href="#linear-gradient"/><linearGradient id="linear-gradient-9" x1="69.98" y1="110.65" x2="95.08" y2="110.65" xlink:href="#linear-gradient"/></defs><title>opcion1</title><g id="Capa_2" data-name="Capa 2"><g id="Object"><path class="cls-1" d="M49.35,162.64h66.37l46.92-46.92V49.35L115.72,2.42H49.35L2.42,49.35v66.37Z"/><path class="cls-2" d="M116.72,165.06H48.35L0,116.72V48.35L48.35,0h68.37l48.34,48.35v68.37Zm-67.37-2.42h66.37l46.92-46.92V49.35L115.72,2.42H49.35L2.42,49.35v66.37Z"/><path class="cls-3" d="M69.16,90.79,68,90.18A32,32,0,0,1,50.38,61.51V52.26h64.3v9.25A32,32,0,0,1,97.09,90.18l-1.18.61V73.89a13.38,13.38,0,1,0-26.75,0ZM52,53.89v7.62A30.39,30.39,0,0,0,67.53,88.1V73.89a15,15,0,1,1,30,0V88.1a30.39,30.39,0,0,0,15.52-26.59V53.89Z"/><rect class="cls-4" x="42.38" y="42.63" width="80.29" height="4.95"/><path class="cls-5" d="M82.53,62.14A11.76,11.76,0,0,0,70.78,73.89V90.57a31.25,31.25,0,0,0,11.75,2.28h0a31.21,31.21,0,0,0,11.75-2.28V73.89A11.76,11.76,0,0,0,82.53,62.14Zm0,21.81a10,10,0,1,1,10-10A10,10,0,0,1,82.53,84Z"/><path class="cls-6" d="M82.53,65.37A8.63,8.63,0,1,0,91.16,74,8.63,8.63,0,0,0,82.53,65.37Zm0,12.66a4,4,0,1,1,4-4A4,4,0,0,1,82.53,78Z"/><path class="cls-7" d="M83.54,74a1,1,0,1,0-1,1A1,1,0,0,0,83.54,74Z"/><path class="cls-8" d="M82.53,105.74a3.86,3.86,0,1,0-3.85-3.85A3.86,3.86,0,0,0,82.53,105.74Z"/><path class="cls-9" d="M82.53,125.4a23.41,23.41,0,0,0,21-13,1.72,1.72,0,0,0-2.09-2.41,1.68,1.68,0,0,0-1,.86,20.06,20.06,0,0,1-35.87,0,1.74,1.74,0,0,0-2.32-.77,1.7,1.7,0,0,0-.86,1,1.73,1.73,0,0,0,.09,1.32h0A23.42,23.42,0,0,0,82.53,125.4Z"/><path class="cls-10" d="M82.53,112.27a10.33,10.33,0,0,1-9.28-5.73,1.73,1.73,0,0,0-3.09,1.55,13.84,13.84,0,0,0,24.74,0,1.74,1.74,0,0,0-1.54-2.51,1.71,1.71,0,0,0-1.54,1A10.36,10.36,0,0,1,82.53,112.27Z"/><path class="cls-1" d="M83,285.67H82v-5h1Zm0-10H82v-5h1Zm0-10H82v-5h1Zm0-10H82v-5h1Zm0-10H82v-5h1Zm0-10H82v-5h1Zm0-10H82v-5h1Zm0-10H82v-5h1Zm0-10H82v-5h1Zm0-10H82v-5h1Zm0-10H82v-5h1Zm0-10H82v-5h1Z"/><path class="cls-1" d="M87.59,244.47a5.06,5.06,0,1,0-5.06,5.05A5.06,5.06,0,0,0,87.59,244.47Z"/><polygon class="cls-1" points="78.44 287.9 82.53 291.99 86.62 287.9 78.44 287.9"/></g></g></svg>