<svg xmlns="http://www.w3.org/2000/svg" xmlns:xlink="http://www.w3.org/1999/xlink" viewBox="0 0 165.06 291.99"><defs><style>.cls-1{fill:#fff;}.cls-2{fill:url(#linear-gradient);}.cls-3{fill:url(#linear-gradient-2);}.cls-4{fill:url(#linear-gradient-3);}.cls-5{fill:url(#linear-gradient-4);}.cls-6{fill:url(#linear-gradient-5);}</style><linearGradient id="linear-gradient" x1="24.17" y1="140.89" x2="140.89" y2="24.17" gradientUnits="userSpaceOnUse"><stop offset="0" stop-color="#272525"/><stop offset="1" stop-color="#042f3b"/></linearGradient><linearGradient id="linear-gradient-2" x1="42.39" y1="83.95" x2="122.67" y2="83.95" xlink:href="#linear-gradient"/><linearGradient id="linear-gradient-3" x1="60.9" y1="83.79" x2="104.17" y2="83.79" xlink:href="#linear-gradient"/><linearGradient id="linear-gradient-4" x1="60.9" y1="73.61" x2="104.17" y2="73.61" xlink:href="#linear-gradient"/><linearGradient id="linear-gradient-5" x1="48.38" y1="83.95" x2="116.68" y2="83.95" xlink:href="#linear-gradient"/></defs><title>opcion3</title><g id="Capa_2" data-name="Capa 2"><g id="Object"><path class="cls-1" d="M49.35,162.64h66.37l46.92-46.92V49.35L115.72,2.42H49.35L2.42,49.35v66.37Z"/><path class="cls-2" d="M116.72,165.06H48.35L0,116.72V48.35L48.35,0h68.37l48.34,48.35v68.37Zm-67.37-2.42h66.37l46.92-46.92V49.35L115.72,2.42H49.35L2.42,49.35v66.37Z"/><path class="cls-3" d="M82.53,130.47h0a9,9,0,0,1-5.46-2.3L49.68,105.22a9.12,9.12,0,0,1-3-6.7L42.39,54.64v0a9.12,9.12,0,0,1,6.5-8.7h0l31.6-8.11a8.75,8.75,0,0,1,2-.35h.1a8.75,8.75,0,0,1,2,.35l31.63,8.12a9.12,9.12,0,0,1,6.49,8.7v.07l-4.27,43.85a9.08,9.08,0,0,1-3,6.7l0,0L88,128.17a9,9,0,0,1-5.46,2.3ZM50.7,104.08,78,127a7.5,7.5,0,0,0,4.5,1.92A7.5,7.5,0,0,0,87,127l0,0,27.32-22.92a7.57,7.57,0,0,0,2.49-5.6V98.4l4.28-43.84a7.6,7.6,0,0,0-5.39-7.19L84.13,39.25a7.9,7.9,0,0,0-1.6-.29,7.9,7.9,0,0,0-1.6.29h0L49.31,47.37a7.6,7.6,0,0,0-5.39,7.19l4.29,43.88v0A7.53,7.53,0,0,0,50.7,104.08Z"/><polygon class="cls-4" points="82.53 85.26 60.9 78.03 60.9 82.32 82.53 89.55 104.17 82.32 104.17 78.03 82.53 85.26"/><polygon class="cls-5" points="82.53 75.08 60.9 67.85 60.9 72.14 82.53 79.37 104.17 72.14 104.17 67.85 82.53 75.08"/><path class="cls-6" d="M114.47,51.64,82.86,43.53a.72.72,0,0,0-.66,0L50.59,51.64a3.1,3.1,0,0,0-2.21,3l4.28,43.88a3.08,3.08,0,0,0,1,2.29L81,123.71a3.14,3.14,0,0,0,1.52.74,3.14,3.14,0,0,0,1.52-.74l27.33-22.94a3.08,3.08,0,0,0,1-2.29l4.28-43.88A3.1,3.1,0,0,0,114.47,51.64Zm-2.82,46.84a2.36,2.36,0,0,1-.77,1.74L83.55,123.15a2.23,2.23,0,0,1-1,.53,2.23,2.23,0,0,1-1-.53L54.19,100.22a2.34,2.34,0,0,1-.78-1.74L49.13,54.6a2.35,2.35,0,0,1,1.67-2.24l31.61-8.12.12,0,.12,0,31.61,8.12a2.35,2.35,0,0,1,1.67,2.24Z"/><path class="cls-1" d="M83,285.67H82v-5h1Zm0-10H82v-5h1Zm0-10H82v-5h1Zm0-10H82v-5h1Zm0-10H82v-5h1Zm0-10H82v-5h1Zm0-10H82v-5h1Zm0-10H82v-5h1Zm0-10H82v-5h1Zm0-10H82v-5h1Zm0-10H82v-5h1Zm0-10H82v-5h1Z"/><path class="cls-1" d="M87.59,244.47a5.06,5.06,0,1,0-5.06,5.05A5.06,5.06,0,0,0,87.59,244.47Z"/><polygon class="cls-1" points="78.44 287.9 82.53 291.99 86.62 287.9 78.44 287.9"/></g></g></svg>