<svg xmlns="http://www.w3.org/2000/svg" xmlns:xlink="http://www.w3.org/1999/xlink" viewBox="0 0 165.06 291.99"><defs><style>.cls-1{fill:#fff;}.cls-2{fill:url(#linear-gradient);}.cls-3{fill:url(#linear-gradient-2);}.cls-4{fill:url(#linear-gradient-3);}.cls-5{fill:url(#linear-gradient-4);}.cls-6{fill:url(#linear-gradient-5);}.cls-7{fill:url(#linear-gradient-6);}</style><linearGradient id="linear-gradient" x1="24.17" y1="140.89" x2="140.89" y2="24.17" gradientUnits="userSpaceOnUse"><stop offset="0" stop-color="#272525"/><stop offset="1" stop-color="#042f3b"/></linearGradient><linearGradient id="linear-gradient-2" x1="78.68" y1="52.22" x2="86.39" y2="52.22" xlink:href="#linear-gradient"/><linearGradient id="linear-gradient-3" x1="61.33" y1="36.44" x2="103.73" y2="36.44" xlink:href="#linear-gradient"/><linearGradient id="linear-gradient-4" x1="69.98" y1="43.45" x2="95.08" y2="43.45" xlink:href="#linear-gradient"/><linearGradient id="linear-gradient-5" x1="64.45" y1="99.46" x2="100.62" y2="99.46" xlink:href="#linear-gradient"/><linearGradient id="linear-gradient-6" x1="71.91" y1="106.94" x2="93.15" y2="106.94" xlink:href="#linear-gradient"/></defs><title>opcion2</title><g id="Capa_2" data-name="Capa 2"><g id="Object"><path class="cls-1" d="M49.35,162.64h66.37l46.92-46.92V49.35L115.72,2.42H49.35L2.42,49.35v66.37Z"/><path class="cls-2" d="M116.72,165.06H48.35L0,116.72V48.35L48.35,0h68.37l48.34,48.35v68.37Zm-67.37-2.42h66.37l46.92-46.92V49.35L115.72,2.42H49.35L2.42,49.35v66.37Z"/><path class="cls-3" d="M82.53,48.36a3.86,3.86,0,1,0,3.86,3.86A3.86,3.86,0,0,0,82.53,48.36Z"/><path class="cls-4" d="M82.53,28.71a23.41,23.41,0,0,0-21,13,1.73,1.73,0,1,0,3.09,1.55,20.06,20.06,0,0,1,35.86,0,1.74,1.74,0,0,0,2.32.77,1.7,1.7,0,0,0,.86-1,1.68,1.68,0,0,0-.09-1.32h0A23.4,23.4,0,0,0,82.53,28.71Z"/><path class="cls-5" d="M82.53,41.83a10.33,10.33,0,0,1,9.28,5.74,1.77,1.77,0,0,0,1,.86,1.68,1.68,0,0,0,1.32-.1A1.71,1.71,0,0,0,94.9,46a13.83,13.83,0,0,0-24.74,0,1.72,1.72,0,0,0,.77,2.31,1.6,1.6,0,0,0,.77.19,1.74,1.74,0,0,0,1.55-1A10.33,10.33,0,0,1,82.53,41.83Z"/><path class="cls-6" d="M82.53,135.83a18.08,18.08,0,0,1-8.28-34.16V71.38a8.28,8.28,0,0,1,16.56,0v30.29a18.08,18.08,0,0,1-8.28,34.16Zm0-70.79a6.34,6.34,0,0,0-6.33,6.34v31.51l-.56.26a16.14,16.14,0,1,0,13.78,0l-.55-.26V71.38A6.35,6.35,0,0,0,82.53,65Z"/><path class="cls-7" d="M85.77,107.63V88.75a3.24,3.24,0,0,0-3.24-3.23h0a3.23,3.23,0,0,0-3.23,3.23v18.88a10.62,10.62,0,1,0,6.47,0Z"/><path class="cls-1" d="M83,285.67H82v-5h1Zm0-10H82v-5h1Zm0-10H82v-5h1Zm0-10H82v-5h1Zm0-10H82v-5h1Zm0-10H82v-5h1Zm0-10H82v-5h1Zm0-10H82v-5h1Zm0-10H82v-5h1Zm0-10H82v-5h1Zm0-10H82v-5h1Zm0-10H82v-5h1Z"/><path class="cls-1" d="M87.59,244.47a5.06,5.06,0,1,0-5.06,5.05A5.06,5.06,0,0,0,87.59,244.47Z"/><polygon class="cls-1" points="78.44 287.9 82.53 291.99 86.62 287.9 78.44 287.9"/></g></g></svg>