<svg xmlns="http://www.w3.org/2000/svg" xmlns:xlink="http://www.w3.org/1999/xlink" viewBox="0 0 1204.77 1200"><defs><style>.cls-1{isolation:isolate;}.cls-2{fill:url(#linear-gradient);}.cls-3{fill:url(#linear-gradient-2);}.cls-4{fill:url(#linear-gradient-3);}.cls-5{fill:#c2b1a3;}.cls-6{fill:url(#linear-gradient-4);}.cls-7{fill:#b08064;}.cls-8{fill:url(#linear-gradient-5);}.cls-9{fill:#a1755b;}.cls-10{fill:#a6785e;}.cls-11{fill:url(#linear-gradient-6);}.cls-12{fill:#1d1b1f;}.cls-13{fill:url(#linear-gradient-7);}.cls-14{fill:url(#linear-gradient-8);}.cls-15{fill:url(#linear-gradient-9);}.cls-16{fill:url(#linear-gradient-10);}.cls-17{fill:#bf8b6d;}.cls-18{fill:url(#linear-gradient-11);}.cls-19{fill:#4e5359;}.cls-20{fill:#9fb4bd;}.cls-21{fill:#3d5664;}.cls-22{fill:#818d96;}.cls-23{fill:#b58467;}.cls-24{fill:url(#linear-gradient-12);}.cls-25{fill:#808183;opacity:0.2;}.cls-25,.cls-39{mix-blend-mode:multiply;}.cls-26{fill:url(#linear-gradient-13);}.cls-27{fill:url(#linear-gradient-14);}.cls-28{fill:url(#linear-gradient-15);}.cls-29{fill:url(#linear-gradient-16);}.cls-30{fill:url(#linear-gradient-17);}.cls-31{fill:url(#linear-gradient-18);}.cls-32{fill:url(#linear-gradient-19);}.cls-33{fill:url(#linear-gradient-20);}.cls-34{fill:url(#linear-gradient-21);}.cls-35{fill:#424245;}.cls-36{fill:url(#linear-gradient-22);}.cls-37{fill:#fff;}.cls-38{fill:url(#linear-gradient-23);}.cls-39,.cls-41{fill:#f1f1f2;}.cls-40{fill:#d0d1d3;}.cls-42{fill:#d4d6d9;}.cls-43{fill:url(#linear-gradient-24);}.cls-44{fill:url(#linear-gradient-25);}.cls-45{fill:url(#linear-gradient-26);}.cls-46{fill:url(#linear-gradient-27);}.cls-47{fill:url(#linear-gradient-28);}.cls-48{fill:url(#linear-gradient-29);}</style><linearGradient id="linear-gradient" x1="-1114.13" y1="3081.29" x2="85.87" y2="3081.29" gradientTransform="translate(1114.13 -2481.29)" gradientUnits="userSpaceOnUse"><stop offset="0" stop-color="#fff"/><stop offset="0.42" stop-color="#fbfbfb"/><stop offset="0.82" stop-color="#f0f0f0"/><stop offset="1" stop-color="#e8e8e8"/></linearGradient><linearGradient id="linear-gradient-2" x1="-2432.67" y1="28.71" x2="-2549.08" y2="28.71" gradientTransform="translate(633.48 3028.9) rotate(90)" gradientUnits="userSpaceOnUse"><stop offset="0" stop-color="#f5f9fa"/><stop offset="0.23" stop-color="#f1f7f8"/><stop offset="0.45" stop-color="#e6f0f3"/><stop offset="0.67" stop-color="#d2e4e9"/><stop offset="0.88" stop-color="#b7d4dd"/><stop offset="1" stop-color="#a5c9d4"/></linearGradient><linearGradient id="linear-gradient-3" x1="801.33" y1="268.45" x2="948.93" y2="268.45" gradientUnits="userSpaceOnUse"><stop offset="0" stop-color="#f0dddb"/><stop offset="1" stop-color="#93b1d4"/></linearGradient><linearGradient id="linear-gradient-4" x1="624.64" y1="102.96" x2="835.5" y2="313.81" gradientUnits="userSpaceOnUse"><stop offset="0" stop-color="#707582"/><stop offset="0.83" stop-color="#4a4d57"/></linearGradient><linearGradient id="linear-gradient-5" x1="459.56" y1="62.29" x2="717.29" y2="320.02" gradientUnits="userSpaceOnUse"><stop offset="0" stop-color="#585d69"/><stop offset="0.83" stop-color="#33363e"/></linearGradient><linearGradient id="linear-gradient-6" x1="627.27" y1="220.1" x2="681" y2="220.1" gradientUnits="userSpaceOnUse"><stop offset="0" stop-color="#f2faff"/><stop offset="1" stop-color="#cbe6f7"/></linearGradient><linearGradient id="linear-gradient-7" x1="490.68" y1="97.77" x2="705.09" y2="97.77" xlink:href="#linear-gradient-6"/><linearGradient id="linear-gradient-8" x1="705.09" y1="236.51" x2="769.78" y2="236.51" xlink:href="#linear-gradient-6"/><linearGradient id="linear-gradient-9" x1="-4454.83" y1="6975.89" x2="-4314.69" y2="6975.89" gradientTransform="translate(5159.92 -6723.33)" xlink:href="#linear-gradient-5"/><linearGradient id="linear-gradient-10" x1="-4454.83" y1="6975.89" x2="-4314.69" y2="6975.89" gradientTransform="translate(5159.92 -6723.33)" gradientUnits="userSpaceOnUse"><stop offset="0" stop-color="#525761"/><stop offset="0.83" stop-color="#2d2f36"/></linearGradient><linearGradient id="linear-gradient-11" x1="368.85" y1="146.3" x2="581.37" y2="358.82" gradientUnits="userSpaceOnUse"><stop offset="0" stop-color="#626878"/><stop offset="0.83" stop-color="#3e424d"/></linearGradient><linearGradient id="linear-gradient-12" x1="407.01" y1="129.16" x2="407.01" y2="172.89" gradientUnits="userSpaceOnUse"><stop offset="0" stop-color="#f2f9fc"/><stop offset="1" stop-color="#d8e8f2"/></linearGradient><linearGradient id="linear-gradient-13" x1="359.45" y1="235.4" x2="590.67" y2="235.4" xlink:href="#linear-gradient-6"/><linearGradient id="linear-gradient-14" x1="303.9" y1="295.23" x2="516.42" y2="507.75" xlink:href="#linear-gradient-4"/><linearGradient id="linear-gradient-15" x1="524.08" y1="412.1" x2="666.8" y2="412.1" xlink:href="#linear-gradient-5"/><linearGradient id="linear-gradient-16" x1="515.38" y1="344.17" x2="666.8" y2="344.17" gradientUnits="userSpaceOnUse"><stop offset="0" stop-color="#676d7b"/><stop offset="0.83" stop-color="#424550"/></linearGradient><linearGradient id="linear-gradient-17" x1="521.07" y1="474.62" x2="666.8" y2="474.62" gradientUnits="userSpaceOnUse"><stop offset="0" stop-color="#d8dbe3"/><stop offset="0.83" stop-color="#adafb8"/></linearGradient><linearGradient id="linear-gradient-18" x1="514.53" y1="487.7" x2="666.8" y2="487.7" gradientUnits="userSpaceOnUse"><stop offset="0" stop-color="#d3d6de"/><stop offset="0.83" stop-color="#a8aab3"/></linearGradient><linearGradient id="linear-gradient-19" x1="515.38" y1="344.17" x2="666.8" y2="344.17" gradientUnits="userSpaceOnUse"><stop offset="0" stop-color="#616773"/><stop offset="0.83" stop-color="#3c3e48"/></linearGradient><linearGradient id="linear-gradient-20" x1="595.44" y1="416.37" x2="645.58" y2="416.37" xlink:href="#linear-gradient-6"/><linearGradient id="linear-gradient-21" x1="545.3" y1="416.37" x2="595.44" y2="416.37" xlink:href="#linear-gradient-6"/><linearGradient id="linear-gradient-22" x1="277.3" y1="410.43" x2="465.08" y2="410.43" xlink:href="#linear-gradient-6"/><linearGradient id="linear-gradient-23" x1="597.58" y1="407.9" x2="601.7" y2="407.9" xlink:href="#linear-gradient-6"/><linearGradient id="linear-gradient-24" x1="193.4" y1="327.17" x2="314.41" y2="327.17" xlink:href="#linear-gradient-3"/><linearGradient id="linear-gradient-25" x1="166.12" y1="388.46" x2="243.51" y2="388.46" xlink:href="#linear-gradient-3"/><linearGradient id="linear-gradient-26" x1="215.21" y1="475.47" x2="342.25" y2="475.47" xlink:href="#linear-gradient-3"/><linearGradient id="linear-gradient-27" x1="981.66" y1="471.91" x2="1092" y2="471.91" xlink:href="#linear-gradient-3"/><linearGradient id="linear-gradient-28" x1="902.42" y1="320.53" x2="1023.43" y2="320.53" xlink:href="#linear-gradient-3"/><linearGradient id="linear-gradient-29" x1="913.78" y1="475.47" x2="1040.82" y2="475.47" xlink:href="#linear-gradient-3"/></defs><title>Recurso 7</title><g class="cls-1"><g id="Capa_2" data-name="Capa 2"><g id="BG"><rect class="cls-2" width="1200" height="1200" transform="translate(0 1200) rotate(-90)"/></g><g id="Object"><rect class="cls-3" x="4.77" y="479.83" width="1200" height="116.41"/><path class="cls-4" d="M851.44,370c-7.81-1.73-16.83-3.55-20.91-12.72-5.47-12.32,1.58-30.65-5.32-41.57-6.08-9.63-19.88-7.58-23.27-19.38-2.56-8.92,3.3-18,9-23.62s12.56-11.92,12.87-21.48c.35-10.65-7.81-18.7-8.73-29.29-.75-8.51,3.5-16.6,8.79-21.33s11.56-6.92,17.52-9.86,12-7,15.47-14.18,4-16.2,7.29-23.41c5.37-11.68,17.72-15.44,27-9.77s15.18,19.1,16.11,32.79c.84,12.3-1.69,25.77,3,36.38,4,9,11.85,12.93,19.08,16.57s15,8.4,18.2,17.93c3.07,9.26.64,20.33-3.62,28.69s-10.15,14.91-15,22.64-8.84,17.45-8,27.53c.77,9.15,5.42,17.92,3.71,26.83-1.18,6.09-5,10.43-8.71,14.33l-16.52,17.6a62.33,62.33,0,0,1-8.34,7.89c-3.6,2.63-7.78,4.26-11.8,3.19-6.44-1.72-7.76-9.59-11.44-15.52C863.85,373.84,857.33,371.32,851.44,370Z"/><polygon class="cls-5" points="922.32 259.57 919.81 257.05 882.32 293.01 881.71 237.53 874.19 237.53 874.04 250.94 837.32 215.72 834.81 218.24 873.96 259.05 873.31 318.22 837.32 283.7 834.81 286.22 873.22 326.26 871.58 475.82 884.33 475.82 882.41 301.17 922.32 259.57"/><rect class="cls-6" x="643.05" y="84.55" width="174.04" height="247.68"/><polygon class="cls-7" points="643.05 84.55 643.05 118.9 790.04 118.9 790.04 240.86 824.39 240.86 824.39 118.9 824.39 84.55 643.05 84.55"/><rect class="cls-8" x="471.76" y="50.09" width="233.33" height="282.13"/><rect class="cls-9" x="783.98" y="95.64" width="19.95" height="5.89" rx="2.21"/><rect class="cls-9" x="739.8" y="109.09" width="14.57" height="5.89" rx="2.21"/><rect class="cls-10" x="791.82" y="132.88" width="14.57" height="5.89" rx="2.21"/><rect class="cls-9" x="708.29" y="88.59" width="19.95" height="5.89" rx="2.21"/><rect class="cls-10" x="713.49" y="95.64" width="19.95" height="5.89" rx="2.21"/><rect class="cls-9" x="792.86" y="225.23" width="14.57" height="5.89" rx="2.21"/><rect class="cls-11" x="627.27" y="168.38" width="53.73" height="103.43"/><rect class="cls-12" x="627.27" y="168.38" width="3" height="103.43"/><rect class="cls-12" x="678" y="168.38" width="3" height="103.43"/><rect class="cls-12" x="652.63" y="168.38" width="3" height="103.43"/><rect class="cls-12" x="652.63" y="143.02" width="3" height="53.73" transform="translate(824.01 -484.25) rotate(90)"/><rect class="cls-12" x="652.63" y="168.13" width="3" height="53.73" transform="translate(849.12 -459.14) rotate(90)"/><rect class="cls-12" x="652.63" y="193.24" width="3" height="53.73" transform="translate(874.23 -434.03) rotate(90)"/><rect class="cls-12" x="652.63" y="218.34" width="3" height="53.73" transform="translate(899.34 -408.92) rotate(90)"/><rect class="cls-12" x="652.63" y="243.45" width="3" height="53.73" transform="translate(924.45 -383.81) rotate(90)"/><rect class="cls-13" x="490.68" y="66.38" width="214.41" height="62.78"/><rect class="cls-14" x="705.09" y="140.8" width="64.69" height="191.42"/><rect class="cls-15" x="705.09" y="240.61" width="140.15" height="23.89" transform="translate(1550.33 505.12) rotate(180)"/><rect class="cls-16" x="705.09" y="250.22" width="140.15" height="4.68" transform="translate(1550.33 505.12) rotate(180)"/><rect class="cls-17" x="292.79" y="193.99" width="133.34" height="158.32"/><rect class="cls-7" x="292.79" y="193.99" width="133.34" height="3.47"/><rect class="cls-7" x="292.79" y="200.03" width="133.34" height="3.47"/><rect class="cls-7" x="292.79" y="206.07" width="133.34" height="3.47"/><rect class="cls-7" x="292.79" y="212.11" width="133.34" height="3.47"/><rect class="cls-7" x="292.79" y="218.15" width="133.34" height="3.47"/><rect class="cls-7" x="292.79" y="224.19" width="133.34" height="3.47"/><rect class="cls-7" x="292.79" y="230.23" width="133.34" height="3.47"/><rect class="cls-7" x="292.79" y="236.27" width="133.34" height="3.47"/><rect class="cls-7" x="292.79" y="242.31" width="133.34" height="3.47"/><rect class="cls-7" x="292.79" y="248.36" width="133.34" height="3.47"/><rect class="cls-7" x="292.79" y="254.4" width="133.34" height="3.47"/><rect class="cls-7" x="292.79" y="260.44" width="133.34" height="3.47"/><rect class="cls-7" x="292.79" y="266.48" width="133.34" height="3.47"/><rect class="cls-7" x="292.79" y="272.52" width="133.34" height="3.47"/><rect class="cls-7" x="292.79" y="278.56" width="133.34" height="3.47"/><rect class="cls-7" x="292.79" y="284.6" width="133.34" height="3.47"/><rect class="cls-7" x="292.79" y="290.64" width="133.34" height="3.47"/><rect class="cls-7" x="292.79" y="296.68" width="133.34" height="3.47"/><rect class="cls-7" x="292.79" y="302.72" width="133.34" height="3.47"/><rect class="cls-7" x="292.79" y="308.76" width="133.34" height="3.47"/><rect class="cls-7" x="292.79" y="314.8" width="133.34" height="3.47"/><rect class="cls-7" x="292.79" y="320.84" width="133.34" height="3.47"/><rect class="cls-7" x="292.79" y="326.88" width="133.34" height="3.47"/><rect class="cls-7" x="292.79" y="332.92" width="133.34" height="3.47"/><rect class="cls-18" x="342.25" y="172.89" width="265.71" height="159.33"/><rect class="cls-19" x="339.37" y="172.89" width="271.48" height="3.53"/><rect class="cls-17" x="666.8" y="332.22" width="266.67" height="158.32"/><rect class="cls-7" x="666.8" y="332.22" width="266.67" height="3.47"/><rect class="cls-7" x="666.8" y="338.26" width="266.67" height="3.47"/><rect class="cls-7" x="666.8" y="344.3" width="266.67" height="3.47"/><rect class="cls-7" x="666.8" y="350.34" width="266.67" height="3.47"/><rect class="cls-7" x="666.8" y="356.39" width="266.67" height="3.47"/><rect class="cls-7" x="666.8" y="362.43" width="266.67" height="3.47"/><rect class="cls-7" x="666.8" y="368.47" width="266.67" height="3.47"/><rect class="cls-7" x="666.8" y="374.51" width="266.67" height="3.47"/><rect class="cls-7" x="666.8" y="380.55" width="266.67" height="3.47"/><rect class="cls-7" x="666.8" y="386.59" width="266.67" height="3.47"/><rect class="cls-7" x="666.8" y="392.63" width="266.67" height="3.47"/><rect class="cls-7" x="666.8" y="398.67" width="266.67" height="3.47"/><rect class="cls-7" x="666.8" y="404.71" width="266.67" height="3.47"/><rect class="cls-7" x="666.8" y="410.75" width="266.67" height="3.47"/><rect class="cls-7" x="666.8" y="416.79" width="266.67" height="3.47"/><rect class="cls-7" x="666.8" y="422.83" width="266.67" height="3.47"/><rect class="cls-7" x="666.8" y="428.87" width="266.67" height="3.47"/><rect class="cls-7" x="666.8" y="434.91" width="266.67" height="3.47"/><rect class="cls-7" x="666.8" y="440.95" width="266.67" height="3.47"/><rect class="cls-7" x="666.8" y="446.99" width="266.67" height="3.47"/><rect class="cls-7" x="666.8" y="453.03" width="266.67" height="3.47"/><rect class="cls-7" x="666.8" y="459.07" width="266.67" height="3.47"/><rect class="cls-7" x="666.8" y="465.11" width="266.67" height="3.47"/><rect class="cls-7" x="666.8" y="471.15" width="266.67" height="3.47"/><path class="cls-20" d="M892,401.53H705.09v89h190.1v-89Z"/><path class="cls-21" d="M892,401.53H705.09v89h190.1v-89Zm-46.71,4.13v17.09H801.76V405.66ZM751.81,444H708.33V426.88h43.48ZM755,426.88h43.48V444H755Zm-3.23,21.22v17.09H708.33V448.1Zm3.23,0h43.48v17.09H755Zm46.72,0h43.48v17.09H801.76Zm0-4.13V426.88h43.48V444Zm-3.24-38.31v17.09H755V405.66Zm-46.71,0v17.09H708.33V405.66Zm-43.48,80.75V469.32h43.48v17.09Zm46.71,0V469.32h43.48v17.09Zm46.72,0V469.32h43.48v17.09Zm90.19,0H848.47V469.32H892Zm0-21.22H848.47V448.1H892ZM892,444H848.47V426.88H892Zm0-21.22H848.47V405.66H892Z"/><rect class="cls-22" x="666.8" y="480.88" width="35.27" height="9.66"/><polygon class="cls-23" points="702.49 477.86 702.08 477.86 665.36 477.86 665.36 480.88 702.08 480.88 702.08 490.54 705.09 490.54 705.09 477.86 702.49 477.86"/><rect class="cls-22" x="898.2" y="480.88" width="35.27" height="9.66" transform="translate(1831.68 971.42) rotate(180)"/><polygon class="cls-23" points="897.78 477.86 898.2 477.86 934.92 477.86 934.92 480.88 898.2 480.88 898.2 490.54 895.19 490.54 895.19 477.86 897.78 477.86"/><rect class="cls-24" x="342.25" y="129.16" width="129.51" height="43.74"/><rect class="cls-10" x="800.02" y="88.59" width="19.95" height="5.89" rx="2.21"/><rect class="cls-9" x="797.13" y="139.77" width="19.95" height="5.89" rx="2.21"/><rect class="cls-10" x="802.47" y="179.05" width="19.95" height="5.89" rx="2.21"/><rect class="cls-9" x="808.22" y="165.44" width="11.82" height="5.89" rx="2.21"/><rect class="cls-9" x="808.22" y="172.25" width="14.57" height="5.89" rx="2.21"/><polygon class="cls-25" points="342.25 332.22 607.96 332.22 607.96 172.89 342.25 332.22"/><rect class="cls-26" x="359.45" y="197.38" width="231.21" height="76.04"/><rect class="cls-12" x="416.59" y="140.24" width="2.53" height="116.8" transform="translate(616.5 -219.21) rotate(90)"/><rect class="cls-12" x="416.59" y="213.76" width="2.53" height="116.8" transform="translate(690.01 -145.7) rotate(90)"/><rect class="cls-12" x="359.45" y="197.38" width="7.2" height="76.04"/><rect class="cls-12" x="415.73" y="154.16" width="4.25" height="116.8" transform="translate(630.41 -205.3) rotate(90)"/><rect class="cls-12" x="476.32" y="197.38" width="2.06" height="76.04"/><rect class="cls-12" x="483.49" y="197.38" width="2.06" height="76.04"/><rect class="cls-12" x="490.66" y="197.38" width="2.06" height="76.04"/><rect class="cls-12" x="497.82" y="197.38" width="2.06" height="76.04"/><rect class="cls-12" x="504.99" y="197.38" width="2.06" height="76.04"/><rect class="cls-12" x="512.16" y="197.38" width="2.06" height="76.04"/><rect class="cls-12" x="519.33" y="197.38" width="2.06" height="76.04"/><rect class="cls-12" x="526.5" y="197.38" width="2.06" height="76.04"/><rect class="cls-12" x="533.66" y="197.38" width="2.06" height="76.04"/><rect class="cls-12" x="540.83" y="197.38" width="2.06" height="76.04"/><rect class="cls-12" x="548" y="197.38" width="2.06" height="76.04"/><rect class="cls-12" x="555.17" y="197.38" width="2.06" height="76.04"/><rect class="cls-12" x="562.34" y="197.38" width="2.06" height="76.04"/><rect class="cls-12" x="569.5" y="197.38" width="2.06" height="76.04"/><rect class="cls-12" x="576.67" y="197.38" width="2.06" height="76.04"/><rect class="cls-12" x="531" y="140.24" width="2.53" height="116.8" transform="translate(730.91 -333.62) rotate(90)"/><rect class="cls-12" x="531" y="213.76" width="2.53" height="116.8" transform="translate(804.42 -260.11) rotate(90)"/><rect class="cls-12" x="583.47" y="197.38" width="7.2" height="76.04" transform="translate(1174.13 470.8) rotate(180)"/><rect class="cls-27" x="277.3" y="321.82" width="265.71" height="159.33"/><rect class="cls-19" x="274.42" y="321.82" width="271.48" height="3.53"/><rect class="cls-22" x="280.93" y="481.15" width="258.46" height="9.66"/><polygon class="cls-25" points="277.31 481.15 543.01 481.15 543.01 321.82 277.31 481.15"/><rect class="cls-28" x="524.08" y="356.12" width="142.72" height="111.96"/><polygon class="cls-25" points="524.08 468.08 666.8 468.08 666.8 356.12 524.08 468.08"/><rect class="cls-29" x="515.38" y="332.22" width="151.43" height="23.89"/><rect class="cls-30" x="521.07" y="468.08" width="145.74" height="13.09"/><rect class="cls-31" x="514.53" y="481.16" width="152.27" height="13.09"/><rect class="cls-32" x="515.38" y="341.83" width="151.43" height="4.68"/><rect class="cls-33" x="595.44" y="364.66" width="50.14" height="103.42"/><rect class="cls-34" x="545.3" y="364.66" width="50.14" height="103.42"/><polygon class="cls-35" points="593.93 364.66 593.93 468.08 603.72 468.08 603.72 368.47 641.25 368.47 641.25 468.08 645.59 468.08 645.59 364.66 593.93 364.66"/><rect class="cls-35" x="545.3" y="364.66" width="50.33" height="1.11"/><rect class="cls-35" x="545.3" y="466.97" width="50.33" height="1.11"/><rect class="cls-35" x="494.15" y="415.81" width="103.42" height="1.11" transform="translate(962.22 -129.49) rotate(90)"/><rect class="cls-36" x="277.3" y="368.78" width="187.78" height="83.3"/><rect class="cls-12" x="459.54" y="368.78" width="5.54" height="83.3"/><rect class="cls-12" x="369.81" y="276.27" width="2.77" height="187.78" transform="translate(741.36 -1.03) rotate(90)"/><rect class="cls-12" x="369.81" y="356.8" width="2.77" height="187.78" transform="translate(821.89 79.5) rotate(90)"/><rect class="cls-12" x="368.87" y="291.52" width="4.66" height="187.78" transform="translate(756.6 14.21) rotate(90)"/><rect class="cls-12" x="277.3" y="368.78" width="13.49" height="83.3"/><rect class="cls-12" x="400.19" y="368.78" width="8.62" height="83.3"/><rect class="cls-37" x="597.23" y="405.49" width="4.85" height="13.9" rx="1.82"/><rect class="cls-38" x="597.58" y="406.64" width="4.12" height="2.52"/><polygon class="cls-39" points="597.58 409.16 601.7 409.16 601.7 406.64 597.58 409.16"/><rect class="cls-40" x="598" y="410.44" width="0.84" height="0.84" rx="0.11"/><rect class="cls-40" x="599.25" y="410.44" width="0.84" height="0.84" rx="0.11"/><rect class="cls-40" x="600.5" y="410.44" width="0.84" height="0.84" rx="0.11"/><rect class="cls-40" x="598.01" y="411.57" width="0.84" height="0.84" rx="0.11"/><rect class="cls-40" x="599.26" y="411.57" width="0.84" height="0.84" rx="0.11"/><rect class="cls-40" x="600.51" y="411.57" width="0.84" height="0.84" rx="0.11"/><rect class="cls-40" x="598.02" y="412.7" width="0.84" height="0.84" rx="0.11"/><rect class="cls-40" x="599.27" y="412.7" width="0.84" height="0.84" rx="0.11"/><rect class="cls-40" x="600.52" y="412.7" width="0.84" height="0.84" rx="0.11"/><rect class="cls-40" x="598.03" y="413.83" width="0.84" height="0.84" rx="0.11"/><rect class="cls-40" x="599.28" y="413.83" width="0.84" height="0.84" rx="0.11"/><rect class="cls-40" x="600.53" y="413.83" width="0.84" height="0.84" rx="0.11"/><rect class="cls-41" x="598.2" y="415.43" width="2.97" height="3.28"/><polygon class="cls-42" points="600.51 416.37 598.86 416.37 598.33 418.47 601.04 418.47 600.51 416.37"/><path class="cls-43" d="M273.32,410.44c6.4-1.42,13.8-2.92,17.15-10.43,4.48-10.1-1.3-25.13,4.36-34.09,5-7.89,16.29-6.21,19.07-15.89,2.1-7.3-2.7-14.76-7.39-19.36s-10.3-9.77-10.55-17.61c-.29-8.73,6.4-15.33,7.16-24,.61-7-2.88-13.61-7.21-17.49s-9.48-5.67-14.36-8.08-9.82-5.76-12.69-11.63-3.25-13.28-6-19.19c-4.41-9.58-14.53-12.66-22.13-8s-12.44,15.65-13.21,26.88c-.69,10.09,1.39,21.13-2.46,29.83-3.24,7.34-9.71,10.6-15.64,13.58s-12.34,6.89-14.93,14.7c-2.51,7.59-.51,16.67,3,23.52s8.32,12.23,12.31,18.56,7.25,14.31,6.56,22.57c-.63,7.5-4.45,14.69-3,22,1,5,4.14,8.55,7.14,11.75L234,422.47a51.85,51.85,0,0,0,6.84,6.47c2.95,2.16,6.38,3.49,9.67,2.61,5.29-1.41,6.37-7.86,9.38-12.72C263.15,413.57,268.5,411.51,273.32,410.44Z"/><polygon class="cls-5" points="284.62 327.91 282.55 325.85 259.8 347.31 259.3 301.82 253.14 301.82 253.01 312.82 233.35 294.11 231.28 296.17 252.94 319.46 252.41 367.98 222.91 339.68 220.85 341.74 252.34 374.57 250.99 497.19 261.45 497.19 259.87 354 284.62 327.91"/><path class="cls-44" d="M192.39,441.71c-4.09-.91-8.82-1.86-11-6.67-2.87-6.46.83-16.07-2.79-21.8-3.19-5-10.42-4-12.2-10.16-1.34-4.67,1.73-9.44,4.73-12.38s6.58-6.25,6.75-11.26c.18-5.59-4.1-9.8-4.58-15.36A13.93,13.93,0,0,1,178,352.9c2.77-2.48,6.06-3.63,9.18-5.17s6.28-3.68,8.12-7.43,2.08-8.5,3.82-12.28c2.81-6.12,9.29-8.09,14.15-5.12s7.95,10,8.44,17.19c.44,6.45-.88,13.51,1.57,19.07,2.08,4.7,6.22,6.78,10,8.69s7.89,4.41,9.54,9.4.34,10.66-1.9,15-5.32,7.82-7.87,11.87-4.63,9.15-4.19,14.44c.4,4.79,2.84,9.39,1.94,14.06-.61,3.2-2.64,5.47-4.56,7.52q-4.33,4.6-8.66,9.23a33.14,33.14,0,0,1-4.37,4.13c-1.89,1.38-4.09,2.23-6.19,1.67-3.38-.9-4.07-5-6-8.13C198.9,443.72,195.48,442.39,192.39,441.71Z"/><polygon class="cls-5" points="229.56 383.81 228.24 382.49 208.58 401.34 208.26 372.25 204.32 372.25 204.24 379.28 184.99 360.81 183.67 362.13 204.2 383.53 203.86 414.56 184.99 396.46 183.67 397.78 203.81 418.77 202.95 497.19 209.64 497.19 208.63 405.62 229.56 383.81"/><path class="cls-45" d="M342.13,494.94c.77-2.77-2.34-5.18-5.2-5.51s-5.82.47-8.6-.28c-4.41-1.18-6.9-5.75-8.71-9.94s-3.78-8.86-7.93-10.78c-3.42-1.58-7.4-.85-11.13-.29s-7.91.78-10.88-1.55c-3.25-2.56-3.92-7.34-6.91-10.2s-7.45-3.15-11.33-2.1-7.3,3.3-10.81,5.27-7.32,3.71-11.34,3.61c-3.53-.09-6.86-1.61-10.34-2.22a20.29,20.29,0,0,0-22.2,27.88,21.94,21.94,0,0,0,6.47,8.36H340.29A3.8,3.8,0,0,0,342.13,494.94Z"/><path class="cls-46" d="M1091.5,494.37c-.89-1.72-2.75-2.7-4-4.17-2.82-3.31-2.15-8.3-.86-12.45s3-8.53,1.85-12.71c-1.67-5.9-8.65-8.79-14.77-8.4s-11.8,3.13-17.7,4.79-12.79,2.07-17.63-1.69c-3-2.28-4.71-5.79-7.45-8.32-5-4.6-12.62-5.26-19.21-3.62a34.11,34.11,0,0,0-21.28,17c-2.22,4.13-2.63,8.47-4.22,12.75-1.42,3.81-5.3,6.64-4.43,11.09.74,3.76,4,6.33,7.46,8.2H1092A4.71,4.71,0,0,0,1091.5,494.37Z"/><path class="cls-47" d="M982.34,403.79c6.4-1.42,13.81-2.91,17.15-10.43,4.48-10.1-1.3-25.12,4.36-34.08,5-7.9,16.29-6.21,19.07-15.89,2.1-7.31-2.7-14.76-7.39-19.37s-10.3-9.77-10.55-17.6c-.29-8.74,6.4-15.33,7.16-24,.61-7-2.88-13.61-7.21-17.49s-9.48-5.67-14.36-8.08-9.82-5.76-12.69-11.62-3.25-13.29-6-19.2c-4.41-9.57-14.53-12.65-22.13-8s-12.44,15.66-13.21,26.89C935.89,255,938,266,934.12,274.71c-3.25,7.35-9.72,10.6-15.65,13.59s-12.34,6.89-14.92,14.7c-2.52,7.59-.52,16.67,3,23.52s8.32,12.23,12.3,18.56,7.25,14.3,6.56,22.57c-.63,7.5-4.45,14.69-3,22,1,5,4.14,8.56,7.14,11.76L943,415.83a51.76,51.76,0,0,0,6.84,6.46c2.95,2.16,6.38,3.5,9.68,2.62,5.28-1.42,6.36-7.86,9.37-12.72C972.17,406.93,977.52,404.86,982.34,403.79Z"/><polygon class="cls-5" points="993.64 321.27 991.57 319.2 968.82 340.66 968.32 295.18 962.16 295.18 962.04 306.17 942.37 287.46 940.31 289.52 961.96 312.82 961.43 361.33 931.93 333.03 929.87 335.1 961.36 367.92 960.01 490.54 970.47 490.54 968.89 347.35 993.64 321.27"/><path class="cls-48" d="M1040.7,494.94c.77-2.77-2.35-5.18-5.2-5.51s-5.82.47-8.6-.28c-4.41-1.18-6.91-5.75-8.71-9.94s-3.78-8.86-7.93-10.78c-3.42-1.58-7.4-.85-11.13-.29s-7.92.78-10.88-1.55c-3.25-2.56-3.92-7.34-6.91-10.2s-7.46-3.15-11.33-2.1-7.3,3.3-10.81,5.27-7.33,3.71-11.34,3.61c-3.53-.09-6.86-1.61-10.34-2.22a20.3,20.3,0,0,0-22.21,27.88,22.14,22.14,0,0,0,6.47,8.36h117.07A3.82,3.82,0,0,0,1040.7,494.94Z"/></g></g></g></svg>