<svg xmlns="http://www.w3.org/2000/svg" xmlns:xlink="http://www.w3.org/1999/xlink" viewBox="0 0 1203.12 1236.97"><defs><style>.cls-1{mask:url(#mask);filter:url(#luminosity-noclip-3);}.cls-2,.cls-4{mix-blend-mode:multiply;}.cls-2{fill:url(#linear-gradient);}.cls-3{mask:url(#mask-2);filter:url(#luminosity-noclip-4);}.cls-4{fill:url(#linear-gradient-2);}.cls-5{fill:#f7e8c0;}.cls-6{mask:url(#mask-3);}.cls-7{fill:url(#linear-gradient-3);}.cls-8{mask:url(#mask-4);}.cls-9{fill:url(#linear-gradient-4);}.cls-10{fill:#d0d1d3;}.cls-11{fill:#2d3c45;}.cls-12{fill:#a59180;}.cls-13{fill:#c06b53;}.cls-14{fill:#272525;}.cls-15{fill:#b0624c;}.cls-16{fill:#434244;}.cls-17{fill:#383838;}.cls-18{fill:#a15a45;}.cls-19{fill:url(#linear-gradient-5);}.cls-20{fill:#d09872;}.cls-21{fill:url(#linear-gradient-6);}.cls-22{fill:#414141;}.cls-23{fill:#62605f;}.cls-24{fill:url(#linear-gradient-7);}.cls-25{fill:url(#linear-gradient-8);}.cls-26{fill:url(#linear-gradient-9);}.cls-27{fill:#547080;}.cls-28{fill:#415763;}.cls-29{filter:url(#luminosity-noclip-2);}.cls-30{filter:url(#luminosity-noclip);}</style><filter id="luminosity-noclip" x="176.36" y="-8792" width="847.29" height="32766" filterUnits="userSpaceOnUse" color-interpolation-filters="sRGB"><feFlood flood-color="#fff" result="bg"/><feBlend in="SourceGraphic" in2="bg"/></filter><mask id="mask" x="176.36" y="-8792" width="847.29" height="32766" maskUnits="userSpaceOnUse"><g class="cls-30"/></mask><linearGradient id="linear-gradient" x1="-2044.83" y1="-915.55" x2="-1445.77" y2="-316.49" gradientTransform="matrix(0.14, 0.99, -0.99, 0.14, 241.19, 2289.42)" gradientUnits="userSpaceOnUse"><stop offset="0"/><stop offset="1" stop-color="#fff"/></linearGradient><filter id="luminosity-noclip-2" x="337.77" y="-8792" width="524.47" height="32766" filterUnits="userSpaceOnUse" color-interpolation-filters="sRGB"><feFlood flood-color="#fff" result="bg"/><feBlend in="SourceGraphic" in2="bg"/></filter><mask id="mask-2" x="337.77" y="-8792" width="524.47" height="32766" maskUnits="userSpaceOnUse"><g class="cls-29"/></mask><linearGradient id="linear-gradient-2" x1="578.15" y1="1298.4" x2="948.95" y2="1669.21" gradientTransform="translate(246.49 -1157.08) rotate(15)" xlink:href="#linear-gradient"/><filter id="luminosity-noclip-3" x="176.36" y="50.1" width="847.29" height="847.29" filterUnits="userSpaceOnUse" color-interpolation-filters="sRGB"><feFlood flood-color="#fff" result="bg"/><feBlend in="SourceGraphic" in2="bg"/></filter><mask id="mask-3" x="176.36" y="50.1" width="847.29" height="847.29" maskUnits="userSpaceOnUse"><g class="cls-1"><circle class="cls-2" cx="600" cy="473.75" r="423.59"/></g></mask><linearGradient id="linear-gradient-3" x1="-2044.83" y1="-915.55" x2="-1445.77" y2="-316.49" gradientTransform="matrix(0.14, 0.99, -0.99, 0.14, 241.19, 2289.42)" gradientUnits="userSpaceOnUse"><stop offset="0" stop-color="#fff"/><stop offset="1" stop-color="#fff"/></linearGradient><filter id="luminosity-noclip-4" x="337.77" y="211.51" width="524.47" height="524.47" filterUnits="userSpaceOnUse" color-interpolation-filters="sRGB"><feFlood flood-color="#fff" result="bg"/><feBlend in="SourceGraphic" in2="bg"/></filter><mask id="mask-4" x="337.77" y="211.51" width="524.47" height="524.47" maskUnits="userSpaceOnUse"><g class="cls-3"><circle class="cls-4" cx="600" cy="473.75" r="262.19" transform="translate(-159.25 563.02) rotate(-45)"/></g></mask><linearGradient id="linear-gradient-4" x1="578.15" y1="1298.4" x2="948.95" y2="1669.21" gradientTransform="translate(246.49 -1157.08) rotate(15)" xlink:href="#linear-gradient-3"/><linearGradient id="linear-gradient-5" x1="519.84" y1="434.5" x2="629.14" y2="434.5" gradientUnits="userSpaceOnUse"><stop offset="0" stop-color="#eee0ce"/><stop offset="1" stop-color="#d3b99a"/></linearGradient><linearGradient id="linear-gradient-6" x1="574.89" y1="285.76" x2="574.89" y2="345.43" xlink:href="#linear-gradient-5"/><linearGradient id="linear-gradient-7" x1="712.42" y1="432.26" x2="738.42" y2="432.26" xlink:href="#linear-gradient-5"/><linearGradient id="linear-gradient-8" x1="684.29" y1="432.26" x2="710.28" y2="432.26" xlink:href="#linear-gradient-5"/><linearGradient id="linear-gradient-9" x1="706.88" y1="309.95" x2="813.74" y2="309.95" xlink:href="#linear-gradient-5"/></defs><title>planes</title><g id="Capa_2" data-name="Capa 2"><g id="BG"><rect class="cls-5" width="1200" height="1200" transform="translate(0 1200) rotate(-90)"/></g><g id="Object"><g class="cls-6"><circle class="cls-7" cx="600" cy="473.75" r="423.59"/></g><g class="cls-8"><circle class="cls-9" cx="600" cy="473.75" r="262.19" transform="translate(-159.25 563.02) rotate(-45)"/></g><path class="cls-10" d="M942.75,600l-.76-.25c.85-2.53,1.69-5.1,2.48-7.63l.77.24C944.44,594.93,943.61,597.5,942.75,600Zm-687.93-7.45c-.8-2.55-1.58-5.14-2.32-7.7l.77-.23c.74,2.56,1.52,5.15,2.32,7.69Zm692.73-7.89-.77-.23c.74-2.55,1.46-5.15,2.14-7.73l.77.21C949,579.52,948.29,582.12,947.55,584.69Zm-697.19-7.56c-.69-2.58-1.35-5.21-2-7.8l.78-.18c.62,2.58,1.28,5.2,2,7.77Zm701.3-8-.78-.19c.62-2.58,1.22-5.21,1.79-7.82l.78.17C952.89,563.92,952.28,566.55,951.66,569.14ZM246.59,561.5c-.57-2.61-1.11-5.26-1.62-7.88l.79-.15c.51,2.61,1.05,5.26,1.62,7.86Zm708.48-8.07-.79-.16c.51-2.61,1-5.27,1.44-7.89l.79.14C956.06,548.14,955.58,550.8,955.07,553.43Zm-711.54-7.72c-.45-2.63-.88-5.3-1.27-7.94l.79-.12c.39,2.64.82,5.31,1.27,7.92Zm714.24-8.13-.79-.12c.39-2.64.75-5.31,1.08-8l.8.1C958.53,532.26,958.16,534.94,957.77,537.58Zm-716.6-7.77c-.33-2.65-.64-5.33-.92-8l.8-.09c.28,2.66.58,5.34.91,8Zm718.6-8.19-.8-.08c.27-2.64.51-5.33.73-8l.8.06C960.28,516.28,960,519,959.77,521.62Zm-720.25-7.81c-.22-2.67-.4-5.36-.56-8l.8-.05c.16,2.65.34,5.35.56,8Zm721.53-8.22-.8,0c.15-2.65.28-5.35.38-8l.8,0C961.33,500.23,961.21,502.94,961.05,505.59Zm-722.47-7.83c-.1-2.66-.17-5.36-.21-8h.8c0,2.67.11,5.37.21,8Zm723.05-8.22h-.8c0-1.75,0-3.49,0-5.24,0-2.66,0-5.36-.09-8l.8,0c.06,2.67.09,5.38.09,8C961.67,486,961.66,487.79,961.63,489.54Zm-722.49-7.85h-.8c0-2.67.07-5.37.15-8l.8,0C239.21,476.33,239.16,479,239.14,481.69Zm721.38-13.44c-.12-2.67-.27-5.36-.44-8l.8-.06c.17,2.66.32,5.36.44,8Zm-720.91-2.6-.81,0c.14-2.66.31-5.36.5-8l.8.06C239.91,460.3,239.74,463,239.61,465.65Zm719.85-13.41c-.23-2.65-.5-5.34-.79-8l.8-.09c.29,2.65.56,5.34.79,8Zm-718.68-2.59-.8-.07c.25-2.66.53-5.35.85-8l.79.1C241.31,444.31,241,447,240.78,449.65ZM957.7,436.29c-.35-2.63-.73-5.3-1.14-7.94l.79-.12c.41,2.64.8,5.32,1.15,8Zm-715.05-2.57-.8-.11c.38-2.65.78-5.32,1.21-7.95l.79.13C243.42,428.41,243,431.08,242.65,433.72Zm712.59-13.28c-.47-2.62-1-5.27-1.5-7.88l.79-.16c.52,2.62,1,5.28,1.5,7.9Zm-710-2.55-.79-.15c.49-2.63,1-5.28,1.56-7.89l.79.17C246.24,412.62,245.72,415.26,245.23,417.89Zm706.83-13.18c-.58-2.6-1.2-5.23-1.85-7.8l.78-.2c.65,2.59,1.27,5.22,1.86,7.83Zm-703.54-2.53-.79-.18c.61-2.6,1.25-5.23,1.91-7.81l.78.2C249.76,397,249.12,399.58,248.52,402.18Zm699.67-13c-.7-2.56-1.44-5.15-2.2-7.71l.77-.23c.77,2.56,1.51,5.17,2.21,7.73Zm-695.69-2.5-.77-.22c.72-2.56,1.48-5.16,2.26-7.71l.76.23C254,381.49,253.22,384.08,252.5,386.64Zm691.13-12.88c-.82-2.53-1.68-5.1-2.55-7.63l.75-.27c.88,2.54,1.74,5.11,2.56,7.66Zm-686.45-2.47-.76-.25c.83-2.53,1.71-5.09,2.6-7.61l.75.27C258.88,366.21,258,368.76,257.18,371.29Zm681.18-12.74c-.93-2.5-1.91-5-2.89-7.51l.74-.3c1,2.49,2,5,2.9,7.53Zm-675.82-2.38-.75-.28c.95-2.51,1.94-5,2.94-7.49l.74.3C264.47,351.16,263.49,353.68,262.54,356.17Zm669.87-12.58c-1-2.46-2.13-4.94-3.22-7.37l.73-.33c1.1,2.43,2.18,4.92,3.23,7.39Zm-663.85-2.26-.74-.32c1.05-2.43,2.15-4.9,3.26-7.32l.73.33C270.7,336.44,269.61,338.9,268.56,341.33Zm657.24-12.4c-1.15-2.41-2.34-4.84-3.54-7.22l.71-.36c1.21,2.39,2.41,4.82,3.56,7.23Zm-650.58-2.14-.72-.35c1.17-2.39,2.37-4.81,3.59-7.17l.71.37C277.59,322,276.39,324.4,275.22,326.79Zm643.33-12.21c-1.25-2.35-2.55-4.72-3.86-7.05l.69-.4c1.32,2.34,2.62,4.72,3.88,7.07Zm-636-2-.71-.38c1.27-2.35,2.58-4.71,3.9-7l.7.4C285.11,307.87,283.8,310.22,282.54,312.56Zm628.12-12c-1.35-2.29-2.75-4.6-4.17-6.87l.68-.42c1.42,2.27,2.83,4.59,4.19,6.88Zm-620.19-1.91-.68-.41c1.37-2.28,2.78-4.58,4.21-6.83l.68.43C293.25,294.09,291.84,296.39,290.47,298.66Zm611.7-11.73c-1.45-2.21-3-4.46-4.48-6.67l.67-.45c1.52,2.21,3,4.46,4.48,6.68ZM299,285.12l-.67-.44c1.47-2.22,3-4.45,4.51-6.64l.66.46C302,280.68,300.49,282.91,299,285.12Zm594.05-11.43c-1.55-2.15-3.16-4.32-4.77-6.46l.64-.49c1.62,2.15,3.23,4.33,4.78,6.48ZM308.17,272l-.65-.47c1.57-2.15,3.18-4.31,4.8-6.44l.64.49C311.34,267.67,309.73,269.83,308.17,272Zm575.24-11.1c-1.65-2.09-3.35-4.19-5-6.24l.62-.51c1.7,2.05,3.4,4.16,5.06,6.25ZM317.9,259.23l-.63-.5c1.66-2.09,3.37-4.18,5.08-6.22l.62.51C321.26,255.06,319.56,257.15,317.9,259.23ZM873.19,248.5c-1.73-2-3.52-4-5.32-6l.6-.54c1.8,2,3.59,4,5.32,6Zm-545-1.57-.61-.53c1.74-2,3.55-4,5.36-6l.59.54C331.71,242.93,329.92,244.94,328.18,246.93Zm534.25-10.34c-1.82-1.93-3.69-3.87-5.57-5.77l.57-.57c1.88,1.91,3.76,3.86,5.58,5.79ZM339,235.09l-.58-.56c1.84-1.92,3.73-3.85,5.62-5.75l.57.57C342.71,231.24,340.83,233.17,339,235.09Zm512.17-9.92c-1.92-1.86-3.87-3.72-5.82-5.52l.55-.59c2,1.81,3.91,3.67,5.83,5.53Zm-500.83-1.43-.56-.58c1.92-1.84,3.89-3.69,5.87-5.5l.54.59C354.21,220.06,352.24,221.9,350.33,223.74Zm489.07-9.48c-2-1.76-4-3.53-6-5.25l.52-.61c2,1.72,4.07,3.49,6.06,5.26Zm-477.25-1.37-.53-.6c2-1.76,4.06-3.52,6.11-5.24l.51.62C366.2,209.38,364.15,211.14,362.15,212.89Zm465-9c-2.07-1.68-4.18-3.35-6.28-5l.49-.64c2.1,1.63,4.22,3.31,6.29,5Zm-452.73-1.31L374,202c2.09-1.68,4.22-3.35,6.33-5l.49.64C378.67,199.24,376.54,200.9,374.45,202.58Zm440.06-8.51c-2.14-1.59-4.33-3.17-6.49-4.7l.46-.65c2.17,1.53,4.36,3.12,6.51,4.71ZM387.2,192.81l-.48-.64c2.16-1.58,4.36-3.15,6.55-4.68l.46.66C391.55,189.67,389.35,191.24,387.2,192.81Zm414.23-8c-2.21-1.49-4.46-3-6.69-4.41l.43-.67c2.24,1.44,4.5,2.92,6.7,4.41Zm-401.06-1.21-.44-.67c2.21-1.47,4.48-2.94,6.75-4.38l.43.68C404.84,180.68,402.58,182.15,400.37,183.62ZM788,176.17c-2.26-1.38-4.58-2.76-6.88-4.1l.41-.69c2.3,1.34,4.62,2.72,6.89,4.11Zm-374-1.15-.41-.68c2.27-1.38,4.61-2.75,6.94-4.09l.4.7C418.55,172.28,416.21,173.65,413.94,175Zm360.17-6.89c-2.33-1.29-4.7-2.56-7.05-3.79l.37-.71c2.36,1.23,4.73,2.51,7.07,3.79ZM427.89,167l-.39-.7c2.35-1.28,4.74-2.54,7.12-3.77l.37.71C432.62,164.5,430.23,165.76,427.89,167Zm332-6.32c-2.38-1.18-4.8-2.35-7.2-3.47l.34-.73c2.41,1.13,4.84,2.3,7.22,3.48Zm-317.75-1-.35-.72c2.41-1.17,4.86-2.33,7.28-3.45l.34.73C447,157.34,444.58,158.5,442.18,159.67Zm303.27-5.74c-2.42-1.06-4.89-2.12-7.35-3.14l.3-.74c2.47,1,5,2.08,7.37,3.15ZM456.8,153l-.32-.73c2.45-1.06,4.95-2.11,7.43-3.12l.3.74C461.74,150.85,459.24,151.9,456.8,153Zm273.85-5.15c-2.47-1-5-1.91-7.51-2.82l.27-.76c2.53.92,5.06,1.87,7.53,2.83Zm-258.95-.9-.28-.76c2.5-.95,5.05-1.89,7.57-2.78l.27.76C476.74,145,474.2,145.94,471.7,146.9Zm243.87-4.57c-2.52-.85-5.08-1.69-7.63-2.49l.24-.76c2.55.8,5.12,1.63,7.65,2.48Zm-228.7-.82-.25-.76c2.55-.84,5.14-1.67,7.7-2.45l.23.77C492,139.85,489.42,140.67,486.87,141.51Zm213.39-4c-2.56-.74-5.17-1.46-7.73-2.14l.2-.77c2.58.68,5.18,1.4,7.75,2.14Zm-198-.71-.22-.77c2.58-.73,5.19-1.43,7.77-2.09l.2.78C507.43,135.4,504.82,136.1,502.25,136.82Zm182.5-3.39c-2.57-.62-5.2-1.22-7.82-1.79l.17-.79c2.63.58,5.27,1.18,7.83,1.8Zm-167-.6-.18-.78c2.58-.61,5.22-1.19,7.85-1.74l.16.79C523,131.65,520.36,132.23,517.79,132.83ZM669.07,130c-2.61-.51-5.26-1-7.89-1.44l.13-.8c2.64.46,5.3.94,7.91,1.45Zm-135.58-.49-.14-.79c2.62-.49,5.29-1,7.92-1.39l.12.8C538.77,128.59,536.11,129.05,533.49,129.54Zm119.76-2.21c-2.62-.39-5.3-.76-7.94-1.09l.1-.8c2.65.33,5.33.7,8,1.09ZM549.33,127l-.11-.79c2.62-.37,5.3-.72,8-1l.09.79C554.62,126.24,552,126.58,549.33,127Zm88-1.62c-2.62-.27-5.31-.51-8-.73l.06-.8c2.69.22,5.38.46,8,.73Zm-72.08-.26-.08-.8c2.65-.25,5.35-.48,8-.67l0,.8C570.59,124.59,567.9,124.82,565.26,125.07Zm56.08-1c-2.64-.15-5.33-.28-8-.38l0-.8c2.68.1,5.38.23,8,.38Zm-40.08-.14,0-.8c2.66-.14,5.36-.25,8-.32l0,.8C586.61,123.66,583.91,123.76,581.26,123.9Zm24.06-.44c-2.67,0-5.35,0-8,0v-.8c2.68,0,5.37,0,8,0Z"/><path class="cls-10" d="M895.94,603.2l-.75-.3c1-2.47,2-5,2.9-7.48l.75.28C897.91,598.2,896.94,600.72,895.94,603.2Zm5.62-15.07-.76-.26c.86-2.51,1.71-5.07,2.51-7.61l.77.24C903.27,583.05,902.42,585.62,901.56,588.13Zm-605-5.53c-.82-2.53-1.62-5.12-2.38-7.68l.77-.23c.76,2.56,1.56,5.13,2.38,7.66Zm609.81-9.8-.77-.22c.74-2.56,1.46-5.17,2.13-7.74l.77.21C907.86,567.62,907.14,570.23,906.4,572.8ZM292,567.18c-.69-2.58-1.36-5.2-2-7.8l.78-.18c.63,2.58,1.3,5.2,2,7.77Zm618.44-9.94-.79-.18c.61-2.59,1.19-5.22,1.73-7.84l.79.17C911.66,552,911.07,554.65,910.47,557.24Zm-622.21-5.7c-.56-2.59-1.1-5.25-1.59-7.88l.79-.15c.49,2.63,1,5.27,1.58,7.86Zm625.47-10-.79-.14c.48-2.62.92-5.28,1.33-7.91l.8.12C914.66,536.2,914.21,538.86,913.73,541.49Zm-628.45-5.75c-.43-2.63-.83-5.3-1.19-8l.8-.11c.36,2.64.76,5.31,1.18,7.93ZM916.2,525.6l-.8-.1c.34-2.64.66-5.32.93-8l.8.09C916.85,520.27,916.54,523,916.2,525.6Zm-633.09-5.79c-.3-2.65-.56-5.35-.79-8l.8-.07c.23,2.65.49,5.33.78,8Zm634.75-10.2-.8-.06c.21-2.66.38-5.35.53-8l.8,0C918.25,504.25,918.07,507,917.86,509.61Zm-636.12-5.82c-.16-2.66-.29-5.36-.39-8l.8,0c.1,2.66.23,5.36.39,8Zm637-10.24-.8,0c.07-2.66.11-5.35.12-8h.81C918.84,488.19,918.79,490.89,918.72,493.55Zm-637.55-5.84c0-1.14,0-2.28,0-3.42q0-2.31,0-4.62H282c0,1.54,0,3.07,0,4.61,0,1.14,0,2.28,0,3.42Zm637.68-3.42h-.8c0-2.66,0-5.36-.1-8l.8,0C918.82,478.92,918.85,481.62,918.85,484.29ZM282.2,471.68l-.8,0c.1-2.67.24-5.37.41-8l.8.06C282.44,466.32,282.3,469,282.2,471.68Zm635.45-3.43c-.13-2.66-.3-5.35-.5-8l.8-.06c.2,2.66.37,5.36.5,8ZM283.22,455.67l-.8-.07c.24-2.66.51-5.35.82-8l.8.09C283.73,450.33,283.46,453,283.22,455.67Zm633.23-3.41c-.26-2.65-.56-5.33-.89-8l.79-.1c.34,2.65.64,5.34.9,8Zm-631.4-12.53-.8-.11c.37-2.64.78-5.32,1.22-7.95l.79.13C285.83,434.43,285.42,437.1,285.05,439.73Zm629.41-3.39c-.4-2.64-.84-5.3-1.3-7.91l.79-.14c.46,2.62.9,5.29,1.3,7.93ZM287.68,423.91l-.79-.15c.5-2.63,1.05-5.28,1.62-7.88l.78.17C288.72,418.65,288.18,421.29,287.68,423.91Zm624-3.36c-.53-2.61-1.1-5.24-1.7-7.84l.78-.18c.6,2.6,1.17,5.25,1.71,7.86ZM291.1,408.24l-.78-.19c.64-2.59,1.32-5.21,2-7.79l.77.21C292.41,403,291.74,405.65,291.1,408.24Zm617-3.33c-.66-2.56-1.36-5.17-2.09-7.74l.77-.22c.73,2.58,1.44,5.19,2.1,7.76ZM295.32,392.76l-.77-.23c.77-2.56,1.58-5.14,2.41-7.67l.76.25C296.89,387.63,296.09,390.21,295.32,392.76Zm608.36-3.28c-.8-2.55-1.64-5.13-2.5-7.65l.76-.26c.86,2.53,1.71,5.11,2.5,7.68Zm-603.36-12-.76-.27c.89-2.51,1.84-5.05,2.8-7.54l.75.29C302.15,372.49,301.21,375,300.32,377.52Zm598.18-3.28c-.93-2.5-1.9-5-2.88-7.51l.74-.3c1,2.49,2,5,2.89,7.54ZM306.08,362.55l-.74-.31c1-2.45,2.08-4.93,3.16-7.36l.74.33C308.16,357.63,307.1,360.1,306.08,362.55Zm586.47-3.25c-1-2.45-2.15-4.92-3.26-7.36l.73-.33c1.12,2.44,2.22,4.92,3.26,7.37Zm-580-11.36-.73-.34c1.14-2.41,2.33-4.83,3.54-7.2l.71.36C314.9,343.13,313.72,345.55,312.58,347.94Zm573.27-3.26c-1.18-2.4-2.4-4.82-3.63-7.18l.72-.37c1.23,2.37,2.45,4.79,3.63,7.19Zm-566-11-.71-.38c1.27-2.35,2.58-4.71,3.89-7l.7.4C322.38,329,321.07,331.33,319.81,333.67Zm558.61-3.25c-1.29-2.32-2.63-4.67-4-7l.69-.4c1.36,2.31,2.7,4.66,4,7ZM327.75,319.77l-.69-.41c1.38-2.28,2.81-4.57,4.25-6.82l.68.44C330.55,315.21,329.13,317.5,327.75,319.77Zm542.53-3.2c-1.41-2.27-2.87-4.55-4.33-6.77l.68-.44c1.46,2.23,2.92,4.51,4.33,6.79ZM336.39,306.29l-.67-.45c1.49-2.2,3-4.42,4.59-6.59l.65.46C339.41,301.88,337.88,304.09,336.39,306.29Zm525.07-3.14c-1.53-2.2-3.1-4.4-4.66-6.54l.65-.47c1.57,2.14,3.14,4.35,4.67,6.55Zm-515.76-9.9-.65-.48c1.6-2.13,3.26-4.27,4.91-6.36l.63.5C348.94,289,347.29,291.13,345.7,293.25ZM852,290.19c-1.63-2.12-3.31-4.23-5-6.29l.63-.51c1.67,2.07,3.35,4.19,5,6.31Zm-496.32-9.5-.62-.51c1.7-2,3.46-4.1,5.23-6.11l.6.53C359.1,276.61,357.34,278.66,355.65,280.69Zm486.2-2.95c-1.73-2-3.51-4.06-5.28-6l.59-.53c1.78,2,3.57,4,5.31,6Zm-475.63-9.1-.59-.55c1.82-2,3.68-3.92,5.53-5.83l.58.56C369.89,264.72,368,266.68,366.22,268.64Zm464.91-2.83c-1.84-1.95-3.72-3.88-5.59-5.76l.57-.57c1.88,1.88,3.76,3.83,5.6,5.77Zm-453.74-8.68-.56-.57c1.91-1.88,3.87-3.75,5.81-5.56l.55.59C381.25,253.4,379.3,255.26,377.39,257.13Zm442.43-2.7c-1.92-1.84-3.9-3.68-5.87-5.47l.54-.59c2,1.79,4,3.64,5.88,5.48Zm-430.69-8.24-.53-.6c2-1.77,4-3.54,6.08-5.26l.52.62C393.16,242.66,391.12,244.43,389.13,246.19ZM808,243.64c-2-1.75-4.09-3.49-6.13-5.16l.51-.63c2,1.68,4.11,3.42,6.14,5.18ZM401.4,235.85l-.5-.63c2.09-1.67,4.23-3.33,6.35-4.94l.48.64C405.62,232.52,403.49,234.18,401.4,235.85Zm394.18-2.39c-2.1-1.63-4.24-3.26-6.38-4.85l.48-.64c2.14,1.59,4.29,3.22,6.39,4.86Zm-381.4-7.32-.47-.65c2.17-1.57,4.39-3.12,6.59-4.63l.46.67C418.56,223,416.35,224.58,414.18,226.14Zm368.52-2.22c-2.18-1.53-4.4-3-6.61-4.52l.45-.67c2.21,1.47,4.44,3,6.63,4.54Zm-355.26-6.84-.43-.68c2.23-1.45,4.53-2.89,6.81-4.29l.42.69C432,214.19,429.67,215.63,427.44,217.08Zm341.93-2c-2.25-1.42-4.55-2.82-6.82-4.18l.41-.69c2.28,1.36,4.58,2.77,6.84,4.19Zm-328.23-6.35-.4-.69c2.33-1.34,4.69-2.67,7-3.94l.38.7C445.82,206,443.46,207.35,441.14,208.69Zm314.48-1.84c-2.33-1.31-4.69-2.6-7-3.83l.37-.71c2.34,1.23,4.71,2.53,7,3.84ZM455.26,201l-.37-.72c2.38-1.21,4.81-2.42,7.22-3.58l.35.73C460.05,198.59,457.63,199.8,455.26,201Zm286.22-1.65c-2.37-1.18-4.8-2.34-7.21-3.47l.34-.73c2.42,1.13,4.85,2.3,7.23,3.49Zm-271.73-5.31-.33-.74c2.45-1.09,4.94-2.17,7.4-3.21l.31.74C474.68,191.87,472.19,193,469.75,194.05ZM727,192.6c-2.45-1.06-4.93-2.1-7.37-3.1l.3-.74c2.45,1,4.94,2,7.39,3.11Zm-242.4-4.77-.29-.75c2.49-1,5-1.93,7.55-2.83l.27.75C489.61,185.91,487.08,186.86,484.59,187.83Zm227.56-1.25c-2.5-.94-5-1.86-7.54-2.73l.26-.76c2.52.87,5.06,1.79,7.56,2.74Zm-212.42-4.21-.26-.76c2.56-.85,5.15-1.67,7.7-2.45l.23.77C504.86,180.7,502.28,181.52,499.73,182.37ZM697,181.3c-2.55-.81-5.13-1.6-7.67-2.34l.22-.77c2.55.74,5.14,1.53,7.69,2.35Zm-181.9-3.6-.21-.78c2.57-.71,5.19-1.4,7.78-2l.19.78C520.28,176.3,517.67,177,515.1,177.7Zm166.5-.89c-2.56-.68-5.18-1.34-7.78-2l.19-.78c2.6.62,5.23,1.28,7.8,2Zm-150.93-3-.18-.79c2.6-.57,5.25-1.13,7.88-1.64l.15.79C535.9,172.69,533.26,173.24,530.67,173.82ZM666,173.1c-2.6-.55-5.25-1.07-7.87-1.56l.14-.79c2.64.49,5.29,1,7.89,1.56Zm-119.59-2.36-.13-.8c2.62-.44,5.29-.86,7.94-1.24l.12.8C551.69,169.88,549,170.29,546.41,170.74Zm103.81-.56c-2.62-.41-5.29-.8-7.93-1.15l.1-.8c2.65.35,5.33.74,8,1.16Zm-87.93-1.73-.1-.8c2.67-.31,5.36-.59,8-.84l.07.8C567.63,167.86,564.94,168.14,562.29,168.45Zm72-.38c-2.66-.28-5.34-.54-8-.75l.06-.8c2.65.21,5.34.47,8,.75ZM578.26,167l0-.8c2.64-.18,5.34-.33,8-.44l0,.8C583.59,166.65,580.9,166.79,578.26,167Zm40.08-.21c-2.65-.15-5.35-.27-8-.35l0-.81c2.67.09,5.37.21,8,.36Zm-24.05-.47,0-.8q4-.08,8,0v.8C599.63,166.23,597,166.24,594.29,166.29Z"/><path class="cls-11" d="M340.92,423.79c-5.07-1.12-10.93-2.3-13.57-8.25-3.55-8,1-19.89-3.46-27C320,382.31,311,383.64,308.8,376c-1.66-5.78,2.14-11.68,5.85-15.33s8.15-7.73,8.35-13.93c.23-6.92-5.07-12.14-5.67-19A17.26,17.26,0,0,1,323,313.86c3.43-3.06,7.5-4.48,11.37-6.39s7.77-4.56,10-9.2,2.57-10.52,4.73-15.2c3.49-7.58,11.5-10,17.51-6.34s9.85,12.39,10.46,21.28c.54,8-1.1,16.73,1.94,23.61,2.57,5.81,7.69,8.39,12.39,10.76s9.76,5.45,11.81,11.63c2,6,.41,13.2-2.35,18.62s-6.58,9.68-9.74,14.69-5.74,11.32-5.19,17.86c.5,5.94,3.52,11.63,2.4,17.42-.76,3.95-3.27,6.77-5.65,9.3L372,433.32a40.58,40.58,0,0,1-5.41,5.12c-2.33,1.71-5.05,2.76-7.66,2.07-4.18-1.12-5-6.23-7.42-10.07C349,426.28,344.74,424.64,340.92,423.79Z"/><polygon class="cls-12" points="386.92 352.12 385.29 350.49 360.96 373.82 360.56 337.82 355.68 337.82 355.59 346.52 331.76 323.66 330.12 325.3 355.53 351.78 355.11 390.18 331.76 367.78 330.12 369.42 355.05 395.4 353.99 492.46 362.26 492.46 361.02 379.12 386.92 352.12"/><path class="cls-13" d="M383.29,173V493.62H526.6V173Z"/><path class="cls-14" d="M381.45,495.46V171.12h147V495.46ZM383.29,173V493.62H526.6V173Z"/><rect class="cls-15" x="408.54" y="188.81" width="23.17" height="6.83" rx="1.73" transform="translate(840.26 384.45) rotate(180)"/><rect class="cls-15" x="466.09" y="204.43" width="16.92" height="6.83" rx="1.73" transform="translate(949.1 415.69) rotate(180)"/><rect class="cls-15" x="405.69" y="232.05" width="16.92" height="6.83" rx="1.73" transform="translate(828.29 470.94) rotate(180)"/><rect class="cls-15" x="496.43" y="180.62" width="23.17" height="6.83" rx="1.73" transform="translate(1016.02 368.07) rotate(180)"/><rect class="cls-15" x="490.39" y="188.81" width="23.17" height="6.83" rx="1.73" transform="translate(1003.96 384.45) rotate(180)"/><rect class="cls-15" x="404.48" y="339.3" width="16.92" height="6.83" rx="1.73" transform="translate(825.88 685.43) rotate(180)"/><rect class="cls-15" x="389.91" y="180.62" width="23.17" height="6.83" rx="1.73" transform="translate(802.99 368.07) rotate(180)"/><rect class="cls-15" x="393.26" y="240.05" width="23.17" height="6.83" rx="1.73" transform="translate(809.69 486.94) rotate(180)"/><rect class="cls-15" x="387.06" y="285.67" width="23.17" height="6.83" rx="1.73" transform="translate(797.29 578.18) rotate(180)"/><rect class="cls-15" x="389.84" y="269.86" width="13.72" height="6.83" rx="1.73" transform="translate(793.39 546.56) rotate(180)"/><rect class="cls-15" x="386.64" y="277.77" width="16.92" height="6.83" rx="1.73" transform="translate(790.2 562.37) rotate(180)"/><rect class="cls-15" x="462.79" y="316.18" width="23.17" height="6.83" rx="1.73" transform="translate(948.76 639.19) rotate(180)"/><rect class="cls-15" x="386.2" y="455.82" width="16.92" height="6.83" rx="1.73" transform="translate(789.32 918.47) rotate(180)"/><rect class="cls-15" x="459.94" y="359.42" width="16.92" height="6.83" rx="1.73" transform="translate(936.79 725.67) rotate(180)"/><rect class="cls-15" x="416.54" y="432.01" width="23.17" height="6.83" rx="1.73" transform="translate(856.25 870.85) rotate(180)"/><rect class="cls-15" x="410.51" y="440.2" width="23.17" height="6.83" rx="1.73" transform="translate(844.18 887.23) rotate(180)"/><rect class="cls-15" x="458.73" y="466.67" width="16.92" height="6.83" rx="1.73" transform="translate(934.38 940.17) rotate(180)"/><rect class="cls-15" x="444.16" y="307.99" width="23.17" height="6.83" rx="1.73" transform="translate(911.49 622.81) rotate(180)"/><rect class="cls-15" x="447.51" y="367.42" width="23.17" height="6.83" rx="1.73" transform="translate(918.19 741.68) rotate(180)"/><rect class="cls-15" x="441.31" y="413.04" width="23.17" height="6.83" rx="1.73" transform="translate(905.79 832.92) rotate(180)"/><rect class="cls-15" x="444.09" y="397.23" width="13.72" height="6.83" rx="1.73" transform="translate(901.89 801.3) rotate(180)"/><rect class="cls-15" x="440.89" y="405.14" width="16.92" height="6.83" rx="1.73" transform="translate(898.7 817.11) rotate(180)"/><path class="cls-16" d="M371.32,493.56H523.39V313.44H371.32Z"/><path class="cls-14" d="M525.23,495.4H369.48v-183H525.23Zm-153.91-1.84H523.39V314.27H371.32Z"/><rect class="cls-17" x="370.24" y="315.71" width="154.03" height="5.39"/><rect class="cls-17" x="370.24" y="325.31" width="154.03" height="5.39"/><rect class="cls-17" x="370.24" y="334.92" width="154.03" height="5.39"/><rect class="cls-17" x="370.24" y="344.52" width="154.03" height="5.39"/><rect class="cls-17" x="370.24" y="354.13" width="154.03" height="5.39"/><rect class="cls-17" x="370.24" y="363.74" width="154.03" height="5.39"/><rect class="cls-17" x="370.24" y="373.34" width="154.03" height="5.39"/><rect class="cls-17" x="370.24" y="382.95" width="154.03" height="5.39"/><rect class="cls-17" x="370.24" y="392.55" width="154.03" height="5.39"/><rect class="cls-17" x="370.24" y="402.16" width="154.03" height="5.39"/><rect class="cls-17" x="370.24" y="411.76" width="154.03" height="5.39"/><rect class="cls-17" x="370.24" y="421.37" width="154.03" height="5.39"/><rect class="cls-17" x="370.24" y="430.97" width="154.03" height="5.39"/><rect class="cls-17" x="370.24" y="440.58" width="154.03" height="5.39"/><rect class="cls-17" x="370.24" y="450.19" width="154.03" height="5.39"/><rect class="cls-17" x="370.24" y="459.79" width="154.03" height="5.39"/><rect class="cls-17" x="370.24" y="469.4" width="154.03" height="5.39"/><rect class="cls-17" x="370.24" y="479" width="154.03" height="5.39"/><rect class="cls-17" x="370.24" y="488.61" width="154.03" height="5.39"/><path class="cls-18" d="M491.29,493.66h168V255.12l-84-72.71-84,72.71Z"/><rect class="cls-19" x="519.84" y="397.72" width="109.3" height="73.56"/><rect class="cls-20" x="552.63" y="275.7" width="43.91" height="74.91"/><rect class="cls-21" x="559.02" y="285.76" width="31.74" height="59.66"/><rect class="cls-22" x="3.12" y="532.18" width="1200" height="704.79"/><rect class="cls-23" y="495.21" width="1200" height="19.84"/><rect class="cls-20" x="659.75" y="369.07" width="154.95" height="119.8"/><rect class="cls-13" x="666.32" y="381.92" width="135.09" height="98.54"/><rect class="cls-24" x="712.42" y="402.96" width="25.99" height="58.61"/><rect class="cls-25" x="684.29" y="402.96" width="25.99" height="58.61"/><path class="cls-20" d="M661.09,347.92H813.16V272.14H661.09Z"/><rect class="cls-26" x="706.88" y="290.91" width="106.86" height="38.07"/><path class="cls-11" d="M880.31,436.9c3.9-.95,8.4-2,10.43-7C893.47,423.1,890,413,893.4,407c3-5.31,9.91-4.18,11.6-10.68,1.28-4.92-1.64-9.93-4.5-13s-6.26-6.57-6.41-11.84c-.18-5.87,3.89-10.3,4.35-16.14a15.42,15.42,0,0,0-4.39-11.76c-2.63-2.61-5.76-3.81-8.73-5.43a16.45,16.45,0,0,1-7.72-7.82c-1.73-3.9-2-8.93-3.64-12.9-2.68-6.44-8.84-8.51-13.46-5.39s-7.57,10.53-8,18.08c-.42,6.78.85,14.2-1.49,20.05-2,4.93-5.92,7.12-9.52,9.13s-7.51,4.63-9.08,9.88-.32,11.21,1.8,15.81,5.06,8.22,7.49,12.48,4.41,9.62,4,15.17c-.38,5-2.7,9.88-1.85,14.79.59,3.36,2.52,5.75,4.35,7.9l8.24,9.7a33.19,33.19,0,0,0,4.16,4.35c1.79,1.45,3.88,2.35,5.88,1.76,3.22-1,3.88-5.29,5.71-8.55C874.12,439,877.38,437.62,880.31,436.9Z"/><polygon class="cls-12" points="887.18 381.42 885.93 380.04 872.09 394.46 871.78 363.88 868.03 363.88 867.96 371.28 855.99 358.7 854.73 360.08 867.91 375.74 867.59 408.36 849.64 389.33 848.38 390.72 867.54 412.79 866.72 495.22 873.09 495.22 872.13 398.96 887.18 381.42"/><path class="cls-14" d="M661.09,495.5H489.45V254.28l.31-.28,85.51-74,85.82,74.3Zm-169.8-1.84h168V255.12l-84-72.71-84,72.71Z"/><path class="cls-14" d="M815,349.76H659.25V270.3H815Zm-153.91-1.84H813.16V272.14H661.09Z"/><path class="cls-14" d="M814.94,289.71H706.15v39.07h-1.94v2.49H816.9v-2.49h-2Zm-107,1.84H813.1v36.31H708Z"/><path class="cls-14" d="M802.43,488H665.72V381.14H802.43Zm-134.87-1.84h133V383h-133Z"/><path class="cls-14" d="M802.43,481.8H665.72V381.14H802.43ZM667.56,480h133V383h-133Z"/><path class="cls-14" d="M681.55,400.49V481.8H741V400.49Zm26.91,59.43H685.63V404.77h22.83Zm28.53,0H714.15V404.77H737Z"/><rect class="cls-14" x="660.17" y="486.47" width="158.48" height="8.99"/><path class="cls-14" d="M815.73,488H800.59V368h15.14Zm-13.3-1.84h11.46V369.86H802.43Z"/><path class="cls-14" d="M593.86,396.56H519.09v76H630.33v-76Zm34.63,24.82H612.1v-23h16.39Zm-89.32,1.84h16.39v23.23H539.17Zm-1.84,23.23h-16.4V423.22h16.4Zm20.07-23.23h16.39v23.23H557.4Zm18.23,0H592v23.23H575.63Zm18.23,0h16.4v23.23h-16.4Zm18.24,0h16.39v23.23H612.1Zm-1.84-24.82v23h-16.4v-23Zm-18.24,23H575.63v-23H592Zm-18.23-23v23H557.4v-23Zm-18.23,23H539.17v-23h16.39Zm-18.23-23v23h-16.4v-23Zm-16.4,49.89h16.4v22.46h-16.4Zm18.24,22.46V448.29h16.39v22.46Zm18.23-22.46h16.39v22.46H557.4Zm18.23,22.46V448.29H592v22.46Zm18.23-22.46h16.4v22.46h-16.4Zm18.24,22.46V448.29h16.39v22.46Z"/><polygon class="cls-14" points="675.84 267.14 575.26 180.06 474.69 267.14 468.19 259.63 575.26 166.92 682.35 259.63 675.84 267.14"/><path class="cls-14" d="M558.2,346.41h33.57V285.14H558.2ZM575.91,287h14v18h-14Zm0,19.89h14V325.1h-14Zm0,20.08h14v17.63h-14ZM560,287h14v18H560Zm0,19.89h14V325.1H560Zm0,20.08h14v17.63H560Z"/><path class="cls-14" d="M607,276.69v-5.95h-64.1v5.95h8.63V350h-8.63v5.95H607V350h-9.19v-73.3ZM553.41,350V277.76H596V350Z"/><rect class="cls-14" x="660.17" y="348.84" width="161.4" height="22.67"/><path class="cls-27" d="M794.18,459.66c-2.68-.59-5.79-1.22-7.19-4.37-1.88-4.23.55-10.53-1.83-14.29-2.09-3.31-6.83-2.6-8-6.66-.88-3.06,1.13-6.19,3.1-8.12s4.31-4.09,4.42-7.38c.12-3.66-2.68-6.42-3-10.06a9.16,9.16,0,0,1,3-7.34c1.82-1.62,4-2.37,6-3.38a10.87,10.87,0,0,0,5.32-4.88c1.19-2.43,1.36-5.57,2.5-8,1.85-4,6.1-5.31,9.28-3.36s5.22,6.56,5.54,11.27c.29,4.23-.58,8.86,1,12.5,1.36,3.08,4.07,4.45,6.56,5.7s5.17,2.88,6.25,6.16.22,7-1.24,9.86-3.49,5.12-5.16,7.78a15.74,15.74,0,0,0-2.75,9.46c.26,3.15,1.86,6.16,1.27,9.22a10,10,0,0,1-3,4.93l-5.68,6a21.4,21.4,0,0,1-2.86,2.71,4.9,4.9,0,0,1-4.06,1.09c-2.21-.59-2.67-3.29-3.93-5.33A8.37,8.37,0,0,0,794.18,459.66Z"/><path class="cls-28" d="M841.13,468.7c2.2-.49,4.74-1,5.89-3.59,1.55-3.47-.44-8.63,1.5-11.71,1.72-2.72,5.6-2.14,6.56-5.46.72-2.51-.93-5.08-2.54-6.66s-3.54-3.36-3.63-6c-.1-3,2.2-5.27,2.46-8.25a7.48,7.48,0,0,0-2.48-6,20,20,0,0,0-4.93-2.78,8.89,8.89,0,0,1-4.36-4c-1-2-1.12-4.56-2.05-6.59-1.52-3.29-5-4.35-7.61-2.76s-4.28,5.39-4.54,9.24c-.24,3.47.48,7.27-.84,10.25-1.12,2.53-3.34,3.65-5.38,4.67s-4.24,2.37-5.13,5.05a11.07,11.07,0,0,0,1,8.09c1.2,2.35,2.86,4.2,4.23,6.38a12.85,12.85,0,0,1,2.25,7.75c-.21,2.58-1.52,5.05-1,7.56a8.26,8.26,0,0,0,2.45,4c1.55,1.66,3.11,3.31,4.66,5a16.88,16.88,0,0,0,2.35,2.22,4,4,0,0,0,3.32.9c1.82-.48,2.19-2.7,3.22-4.37A6.81,6.81,0,0,1,841.13,468.7Z"/><polygon class="cls-12" points="845.01 440.33 844.3 439.63 836.48 447 836.31 431.37 834.19 431.37 834.15 435.15 827.39 428.71 826.68 429.43 834.13 437.43 833.94 454.1 823.8 444.38 823.1 445.09 833.92 456.37 833.46 498.51 837.05 498.51 836.51 449.3 845.01 440.33"/><polygon class="cls-12" points="820.5 420.6 819.64 419.74 806.76 432.09 806.55 413.03 803.96 413.03 803.91 417.64 791.29 405.53 790.43 406.4 803.88 420.42 803.66 440.76 791.29 428.9 790.43 429.76 803.63 443.52 803.06 494.92 807.45 494.92 806.79 434.9 820.5 420.6"/><path class="cls-28" d="M383.88,458.62c-2.7-.59-5.81-1.22-7.21-4.38-1.89-4.25.54-10.57-1.84-14.34-2.1-3.32-6.85-2.61-8-6.68-.88-3.08,1.13-6.21,3.11-8.15s4.33-4.11,4.44-7.4c.12-3.68-2.7-6.45-3-10.1a9.17,9.17,0,0,1,3-7.36c1.82-1.63,4-2.38,6-3.4a10.86,10.86,0,0,0,5.33-4.89c1.2-2.44,1.37-5.59,2.51-8.07,1.86-4,6.12-5.32,9.31-3.37s5.24,6.58,5.56,11.31c.29,4.24-.59,8.88,1,12.54,1.37,3.09,4.09,4.46,6.58,5.72s5.19,2.89,6.28,6.18.22,7-1.25,9.89-3.5,5.14-5.18,7.81a15.67,15.67,0,0,0-2.75,9.49c.26,3.16,1.86,6.18,1.27,9.25a10,10,0,0,1-3,4.94l-5.69,6.07a21,21,0,0,1-2.88,2.72,4.89,4.89,0,0,1-4.07,1.1c-2.22-.59-2.68-3.3-3.94-5.35A8.38,8.38,0,0,0,383.88,458.62Z"/><path class="cls-27" d="M428.69,468.7c2.2-.49,4.74-1,5.89-3.59,1.54-3.47-.45-8.63,1.5-11.71,1.71-2.72,5.6-2.14,6.55-5.46.72-2.51-.92-5.08-2.54-6.66s-3.54-3.36-3.62-6c-.1-3,2.2-5.27,2.46-8.25a7.48,7.48,0,0,0-2.48-6,20,20,0,0,0-4.94-2.78,9,9,0,0,1-4.36-4c-1-2-1.11-4.56-2-6.59-1.51-3.29-5-4.35-7.6-2.76s-4.28,5.39-4.54,9.24c-.24,3.47.47,7.27-.85,10.25-1.11,2.53-3.34,3.65-5.38,4.67s-4.24,2.37-5.12,5.05-.18,5.73,1,8.09,2.86,4.2,4.23,6.38a12.85,12.85,0,0,1,2.25,7.75c-.22,2.58-1.53,5.05-1,7.56a8.26,8.26,0,0,0,2.45,4l4.65,5a17.46,17.46,0,0,0,2.35,2.22,4,4,0,0,0,3.33.9c1.81-.48,2.19-2.7,3.22-4.37A6.79,6.79,0,0,1,428.69,468.7Z"/><polygon class="cls-12" points="432.57 440.33 431.86 439.63 424.04 447 423.87 431.37 421.75 431.37 421.71 435.15 414.95 428.71 414.24 429.43 421.68 437.43 421.5 454.1 411.36 444.38 410.65 445.09 421.48 456.37 421.01 498.51 424.61 498.51 424.06 449.3 432.57 440.33"/><path class="cls-27" d="M317.21,474.67c1.75-.39,3.77-.8,4.68-2.85,1.22-2.76-.35-6.86,1.19-9.3,1.36-2.16,4.45-1.7,5.2-4.34.58-2-.73-4-2-5.28s-2.81-2.67-2.88-4.81c-.08-2.38,1.74-4.18,1.95-6.55a5.89,5.89,0,0,0-2-4.77,15.89,15.89,0,0,0-3.92-2.21,7.09,7.09,0,0,1-3.46-3.17c-.77-1.59-.89-3.63-1.63-5.24a4.22,4.22,0,0,0-6-2.19c-2.07,1.27-3.39,4.28-3.6,7.34-.19,2.75.38,5.77-.67,8.14-.89,2-2.65,2.89-4.27,3.71s-3.37,1.88-4.07,4a8.71,8.71,0,0,0,.81,6.42c1,1.87,2.27,3.33,3.36,5.06a10.3,10.3,0,0,1,1.78,6.16c-.17,2.05-1.21,4-.82,6a6.56,6.56,0,0,0,1.94,3.21c1.24,1.31,2.47,2.63,3.7,3.94a14.58,14.58,0,0,0,1.86,1.76,3.2,3.2,0,0,0,2.65.72c1.44-.39,1.73-2.15,2.55-3.47A5.4,5.4,0,0,1,317.21,474.67Z"/><polygon class="cls-12" points="320.29 452.14 319.73 451.58 313.52 457.44 313.38 445.02 311.7 445.02 311.67 448.03 306.3 442.92 305.74 443.48 311.65 449.84 311.5 463.08 303.45 455.36 302.89 455.92 311.48 464.88 311.12 498.34 313.97 498.34 313.54 459.26 320.29 452.14"/><path class="cls-28" d="M358.13,473.11c2.2-.42,4.76-.86,5.91-3.08,1.55-3-.45-7.43,1.5-10.08,1.72-2.33,5.62-1.83,6.58-4.69.72-2.16-.93-4.36-2.55-5.72s-3.55-2.89-3.64-5.21c-.1-2.58,2.21-4.53,2.47-7.09a6,6,0,0,0-2.49-5.17,20.93,20.93,0,0,0-5-2.39,8.57,8.57,0,0,1-4.37-3.44c-1-1.71-1.12-3.92-2.06-5.67a5.72,5.72,0,0,0-7.63-2.37c-2.62,1.38-4.29,4.63-4.56,7.95-.23,3,.48,6.24-.84,8.81-1.12,2.17-3.35,3.14-5.4,4s-4.25,2-5.15,4.34-.17,4.93,1,6.95,2.87,3.62,4.24,5.49a10,10,0,0,1,2.26,6.67c-.21,2.22-1.53,4.34-1,6.5a6.93,6.93,0,0,0,2.46,3.47l4.67,4.27a16.93,16.93,0,0,0,2.35,1.91,4.51,4.51,0,0,0,3.34.77c1.82-.42,2.2-2.32,3.23-3.76A7.14,7.14,0,0,1,358.13,473.11Z"/><polygon class="cls-12" points="362.02 448.72 361.31 448.11 353.46 454.45 353.29 441.01 351.17 441.01 351.12 444.26 344.34 438.73 343.63 439.34 351.1 446.22 350.92 460.56 340.74 452.2 340.03 452.81 350.89 462.51 350.43 498.75 354.03 498.75 353.49 456.43 362.02 448.72"/><polygon class="cls-12" points="409.36 420.6 408.49 419.74 395.61 432.09 395.4 413.03 392.82 413.03 392.77 417.64 380.15 405.53 379.28 406.4 392.74 420.42 392.51 440.76 380.15 428.9 379.28 429.76 392.48 443.52 391.92 494.92 396.3 494.92 395.64 434.9 409.36 420.6"/><path class="cls-27" d="M442,499.9c.49-1.76-1.49-3.29-3.3-3.5s-3.69.29-5.46-.18c-2.8-.75-4.38-3.65-5.53-6.31s-2.4-5.63-5-6.84c-2.17-1-4.7-.54-7.07-.19s-5,.5-6.9-1c-2.07-1.63-2.49-4.66-4.39-6.48s-4.73-2-7.2-1.33a31.05,31.05,0,0,0-6.85,3.35c-2.23,1.24-4.66,2.35-7.21,2.29-2.24-.06-4.35-1-6.56-1.41a12.89,12.89,0,0,0-14.1,17.7,14.07,14.07,0,0,0,4.11,5.3h74.32A2.39,2.39,0,0,0,442,499.9Z"/><path class="cls-28" d="M905.52,498.68c-.56-1.1-1.74-1.72-2.54-2.65-1.79-2.1-1.36-5.27-.55-7.9s1.94-5.42,1.18-8.07c-1.06-3.75-5.49-5.58-9.38-5.33s-7.49,2-11.23,3-8.12,1.31-11.2-1.07c-1.87-1.46-3-3.68-4.73-5.29-3.17-2.91-8-3.33-12.19-2.29a21.68,21.68,0,0,0-13.51,10.78c-1.41,2.62-1.67,5.38-2.68,8.09-.9,2.42-3.36,4.22-2.81,7,.47,2.39,2.54,4,4.73,5.21h65.23A3,3,0,0,0,905.52,498.68Z"/><path class="cls-27" d="M873.28,499c.49-1.76-1.49-3.29-3.31-3.5s-3.69.3-5.45-.18c-2.8-.75-4.39-3.64-5.53-6.31s-2.4-5.62-5-6.84c-2.17-1-4.7-.54-7.06-.18s-5,.49-6.91-1c-2.06-1.62-2.49-4.66-4.39-6.47s-4.73-2-7.19-1.33a30.86,30.86,0,0,0-6.86,3.34,14.27,14.27,0,0,1-7.2,2.29c-2.24-.06-4.36-1-6.56-1.41a12.89,12.89,0,0,0-14.1,17.7,13.88,13.88,0,0,0,4.11,5.3h74.32A2.46,2.46,0,0,0,873.28,499Z"/></g></g></svg>