<svg xmlns="http://www.w3.org/2000/svg" xmlns:xlink="http://www.w3.org/1999/xlink" viewBox="0 0 500 500"><defs><style>.cls-1{fill:url(#radial-gradient);}.cls-2{opacity:0.3;}.cls-11,.cls-12,.cls-13,.cls-3,.cls-4,.cls-5,.cls-6,.cls-7,.cls-8,.cls-9{fill:none;stroke:#d2f7ff;}.cls-13,.cls-3,.cls-4,.cls-5,.cls-9{stroke-miterlimit:10;}.cls-3{stroke-width:0.2px;}.cls-4{stroke-width:3px;}.cls-11,.cls-12,.cls-6,.cls-7,.cls-8{stroke-linecap:round;stroke-linejoin:round;}.cls-7{stroke-dasharray:1 2.01;}.cls-8{stroke-dasharray:1 2.01;}.cls-9{stroke-width:2px;}.cls-10{fill:#d2f7ff;}.cls-11,.cls-12,.cls-13{stroke-width:0.5px;}.cls-11{stroke-dasharray:2 2;}.cls-14{fill:#fff;}.cls-15{fill:#0eb700;}.cls-16{fill:url(#linear-gradient);}.cls-17{fill:url(#linear-gradient-2);}.cls-18{fill:url(#linear-gradient-3);}.cls-19{fill:url(#linear-gradient-4);}.cls-20{fill:url(#linear-gradient-5);}.cls-21{fill:url(#linear-gradient-6);}.cls-22{fill:url(#linear-gradient-7);}.cls-23{fill:url(#linear-gradient-8);}.cls-24{fill:url(#linear-gradient-9);}.cls-25{fill:url(#linear-gradient-10);}.cls-26{fill:url(#linear-gradient-11);}.cls-27{fill:url(#linear-gradient-12);}.cls-28{fill:url(#linear-gradient-13);}.cls-29{fill:url(#linear-gradient-14);}.cls-30{fill:url(#linear-gradient-15);}.cls-31{fill:url(#linear-gradient-16);}.cls-32{fill:url(#linear-gradient-17);}.cls-33{fill:url(#linear-gradient-18);}.cls-34{fill:url(#linear-gradient-19);}.cls-35{fill:url(#linear-gradient-20);}.cls-36{fill:url(#linear-gradient-21);}.cls-37{fill:url(#linear-gradient-22);}.cls-38{fill:url(#linear-gradient-23);}.cls-39{fill:url(#linear-gradient-24);}.cls-40{fill:url(#linear-gradient-25);}.cls-41{fill:url(#linear-gradient-26);}.cls-42{fill:url(#linear-gradient-27);}.cls-43{fill:url(#linear-gradient-28);}.cls-44{fill:url(#linear-gradient-29);}.cls-45{fill:url(#linear-gradient-30);}.cls-46{fill:url(#linear-gradient-31);}.cls-47{fill:url(#linear-gradient-32);}.cls-48{fill:url(#linear-gradient-33);}.cls-49{fill:url(#linear-gradient-34);}.cls-50{fill:url(#linear-gradient-35);}.cls-51{fill:url(#linear-gradient-36);}.cls-52{fill:url(#linear-gradient-37);}.cls-53{fill:url(#linear-gradient-38);}.cls-54{fill:url(#linear-gradient-39);}.cls-55{fill:url(#linear-gradient-40);}.cls-56{fill:url(#linear-gradient-41);}.cls-57{fill:url(#linear-gradient-42);}.cls-58{fill:url(#linear-gradient-43);}.cls-59{fill:url(#linear-gradient-44);}.cls-60{fill:url(#linear-gradient-45);}.cls-61{fill:url(#linear-gradient-46);}.cls-62{fill:url(#linear-gradient-47);}.cls-63{fill:url(#linear-gradient-48);}.cls-64{fill:url(#linear-gradient-49);}.cls-65{fill:url(#linear-gradient-50);}.cls-66{fill:url(#linear-gradient-51);}.cls-67{fill:url(#linear-gradient-52);}.cls-68{fill:url(#linear-gradient-53);}.cls-69{fill:url(#linear-gradient-54);}.cls-70{fill:url(#linear-gradient-55);}.cls-71{fill:url(#linear-gradient-56);}</style><radialGradient id="radial-gradient" cx="250" cy="250" r="250" gradientUnits="userSpaceOnUse"><stop offset="0" stop-color="#006eff"/><stop offset="0.02" stop-color="#006dfd"/><stop offset="0.45" stop-color="#0060d2"/><stop offset="0.8" stop-color="#0058b8"/><stop offset="1" stop-color="#0055ae"/></radialGradient><linearGradient id="linear-gradient" x1="388.66" y1="326.89" x2="405.16" y2="326.89" gradientUnits="userSpaceOnUse"><stop offset="0" stop-color="#272525"/><stop offset="1" stop-color="#042f3b"/></linearGradient><linearGradient id="linear-gradient-2" x1="405.24" y1="329.59" x2="408.06" y2="329.59" xlink:href="#linear-gradient"/><linearGradient id="linear-gradient-3" x1="405.24" y1="331.81" x2="408.06" y2="331.81" xlink:href="#linear-gradient"/><linearGradient id="linear-gradient-4" x1="401.18" y1="330.7" x2="404.96" y2="330.7" xlink:href="#linear-gradient"/><linearGradient id="linear-gradient-5" x1="397.4" y1="319.65" x2="399.32" y2="319.65" xlink:href="#linear-gradient"/><linearGradient id="linear-gradient-6" x1="393.08" y1="315.72" x2="403.65" y2="315.72" xlink:href="#linear-gradient"/><linearGradient id="linear-gradient-7" x1="395.23" y1="317.47" x2="401.49" y2="317.47" xlink:href="#linear-gradient"/><linearGradient id="linear-gradient-8" x1="393.1" y1="148.88" x2="409.6" y2="148.88" xlink:href="#linear-gradient"/><linearGradient id="linear-gradient-9" x1="409.68" y1="151.57" x2="412.5" y2="151.57" xlink:href="#linear-gradient"/><linearGradient id="linear-gradient-10" x1="409.68" y1="153.8" x2="412.5" y2="153.8" xlink:href="#linear-gradient"/><linearGradient id="linear-gradient-11" x1="405.62" y1="152.69" x2="409.4" y2="152.69" xlink:href="#linear-gradient"/><linearGradient id="linear-gradient-12" x1="401.84" y1="141.64" x2="403.76" y2="141.64" xlink:href="#linear-gradient"/><linearGradient id="linear-gradient-13" x1="397.51" y1="137.71" x2="408.09" y2="137.71" xlink:href="#linear-gradient"/><linearGradient id="linear-gradient-14" x1="399.67" y1="139.45" x2="405.93" y2="139.45" xlink:href="#linear-gradient"/><linearGradient id="linear-gradient-15" x1="302.16" y1="246.97" x2="308.92" y2="246.97" xlink:href="#linear-gradient"/><linearGradient id="linear-gradient-16" x1="308.96" y1="248.08" x2="310.11" y2="248.08" xlink:href="#linear-gradient"/><linearGradient id="linear-gradient-17" x1="308.96" y1="248.99" x2="310.11" y2="248.99" xlink:href="#linear-gradient"/><linearGradient id="linear-gradient-18" x1="307.29" y1="248.54" x2="308.84" y2="248.54" xlink:href="#linear-gradient"/><linearGradient id="linear-gradient-19" x1="305.74" y1="244" x2="306.53" y2="244" xlink:href="#linear-gradient"/><linearGradient id="linear-gradient-20" x1="303.97" y1="242.39" x2="308.3" y2="242.39" xlink:href="#linear-gradient"/><linearGradient id="linear-gradient-21" x1="304.85" y1="243.11" x2="307.42" y2="243.11" xlink:href="#linear-gradient"/><linearGradient id="linear-gradient-22" x1="190.97" y1="248.87" x2="197.74" y2="248.87" xlink:href="#linear-gradient"/><linearGradient id="linear-gradient-23" x1="197.78" y1="249.98" x2="198.93" y2="249.98" xlink:href="#linear-gradient"/><linearGradient id="linear-gradient-24" x1="197.78" y1="250.89" x2="198.93" y2="250.89" xlink:href="#linear-gradient"/><linearGradient id="linear-gradient-25" x1="196.11" y1="250.44" x2="197.66" y2="250.44" xlink:href="#linear-gradient"/><linearGradient id="linear-gradient-26" x1="194.56" y1="245.9" x2="195.35" y2="245.9" xlink:href="#linear-gradient"/><linearGradient id="linear-gradient-27" x1="192.79" y1="244.29" x2="197.12" y2="244.29" xlink:href="#linear-gradient"/><linearGradient id="linear-gradient-28" x1="193.67" y1="245.01" x2="196.24" y2="245.01" xlink:href="#linear-gradient"/><linearGradient id="linear-gradient-29" x1="212.42" y1="354.71" x2="219.19" y2="354.71" xlink:href="#linear-gradient"/><linearGradient id="linear-gradient-30" x1="219.22" y1="355.82" x2="220.38" y2="355.82" xlink:href="#linear-gradient"/><linearGradient id="linear-gradient-31" x1="219.22" y1="356.73" x2="220.38" y2="356.73" xlink:href="#linear-gradient"/><linearGradient id="linear-gradient-32" x1="217.56" y1="356.28" x2="219.11" y2="356.28" xlink:href="#linear-gradient"/><linearGradient id="linear-gradient-33" x1="216" y1="351.74" x2="216.79" y2="351.74" xlink:href="#linear-gradient"/><linearGradient id="linear-gradient-34" x1="214.23" y1="350.13" x2="218.57" y2="350.13" xlink:href="#linear-gradient"/><linearGradient id="linear-gradient-35" x1="215.12" y1="350.85" x2="217.68" y2="350.85" xlink:href="#linear-gradient"/><linearGradient id="linear-gradient-36" x1="212.44" y1="168.67" x2="219.21" y2="168.67" xlink:href="#linear-gradient"/><linearGradient id="linear-gradient-37" x1="219.24" y1="169.78" x2="220.4" y2="169.78" xlink:href="#linear-gradient"/><linearGradient id="linear-gradient-38" x1="219.24" y1="170.69" x2="220.4" y2="170.69" xlink:href="#linear-gradient"/><linearGradient id="linear-gradient-39" x1="217.58" y1="170.24" x2="219.13" y2="170.24" xlink:href="#linear-gradient"/><linearGradient id="linear-gradient-40" x1="216.03" y1="165.7" x2="216.82" y2="165.7" xlink:href="#linear-gradient"/><linearGradient id="linear-gradient-41" x1="214.25" y1="164.09" x2="218.59" y2="164.09" xlink:href="#linear-gradient"/><linearGradient id="linear-gradient-42" x1="215.14" y1="164.81" x2="217.71" y2="164.81" xlink:href="#linear-gradient"/><linearGradient id="linear-gradient-43" x1="161.99" y1="150.25" x2="178.49" y2="150.25" xlink:href="#linear-gradient"/><linearGradient id="linear-gradient-44" x1="178.57" y1="152.94" x2="181.39" y2="152.94" xlink:href="#linear-gradient"/><linearGradient id="linear-gradient-45" x1="178.57" y1="155.17" x2="181.39" y2="155.17" xlink:href="#linear-gradient"/><linearGradient id="linear-gradient-46" x1="174.51" y1="154.06" x2="178.28" y2="154.06" xlink:href="#linear-gradient"/><linearGradient id="linear-gradient-47" x1="170.73" y1="143.01" x2="172.65" y2="143.01" xlink:href="#linear-gradient"/><linearGradient id="linear-gradient-48" x1="166.4" y1="139.08" x2="176.97" y2="139.08" xlink:href="#linear-gradient"/><linearGradient id="linear-gradient-49" x1="168.56" y1="140.82" x2="174.82" y2="140.82" xlink:href="#linear-gradient"/><linearGradient id="linear-gradient-50" x1="87.94" y1="260.68" x2="104.44" y2="260.68" xlink:href="#linear-gradient"/><linearGradient id="linear-gradient-51" x1="104.52" y1="263.38" x2="107.34" y2="263.38" xlink:href="#linear-gradient"/><linearGradient id="linear-gradient-52" x1="104.52" y1="265.61" x2="107.34" y2="265.61" xlink:href="#linear-gradient"/><linearGradient id="linear-gradient-53" x1="100.46" y1="264.49" x2="104.24" y2="264.49" xlink:href="#linear-gradient"/><linearGradient id="linear-gradient-54" x1="96.68" y1="253.44" x2="98.6" y2="253.44" xlink:href="#linear-gradient"/><linearGradient id="linear-gradient-55" x1="92.35" y1="249.51" x2="102.93" y2="249.51" xlink:href="#linear-gradient"/><linearGradient id="linear-gradient-56" x1="94.51" y1="251.26" x2="100.77" y2="251.26" xlink:href="#linear-gradient"/></defs><title>plano</title><g id="BACKGROUND"><rect class="cls-1" width="500" height="500"/></g><g id="OBJECTS"><g class="cls-2"><line class="cls-3" x1="37.38" y1="48.94" x2="37.38" y2="443.9"/><line class="cls-3" x1="47.28" y1="48.94" x2="47.28" y2="443.9"/><line class="cls-3" x1="57.18" y1="48.94" x2="57.18" y2="443.9"/><line class="cls-3" x1="67.07" y1="48.94" x2="67.07" y2="443.9"/><line class="cls-3" x1="76.97" y1="48.94" x2="76.97" y2="443.9"/><line class="cls-3" x1="86.87" y1="48.94" x2="86.87" y2="443.9"/><line class="cls-3" x1="96.76" y1="48.94" x2="96.76" y2="443.9"/><line class="cls-3" x1="106.66" y1="48.94" x2="106.66" y2="443.9"/><line class="cls-3" x1="116.56" y1="48.94" x2="116.56" y2="443.9"/><line class="cls-3" x1="126.46" y1="48.94" x2="126.46" y2="443.9"/><line class="cls-3" x1="136.35" y1="48.94" x2="136.35" y2="443.9"/><line class="cls-3" x1="146.25" y1="48.94" x2="146.25" y2="443.9"/><line class="cls-3" x1="156.14" y1="48.94" x2="156.14" y2="443.9"/><line class="cls-3" x1="166.04" y1="48.94" x2="166.04" y2="443.9"/><line class="cls-3" x1="175.94" y1="48.94" x2="175.94" y2="443.9"/><line class="cls-3" x1="185.84" y1="48.94" x2="185.84" y2="443.9"/><line class="cls-3" x1="195.73" y1="48.94" x2="195.73" y2="443.9"/><line class="cls-3" x1="205.63" y1="48.94" x2="205.63" y2="443.9"/><line class="cls-3" x1="215.52" y1="48.94" x2="215.52" y2="443.9"/><line class="cls-3" x1="225.42" y1="48.94" x2="225.42" y2="443.9"/><line class="cls-3" x1="235.32" y1="48.94" x2="235.32" y2="443.9"/><line class="cls-3" x1="245.22" y1="48.94" x2="245.22" y2="443.9"/><line class="cls-3" x1="255.11" y1="48.94" x2="255.11" y2="443.9"/><line class="cls-3" x1="265.01" y1="48.94" x2="265.01" y2="443.9"/><line class="cls-3" x1="274.91" y1="48.94" x2="274.91" y2="443.9"/><line class="cls-3" x1="284.8" y1="48.94" x2="284.8" y2="443.9"/><line class="cls-3" x1="294.7" y1="48.94" x2="294.7" y2="443.9"/><line class="cls-3" x1="304.6" y1="48.94" x2="304.6" y2="443.9"/><line class="cls-3" x1="314.49" y1="48.94" x2="314.49" y2="443.9"/><line class="cls-3" x1="324.39" y1="48.94" x2="324.39" y2="443.9"/><line class="cls-3" x1="334.29" y1="48.94" x2="334.29" y2="443.9"/><line class="cls-3" x1="344.18" y1="48.94" x2="344.18" y2="443.9"/><line class="cls-3" x1="354.08" y1="48.94" x2="354.08" y2="443.9"/><line class="cls-3" x1="363.98" y1="48.94" x2="363.98" y2="443.9"/><line class="cls-3" x1="373.87" y1="48.94" x2="373.87" y2="443.9"/><line class="cls-3" x1="383.77" y1="48.94" x2="383.77" y2="443.9"/><line class="cls-3" x1="393.67" y1="48.94" x2="393.67" y2="443.9"/><line class="cls-3" x1="403.56" y1="48.94" x2="403.56" y2="443.9"/><line class="cls-3" x1="413.46" y1="48.94" x2="413.46" y2="443.9"/><line class="cls-3" x1="423.36" y1="48.94" x2="423.36" y2="443.9"/><line class="cls-3" x1="433.25" y1="48.94" x2="433.25" y2="443.9"/><line class="cls-3" x1="443.15" y1="48.94" x2="443.15" y2="443.9"/><line class="cls-3" x1="453.05" y1="48.94" x2="453.05" y2="443.9"/><line class="cls-3" x1="462.94" y1="48.94" x2="462.94" y2="443.9"/></g><g class="cls-2"><line class="cls-3" x1="25.23" y1="426.9" x2="474.77" y2="426.9"/><line class="cls-3" x1="25.23" y1="416.98" x2="474.77" y2="416.98"/><line class="cls-3" x1="25.23" y1="407.07" x2="474.77" y2="407.07"/><line class="cls-3" x1="25.23" y1="397.15" x2="474.77" y2="397.15"/><line class="cls-3" x1="25.23" y1="387.24" x2="474.77" y2="387.24"/><line class="cls-3" x1="25.23" y1="377.33" x2="474.77" y2="377.33"/><line class="cls-3" x1="25.23" y1="367.41" x2="474.77" y2="367.41"/><line class="cls-3" x1="25.23" y1="357.5" x2="474.77" y2="357.5"/><line class="cls-3" x1="25.23" y1="347.58" x2="474.77" y2="347.58"/><line class="cls-3" x1="25.23" y1="337.67" x2="474.77" y2="337.67"/><line class="cls-3" x1="25.23" y1="327.75" x2="474.77" y2="327.75"/><line class="cls-3" x1="25.23" y1="317.84" x2="474.77" y2="317.84"/><line class="cls-3" x1="25.23" y1="307.92" x2="474.77" y2="307.92"/><line class="cls-3" x1="25.23" y1="298.01" x2="474.77" y2="298.01"/><line class="cls-3" x1="25.23" y1="288.1" x2="474.77" y2="288.1"/><line class="cls-3" x1="25.23" y1="278.18" x2="474.77" y2="278.18"/><line class="cls-3" x1="25.23" y1="268.27" x2="474.77" y2="268.27"/><line class="cls-3" x1="25.23" y1="258.35" x2="474.77" y2="258.35"/><line class="cls-3" x1="25.23" y1="248.44" x2="474.77" y2="248.44"/><line class="cls-3" x1="25.23" y1="238.52" x2="474.77" y2="238.52"/><line class="cls-3" x1="25.23" y1="228.61" x2="474.77" y2="228.61"/><line class="cls-3" x1="25.23" y1="218.69" x2="474.77" y2="218.69"/><line class="cls-3" x1="25.23" y1="208.78" x2="474.77" y2="208.78"/><line class="cls-3" x1="25.23" y1="198.87" x2="474.77" y2="198.87"/><line class="cls-3" x1="25.23" y1="188.95" x2="474.77" y2="188.95"/><line class="cls-3" x1="25.23" y1="179.04" x2="474.77" y2="179.04"/><line class="cls-3" x1="25.23" y1="169.12" x2="474.77" y2="169.12"/><line class="cls-3" x1="25.23" y1="159.21" x2="474.77" y2="159.21"/><line class="cls-3" x1="25.23" y1="149.29" x2="474.77" y2="149.29"/><line class="cls-3" x1="25.23" y1="139.38" x2="474.77" y2="139.38"/><line class="cls-3" x1="25.23" y1="129.46" x2="474.77" y2="129.46"/><line class="cls-3" x1="25.23" y1="119.55" x2="474.77" y2="119.55"/><line class="cls-3" x1="25.23" y1="109.64" x2="474.77" y2="109.64"/><line class="cls-3" x1="25.23" y1="99.72" x2="474.77" y2="99.72"/><line class="cls-3" x1="25.23" y1="89.81" x2="474.77" y2="89.81"/><line class="cls-3" x1="25.23" y1="79.89" x2="474.77" y2="79.89"/><line class="cls-3" x1="25.23" y1="69.98" x2="474.77" y2="69.98"/><line class="cls-3" x1="25.23" y1="60.06" x2="474.77" y2="60.06"/></g><polyline class="cls-4" points="424.62 157.63 424.62 124.11 392.15 124.11"/><line class="cls-4" x1="424.62" y1="270.99" x2="424.62" y2="200.08"/><polyline class="cls-4" points="396.75 349.43 424.62 349.43 424.62 313.44"/><line class="cls-4" x1="352.15" y1="349.43" x2="366.66" y2="349.43"/><line class="cls-4" x1="133.09" y1="349.43" x2="147.59" y2="349.43"/><polyline class="cls-4" points="75.13 306.99 75.13 349.43 103 349.43"/><line class="cls-4" x1="75.13" y1="202.76" x2="75.13" y2="264.55"/><polyline class="cls-4" points="107.6 124.11 75.13 124.11 75.13 175.9"/><line class="cls-4" x1="326.67" y1="124.12" x2="173.08" y2="124.12"/><polyline class="cls-4" points="275.91 364.17 294.2 364.17 294.2 349.43 322.07 349.43"/><polyline class="cls-4" points="205.49 349.43 205.49 364.17 223.77 364.17"/><path class="cls-5" d="M223.77,364.13V336.8s22.82.55,26.07,21.63v5.7Z"/><path class="cls-5" d="M275.91,364.13V336.8s-22.81.55-26.07,21.63v5.7Z"/><line class="cls-4" x1="205.55" y1="349.43" x2="205.55" y2="285.5"/><line class="cls-4" x1="294.2" y1="285.5" x2="294.2" y2="349.43"/><polyline class="cls-4" points="235.65 157.63 205.55 157.63 205.55 265.89"/><polyline class="cls-4" points="255.25 157.63 294.2 157.63 294.2 265.89"/><path class="cls-5" d="M294.2,266.08s17.75-.19,18.91,19.42H294.2"/><line class="cls-6" x1="294.2" y1="286.35" x2="294.2" y2="285.85"/><line class="cls-7" x1="294.2" y1="283.84" x2="294.2" y2="266.77"/><line class="cls-6" x1="294.2" y1="265.76" x2="294.2" y2="265.26"/><path class="cls-5" d="M235.62,157.63s-.19,17.76,19.42,18.92V157.63"/><line class="cls-6" x1="255.9" y1="157.63" x2="255.4" y2="157.63"/><line class="cls-8" x1="253.39" y1="157.63" x2="236.31" y2="157.63"/><line class="cls-6" x1="235.31" y1="157.63" x2="234.81" y2="157.63"/><path class="cls-5" d="M205.55,266.08s-17.75-.19-18.91,19.42h18.91"/><line class="cls-6" x1="205.55" y1="286.35" x2="205.55" y2="285.85"/><line class="cls-7" x1="205.55" y1="283.84" x2="205.55" y2="266.77"/><line class="cls-6" x1="205.55" y1="265.76" x2="205.55" y2="265.26"/><line class="cls-4" x1="313.11" y1="235.53" x2="294.2" y2="235.53"/><line class="cls-4" x1="424.62" y1="235.53" x2="405.71" y2="235.53"/><rect class="cls-5" x="366.66" y="347.91" width="30.08" height="3.04"/><rect class="cls-5" x="423.1" y="270.99" width="3.04" height="42.44"/><rect class="cls-5" x="423.1" y="157.63" width="3.04" height="42.44"/><rect class="cls-5" x="326.67" y="122.59" width="65.48" height="3.04"/><rect class="cls-5" x="107.6" y="122.59" width="65.48" height="3.04"/><rect class="cls-5" x="322.07" y="347.91" width="30.08" height="3.04"/><rect class="cls-5" x="147.59" y="347.91" width="30.09" height="3.04"/><rect class="cls-5" x="73.6" y="264.55" width="3.05" height="42.71"/><rect class="cls-5" x="73.6" y="175.9" width="3.05" height="26.86"/><rect class="cls-5" x="103" y="347.91" width="30.09" height="3.04"/><line class="cls-4" x1="177.68" y1="349.43" x2="204.25" y2="349.43"/><line class="cls-4" x1="205.55" y1="221.06" x2="294.2" y2="221.06"/><line class="cls-4" x1="76.65" y1="237.72" x2="153.7" y2="237.72"/><polyline class="cls-9" points="228.35 258.98 228.35 244.18 271.4 244.18 271.4 258.98"/><line class="cls-5" x1="271.4" y1="253.33" x2="294.2" y2="253.33"/><line class="cls-5" x1="271.4" y1="250.1" x2="294.2" y2="250.1"/><line class="cls-5" x1="271.4" y1="246.87" x2="294.2" y2="246.87"/><line class="cls-5" x1="205.49" y1="253.33" x2="228.29" y2="253.33"/><line class="cls-5" x1="205.49" y1="250.1" x2="228.29" y2="250.1"/><line class="cls-5" x1="205.49" y1="246.87" x2="228.29" y2="246.87"/><line class="cls-5" x1="230.52" y1="244.18" x2="230.52" y2="221.06"/><line class="cls-5" x1="234.39" y1="244.18" x2="234.39" y2="221.06"/><line class="cls-5" x1="238.26" y1="244.18" x2="238.26" y2="221.06"/><line class="cls-5" x1="242.13" y1="244.18" x2="242.13" y2="221.06"/><line class="cls-5" x1="246" y1="244.18" x2="246" y2="221.06"/><line class="cls-5" x1="249.87" y1="244.18" x2="249.87" y2="221.06"/><line class="cls-5" x1="253.75" y1="244.18" x2="253.75" y2="221.06"/><line class="cls-5" x1="257.62" y1="244.18" x2="257.62" y2="221.06"/><line class="cls-5" x1="261.49" y1="244.18" x2="261.49" y2="221.06"/><line class="cls-5" x1="265.36" y1="244.18" x2="265.36" y2="221.06"/><line class="cls-5" x1="269.23" y1="244.18" x2="269.23" y2="221.06"/><polyline class="cls-5" points="216.89 258.98 216.89 233.65 280.18 233.65 280.18 258.98"/><path class="cls-10" d="M218.77,259a1.88,1.88,0,1,1-1.88-1.88A1.88,1.88,0,0,1,218.77,259Z"/><polygon class="cls-10" points="277.69 258.25 280.18 262.57 282.67 258.25 277.69 258.25"/><rect class="cls-5" x="206.97" y="301.48" width="13.63" height="47.95"/><line class="cls-5" x1="206.97" y1="301.48" x2="220.6" y2="349.43"/><line class="cls-5" x1="220.6" y1="301.48" x2="206.97" y2="349.43"/><rect class="cls-5" x="279.36" y="301.48" width="13.63" height="47.95"/><line class="cls-5" x1="279.36" y1="301.48" x2="293" y2="349.43"/><line class="cls-5" x1="293" y1="301.48" x2="279.36" y2="349.43"/><rect class="cls-5" x="348.47" y="263.74" width="22.31" height="57.27"/><path class="cls-5" d="M385.09,277.25a5.65,5.65,0,1,1-5.64-5.65A5.64,5.64,0,0,1,385.09,277.25Z"/><path class="cls-5" d="M385.09,292.37a5.65,5.65,0,1,1-5.64-5.64A5.64,5.64,0,0,1,385.09,292.37Z"/><path class="cls-5" d="M385.09,307.5a5.65,5.65,0,1,1-5.64-5.64A5.64,5.64,0,0,1,385.09,307.5Z"/><path class="cls-5" d="M345,277.25a5.65,5.65,0,1,1-5.64-5.65A5.64,5.64,0,0,1,345,277.25Z"/><path class="cls-5" d="M345,292.37a5.65,5.65,0,1,1-5.64-5.64A5.64,5.64,0,0,1,345,292.37Z"/><path class="cls-5" d="M345,307.5a5.65,5.65,0,1,1-5.64-5.64A5.64,5.64,0,0,1,345,307.5Z"/><rect class="cls-5" x="347.78" y="174.32" width="23.25" height="23.25"/><rect class="cls-5" x="298.99" y="165.96" width="4.66" height="39.97"/><rect class="cls-5" x="390.08" y="164.35" width="16.57" height="4.02" rx="1"/><rect class="cls-5" x="390.08" y="203.52" width="16.57" height="4.02" rx="1"/><rect class="cls-5" x="391.42" y="168.36" width="11.38" height="11.72" rx="1"/><rect class="cls-5" x="402.8" y="168.36" width="3.85" height="11.72" rx="1"/><rect class="cls-5" x="391.42" y="180.08" width="11.38" height="11.72" rx="1"/><rect class="cls-5" x="402.8" y="180.08" width="3.85" height="11.72" rx="1"/><rect class="cls-5" x="391.42" y="191.8" width="11.38" height="11.72" rx="1"/><rect class="cls-5" x="402.8" y="191.8" width="3.85" height="11.72" rx="1"/><rect class="cls-5" x="145.58" y="318.16" width="4.02" height="16.58" rx="1"/><rect class="cls-5" x="171.69" y="292.71" width="16.57" height="4.02" rx="1"/><rect class="cls-5" x="173.04" y="319.5" width="11.72" height="11.39" rx="1"/><rect class="cls-5" x="173.04" y="308.11" width="11.72" height="11.38" rx="1"/><rect class="cls-5" x="173.04" y="296.73" width="11.72" height="11.38" rx="1"/><rect class="cls-5" x="184.76" y="319.5" width="3.5" height="11.39" rx="1"/><rect class="cls-5" x="184.76" y="330.88" width="3.5" height="3.85" rx="1"/><rect class="cls-5" x="184.76" y="308.11" width="3.5" height="11.38" rx="1"/><rect class="cls-5" x="184.76" y="296.73" width="3.5" height="11.38" rx="1"/><rect class="cls-5" x="173.04" y="330.88" width="11.72" height="3.85" rx="1"/><rect class="cls-5" x="161.32" y="319.5" width="11.72" height="11.39" rx="1"/><rect class="cls-5" x="161.32" y="330.88" width="11.72" height="3.85" rx="1"/><rect class="cls-5" x="149.6" y="319.5" width="11.72" height="11.39" rx="1"/><rect class="cls-5" x="149.6" y="330.88" width="11.72" height="3.85" rx="1"/><rect class="cls-5" x="128.02" y="318.16" width="4.02" height="16.58" rx="1"/><rect class="cls-5" x="89.35" y="292.71" width="16.58" height="4.02" rx="1"/><rect class="cls-5" x="92.86" y="319.5" width="11.72" height="11.39" rx="1"/><rect class="cls-5" x="92.86" y="308.11" width="11.72" height="11.38" rx="1"/><rect class="cls-5" x="92.86" y="296.73" width="11.72" height="11.38" rx="1"/><rect class="cls-5" x="89.35" y="319.5" width="3.5" height="11.39" rx="1"/><rect class="cls-5" x="89.35" y="330.88" width="3.5" height="3.85" rx="1"/><rect class="cls-5" x="89.35" y="308.11" width="3.5" height="11.38" rx="1"/><rect class="cls-5" x="89.35" y="296.73" width="3.5" height="11.38" rx="1"/><rect class="cls-5" x="92.86" y="330.88" width="11.72" height="3.85" rx="1"/><rect class="cls-5" x="104.58" y="319.5" width="11.72" height="11.39" rx="1"/><rect class="cls-5" x="104.58" y="330.88" width="11.72" height="3.85" rx="1"/><rect class="cls-5" x="116.3" y="319.5" width="11.72" height="11.39" rx="1"/><rect class="cls-5" x="116.3" y="330.88" width="11.72" height="3.85" rx="1"/><rect class="cls-5" x="337.81" y="140.88" width="4.02" height="16.58" rx="1"/><rect class="cls-5" x="376.99" y="140.88" width="4.02" height="16.58" rx="1"/><rect class="cls-5" x="341.83" y="144.73" width="11.72" height="11.38" rx="1"/><rect class="cls-5" x="341.83" y="140.88" width="11.72" height="3.85" rx="1"/><rect class="cls-5" x="353.55" y="144.73" width="11.72" height="11.38" rx="1"/><rect class="cls-5" x="353.55" y="140.88" width="11.72" height="3.85" rx="1"/><rect class="cls-5" x="365.27" y="144.73" width="11.72" height="11.38" rx="1"/><rect class="cls-5" x="365.27" y="140.88" width="11.72" height="3.85" rx="1"/><path class="cls-5" d="M153.18,287.78a14.37,14.37,0,1,1-14.37-14.37A14.37,14.37,0,0,1,153.18,287.78Z"/><rect class="cls-5" x="116.78" y="239.29" width="33.94" height="12.29"/><rect class="cls-5" x="81.15" y="239.29" width="33.94" height="12.29"/><rect class="cls-5" x="119.16" y="242.12" width="29.19" height="4.2"/><rect class="cls-5" x="76.65" y="204.12" width="15.55" height="32.47"/><rect class="cls-5" x="81.27" y="216.44" width="6.68" height="6.68" rx="1"/><rect class="cls-5" x="81.27" y="224.9" width="6.68" height="6.68" rx="1"/><line class="cls-5" x1="81.61" y1="207.66" x2="81.61" y2="214.5"/><line class="cls-5" x1="83.11" y1="207.66" x2="83.11" y2="214.5"/><line class="cls-5" x1="84.6" y1="207.66" x2="84.6" y2="214.5"/><line class="cls-5" x1="86.1" y1="207.66" x2="86.1" y2="214.5"/><line class="cls-5" x1="87.59" y1="207.66" x2="87.59" y2="214.5"/><rect class="cls-5" x="78.2" y="205.48" width="12.46" height="29.73"/><rect class="cls-5" x="76.14" y="134.33" width="15.94" height="16.1"/><path class="cls-5" d="M83.61,138.88a2.67,2.67,0,1,1-2.67-2.67A2.66,2.66,0,0,1,83.61,138.88Z"/><path class="cls-5" d="M82.24,138.88a1.3,1.3,0,1,1-1.3-1.3A1.3,1.3,0,0,1,82.24,138.88Z"/><path class="cls-5" d="M83.61,145.88a2.67,2.67,0,1,1-2.67-2.67A2.67,2.67,0,0,1,83.61,145.88Z"/><path class="cls-5" d="M82.24,145.88a1.3,1.3,0,1,1-1.3-1.3A1.3,1.3,0,0,1,82.24,145.88Z"/><path class="cls-5" d="M90.52,138.88a2.67,2.67,0,1,1-2.67-2.67A2.67,2.67,0,0,1,90.52,138.88Z"/><path class="cls-5" d="M89.15,138.88a1.3,1.3,0,1,1-1.3-1.3A1.3,1.3,0,0,1,89.15,138.88Z"/><path class="cls-5" d="M90.52,145.88a2.67,2.67,0,1,1-2.67-2.67A2.68,2.68,0,0,1,90.52,145.88Z"/><path class="cls-5" d="M89.15,145.88a1.3,1.3,0,1,1-1.3-1.3A1.3,1.3,0,0,1,89.15,145.88Z"/><rect class="cls-5" x="76.14" y="150.42" width="15.94" height="16.1"/><line class="cls-4" x1="188.26" y1="237.72" x2="205.49" y2="237.72"/><rect class="cls-5" x="122.19" y="185.94" width="36.3" height="28.56"/><rect class="cls-5" x="129.77" y="150.01" width="21.14" height="35.93"/><path class="cls-5" d="M161,179.59a3.94,3.94,0,1,1-3.94-3.94A3.94,3.94,0,0,1,161,179.59Z"/><path class="cls-5" d="M161,168.27a3.94,3.94,0,1,1-3.94-3.93A3.94,3.94,0,0,1,161,168.27Z"/><path class="cls-5" d="M161,157A3.94,3.94,0,1,1,157,153,3.94,3.94,0,0,1,161,157Z"/><path class="cls-5" d="M127.57,179.59a3.94,3.94,0,1,1-3.93-3.94A3.93,3.93,0,0,1,127.57,179.59Z"/><path class="cls-5" d="M127.57,168.27a3.94,3.94,0,1,1-3.93-3.93A3.93,3.93,0,0,1,127.57,168.27Z"/><path class="cls-5" d="M127.57,157a3.94,3.94,0,1,1-3.93-3.94A3.93,3.93,0,0,1,127.57,157Z"/><rect class="cls-5" x="189.95" y="221.06" width="14.27" height="15.53"/><line class="cls-5" x1="189.95" y1="221.06" x2="204.23" y2="236.59"/><line class="cls-5" x1="204.23" y1="221.06" x2="189.95" y2="236.59"/><rect class="cls-5" x="189.95" y="205.48" width="14.27" height="15.53"/><line class="cls-5" x1="189.95" y1="205.48" x2="204.23" y2="221.02"/><line class="cls-5" x1="204.23" y1="205.48" x2="189.95" y2="221.02"/><rect class="cls-5" x="189.95" y="189.91" width="14.27" height="15.53"/><line class="cls-5" x1="189.95" y1="189.91" x2="204.23" y2="205.45"/><line class="cls-5" x1="204.23" y1="189.91" x2="189.95" y2="205.45"/><rect class="cls-5" x="189.95" y="174.34" width="14.27" height="15.53"/><line class="cls-5" x1="189.95" y1="174.34" x2="204.23" y2="189.88"/><line class="cls-5" x1="204.23" y1="174.34" x2="189.95" y2="189.88"/><rect class="cls-5" x="189.95" y="158.77" width="14.27" height="15.53"/><line class="cls-5" x1="189.95" y1="158.77" x2="204.23" y2="174.3"/><line class="cls-5" x1="204.23" y1="158.77" x2="189.95" y2="174.3"/><rect class="cls-5" x="207.65" y="158.77" width="17.54" height="15.45"/><path class="cls-5" d="M223.23,166.5c0,2.35-3,4.26-6.81,4.26s-6.81-1.91-6.81-4.26,3-4.26,6.81-4.26S223.23,164.15,223.23,166.5Z"/><rect class="cls-5" x="275.6" y="213.98" width="10.05" height="5.9" rx="1"/><path class="cls-5" d="M281.77,217.24a1.15,1.15,0,1,1-1.15-1.15A1.16,1.16,0,0,1,281.77,217.24Z"/><path class="cls-5" d="M276.86,214v-5.45s0-4.8,3.76-4.8c3.24,0,3.66,4.11,3.66,4.64V214"/><path class="cls-5" d="M282.82,208.46c0,1.84-1,3.33-2.25,3.33s-2.24-1.49-2.24-3.33,1-3.34,2.24-3.34S282.82,206.62,282.82,208.46Z"/><polyline class="cls-4" points="260.23 157.63 260.23 187.1 269.23 187.1"/><line class="cls-4" x1="294.2" y1="187.1" x2="288.53" y2="187.1"/><path class="cls-5" d="M206.91,197.57v22.21h21.38S229.14,197.57,206.91,197.57Z"/><path class="cls-5" d="M208.23,199.78v18.64h17.93S226.88,199.78,208.23,199.78Z"/><path class="cls-5" d="M210,203.31v12.24a1,1,0,0,0,1,1h10.74a1.06,1.06,0,0,0,1-1S223.28,203.31,210,203.31Z"/><rect class="cls-11" x="231.32" y="258.98" width="37.11" height="87.38"/><polyline class="cls-11" points="301.32 264.29 301.32 242.21 417.44 242.21 417.44 341.37 301.32 341.37 301.32 290.91"/><rect class="cls-11" x="103" y="134.33" width="74.68" height="97.25"/><rect class="cls-11" x="313.11" y="134.33" width="102.05" height="94.49"/><rect class="cls-11" x="206.91" y="134.33" width="87.28" height="16.1"/><rect class="cls-11" x="265.36" y="162.24" width="23.17" height="19.87"/><line class="cls-12" x1="73.44" y1="108.73" x2="73.44" y2="114.06"/><line class="cls-12" x1="73.44" y1="88.79" x2="73.44" y2="94.11"/><line class="cls-12" x1="107.44" y1="108.73" x2="107.44" y2="114.06"/><line class="cls-12" x1="172.88" y1="108.73" x2="172.88" y2="114.06"/><line class="cls-12" x1="326.5" y1="108.73" x2="326.5" y2="114.06"/><line class="cls-12" x1="391.99" y1="108.73" x2="391.99" y2="114.06"/><line class="cls-12" x1="425.98" y1="108.73" x2="425.98" y2="114.06"/><line class="cls-12" x1="425.98" y1="88.79" x2="425.98" y2="94.11"/><line class="cls-12" x1="425.98" y1="363.12" x2="425.98" y2="357.8"/><line class="cls-12" x1="396.58" y1="363.12" x2="396.58" y2="357.8"/><line class="cls-12" x1="366.5" y1="363.12" x2="366.5" y2="357.8"/><line class="cls-12" x1="351.99" y1="363.12" x2="351.99" y2="357.8"/><line class="cls-12" x1="321.91" y1="363.12" x2="321.91" y2="357.8"/><line class="cls-12" x1="73.44" y1="111.4" x2="425.98" y2="111.4"/><line class="cls-12" x1="439.12" y1="122.59" x2="433.79" y2="122.59"/><line class="cls-12" x1="433.79" y1="157.45" x2="439.12" y2="157.45"/><line class="cls-12" x1="433.79" y1="200.08" x2="439.12" y2="200.08"/><line class="cls-12" x1="433.79" y1="270.99" x2="439.12" y2="270.99"/><line class="cls-12" x1="433.79" y1="313.15" x2="439.12" y2="313.15"/><line class="cls-12" x1="433.79" y1="350.95" x2="439.12" y2="350.95"/><line class="cls-12" x1="454.95" y1="122.59" x2="449.62" y2="122.59"/><line class="cls-12" x1="449.62" y1="350.95" x2="454.95" y2="350.95"/><line class="cls-12" x1="436.46" y1="122.59" x2="436.46" y2="350.95"/><line class="cls-12" x1="65.95" y1="122.59" x2="60.63" y2="122.59"/><line class="cls-12" x1="60.63" y1="175.9" x2="65.95" y2="175.9"/><line class="cls-12" x1="60.63" y1="202.76" x2="65.95" y2="202.76"/><line class="cls-12" x1="60.63" y1="264.55" x2="65.95" y2="264.55"/><line class="cls-12" x1="60.63" y1="306.99" x2="65.95" y2="306.99"/><line class="cls-12" x1="60.63" y1="350.95" x2="65.95" y2="350.95"/><line class="cls-12" x1="63.29" y1="122.59" x2="63.29" y2="350.95"/><line class="cls-12" x1="425.98" y1="360.46" x2="294.03" y2="360.46"/><line class="cls-12" x1="74.2" y1="363.12" x2="74.2" y2="357.8"/><line class="cls-12" x1="103.6" y1="363.12" x2="103.6" y2="357.8"/><line class="cls-12" x1="133.68" y1="363.12" x2="133.68" y2="357.8"/><line class="cls-12" x1="148.19" y1="363.12" x2="148.19" y2="357.8"/><line class="cls-12" x1="178.27" y1="363.12" x2="178.27" y2="357.8"/><line class="cls-12" x1="205.33" y1="376.85" x2="205.33" y2="371.53"/><line class="cls-12" x1="223.61" y1="376.85" x2="223.61" y2="371.53"/><line class="cls-12" x1="275.75" y1="376.85" x2="275.75" y2="371.53"/><line class="cls-12" x1="294.03" y1="376.85" x2="294.03" y2="371.53"/><line class="cls-12" x1="205.33" y1="394.76" x2="205.33" y2="389.43"/><line class="cls-12" x1="294.03" y1="394.76" x2="294.03" y2="389.43"/><line class="cls-12" x1="425.98" y1="394.76" x2="425.98" y2="389.43"/><line class="cls-12" x1="74.2" y1="394.76" x2="74.2" y2="389.43"/><line class="cls-12" x1="74.2" y1="360.46" x2="206.15" y2="360.46"/><line class="cls-12" x1="205.33" y1="374.19" x2="294.03" y2="374.19"/><line class="cls-13" x1="73.44" y1="91.45" x2="425.98" y2="91.45"/><path class="cls-10" d="M73.89,91.45l.55-.9,0,0-1.47.58-1.54.34,1.54.34,1.47.58h0Z"/><polygon class="cls-10" points="427.74 91.45 425.26 92.47 425.85 91.45 425.26 90.43 427.74 91.45"/><line class="cls-13" x1="205.33" y1="392.1" x2="294.03" y2="392.1"/><path class="cls-10" d="M205.78,392.1l.55-.9,0,0-1.47.59-1.54.34,1.54.33,1.47.59,0,0Z"/><polygon class="cls-10" points="295.8 392.1 293.31 393.11 293.9 392.1 293.31 391.08 295.8 392.1"/><line class="cls-13" x1="294.03" y1="392.1" x2="425.98" y2="392.1"/><path class="cls-10" d="M294.48,392.1l.55-.9,0,0-1.47.59-1.53.34,1.53.33L295,393l0,0Z"/><polygon class="cls-10" points="427.74 392.1 425.26 393.11 425.85 392.1 425.26 391.08 427.74 392.1"/><line class="cls-13" x1="452.29" y1="350.95" x2="452.29" y2="122.59"/><path class="cls-10" d="M452.29,350.5l-.91-.54,0,0,.59,1.47c.11.51.22,1,.34,1.53l.33-1.53.59-1.47,0,0Z"/><polygon class="cls-10" points="452.29 120.83 453.3 123.31 452.29 122.72 451.27 123.31 452.29 120.83"/><line class="cls-13" x1="74.2" y1="392.1" x2="206.15" y2="392.1"/><path class="cls-10" d="M74.65,392.1l.55-.9,0,0-1.47.59-1.54.34,1.54.33,1.47.59,0,0Z"/><polygon class="cls-10" points="207.91 392.1 205.43 393.11 206.02 392.1 205.43 391.08 207.91 392.1"/><rect class="cls-5" x="25.23" y="48.24" width="449.54" height="395.66"/><rect class="cls-5" x="30.2" y="53.22" width="439.59" height="385.7"/><path class="cls-14" d="M390.09,345.16h16.55l11.7-11.7V316.92l-11.7-11.7H390.09l-11.7,11.7v16.54Z"/><path class="cls-15" d="M406.89,345.77H389.84l-12-12.06v-17l12-12.06h17.05l12.05,12.06v17Zm-16.8-.61h16.55l11.7-11.7V316.92l-11.7-11.7H390.09l-11.7,11.7v16.54Z"/><path class="cls-16" d="M403.05,322.88H392.19v.4h10.86a1.71,1.71,0,1,1,0,3.41H390.77a2.11,2.11,0,1,0,0,4.21h10.87v-.4H390.77a1.71,1.71,0,0,1,0-3.41h12.28a2.11,2.11,0,1,0,0-4.21Z"/><path class="cls-17" d="M408.06,329.59h0a.23.23,0,0,0-.23-.24h-2.59v.47h2.59A.23.23,0,0,0,408.06,329.59Z"/><path class="cls-18" d="M408.06,331.81h0a.23.23,0,0,0-.23-.23h-2.59v.47h2.59A.23.23,0,0,0,408.06,331.81Z"/><path class="cls-19" d="M404.4,328.39v.45H403a1.46,1.46,0,0,0-1.46,1.31h-.36v1.1h.36a1.46,1.46,0,0,0,1.46,1.31h1.4V333H405v-4.62Z"/><path class="cls-20" d="M398.36,318.69a1,1,0,1,0,1,1A1,1,0,0,0,398.36,318.69Z"/><path class="cls-21" d="M398.36,313.79a5.83,5.83,0,0,0-5.24,3.24.43.43,0,0,0,.52.6.42.42,0,0,0,.25-.22,5,5,0,0,1,8.94,0,.44.44,0,0,0,.39.24.41.41,0,0,0,.19,0,.45.45,0,0,0,.22-.25.4.4,0,0,0,0-.32h0A5.83,5.83,0,0,0,398.36,313.79Z"/><path class="cls-22" d="M398.36,317.06a2.58,2.58,0,0,1,2.32,1.43.42.42,0,0,0,.25.22.43.43,0,0,0,.33,0,.45.45,0,0,0,.21-.24.42.42,0,0,0,0-.33,3.45,3.45,0,0,0-6.17,0,.42.42,0,0,0,.19.57.34.34,0,0,0,.19.05.43.43,0,0,0,.39-.24A2.58,2.58,0,0,1,398.36,317.06Z"/><path class="cls-14" d="M394.53,167.15h16.54l11.7-11.7V138.9l-11.7-11.7H394.53l-11.7,11.7v16.55Z"/><path class="cls-15" d="M411.32,167.75h-17L382.22,155.7v-17l12.06-12.05h17l12.06,12.05v17Zm-16.79-.6h16.54l11.7-11.7V138.9l-11.7-11.7H394.53l-11.7,11.7v16.55Z"/><path class="cls-23" d="M407.49,144.86H396.63v.41h10.86a1.7,1.7,0,0,1,0,3.4H395.21a2.11,2.11,0,1,0,0,4.22h10.86v-.41H395.21a1.7,1.7,0,0,1,0-3.4h12.28a2.11,2.11,0,1,0,0-4.22Z"/><path class="cls-24" d="M412.5,151.57h0a.23.23,0,0,0-.24-.23h-2.58v.47h2.58A.24.24,0,0,0,412.5,151.57Z"/><path class="cls-25" d="M412.5,153.8h0a.23.23,0,0,0-.24-.23h-2.58V154h2.58A.24.24,0,0,0,412.5,153.8Z"/><path class="cls-26" d="M408.84,150.38v.45h-1.4a1.47,1.47,0,0,0-1.47,1.31h-.35v1.1H406a1.48,1.48,0,0,0,1.47,1.31h1.4V155h.56v-4.62Z"/><path class="cls-27" d="M402.8,140.68a1,1,0,1,0,1,1A1,1,0,0,0,402.8,140.68Z"/><path class="cls-28" d="M402.8,135.78a5.84,5.84,0,0,0-5.24,3.23.43.43,0,0,0,.19.58.42.42,0,0,0,.33,0,.4.4,0,0,0,.25-.21,5,5,0,0,1,8.94,0,.42.42,0,0,0,.39.24.45.45,0,0,0,.19,0,.4.4,0,0,0,.21-.25.42.42,0,0,0,0-.33h0A5.84,5.84,0,0,0,402.8,135.78Z"/><path class="cls-29" d="M402.8,139.05a2.58,2.58,0,0,1,2.31,1.43.49.49,0,0,0,.25.22.47.47,0,0,0,.33,0,.45.45,0,0,0,.22-.25.43.43,0,0,0,0-.33,3.45,3.45,0,0,0-6.16,0,.43.43,0,0,0,.19.58.41.41,0,0,0,.19.05.42.42,0,0,0,.38-.24A2.59,2.59,0,0,1,402.8,139.05Z"/><path class="cls-14" d="M302.74,254.47h6.79l4.8-4.8v-6.79l-4.8-4.8h-6.79l-4.8,4.8v6.79Z"/><path class="cls-15" d="M309.63,254.72h-7l-4.95-4.95v-7l4.95-4.95h7l4.95,4.95v7Zm-6.89-.25h6.79l4.8-4.8v-6.79l-4.8-4.8h-6.79l-4.8,4.8v6.79Z"/><path class="cls-30" d="M308.06,245.33H303.6v.16h4.46a.7.7,0,0,1,0,1.4h-5a.87.87,0,0,0,0,1.73h4.46v-.17H303a.7.7,0,1,1,0-1.39h5a.87.87,0,0,0,0-1.73Z"/><path class="cls-31" d="M310.11,248.08h0a.1.1,0,0,0-.09-.1H309v.2H310A.1.1,0,0,0,310.11,248.08Z"/><path class="cls-32" d="M310.11,249h0a.09.09,0,0,0-.09-.09H309v.19H310A.09.09,0,0,0,310.11,249Z"/><path class="cls-33" d="M308.61,247.59v.18H308a.61.61,0,0,0-.6.54h-.15v.45h.15a.6.6,0,0,0,.6.54h.57v.19h.23v-1.9Z"/><path class="cls-34" d="M306.14,243.61a.4.4,0,1,0,.39.39A.4.4,0,0,0,306.14,243.61Z"/><path class="cls-35" d="M306.14,241.6a2.39,2.39,0,0,0-2.15,1.33.17.17,0,0,0,.07.23.14.14,0,0,0,.14,0,.16.16,0,0,0,.1-.08,2,2,0,0,1,3.67,0,.17.17,0,0,0,.16.09.12.12,0,0,0,.08,0,.18.18,0,0,0,.09-.1.2.2,0,0,0,0-.13h0A2.41,2.41,0,0,0,306.14,241.6Z"/><path class="cls-36" d="M306.14,242.94a1.05,1.05,0,0,1,.94.59.24.24,0,0,0,.11.09.2.2,0,0,0,.13,0,.18.18,0,0,0,.09-.1.17.17,0,0,0,0-.14,1.42,1.42,0,0,0-2.53,0,.18.18,0,0,0,.08.24l.08,0a.19.19,0,0,0,.16-.1A1.06,1.06,0,0,1,306.14,242.94Z"/><path class="cls-14" d="M191.56,256.37h6.79l4.8-4.8v-6.79l-4.8-4.8h-6.79l-4.8,4.8v6.79Z"/><path class="cls-15" d="M198.45,256.62h-7l-5-5v-7l5-5h7l5,5v7Zm-6.89-.25h6.79l4.8-4.8v-6.79l-4.8-4.8h-6.79l-4.8,4.8v6.79Z"/><path class="cls-37" d="M196.88,247.23h-4.46v.16h4.46a.7.7,0,0,1,0,1.4h-5a.87.87,0,1,0,0,1.73h4.46v-.17h-4.46a.7.7,0,1,1,0-1.39h5a.87.87,0,0,0,0-1.73Z"/><path class="cls-38" d="M198.93,250h0a.1.1,0,0,0-.09-.1h-1.06v.2h1.06A.1.1,0,0,0,198.93,250Z"/><path class="cls-39" d="M198.93,250.89h0a.09.09,0,0,0-.09-.09h-1.06V251h1.06A.09.09,0,0,0,198.93,250.89Z"/><path class="cls-40" d="M197.43,249.49v.18h-.57a.6.6,0,0,0-.6.54h-.15v.45h.15a.59.59,0,0,0,.6.54h.57v.19h.23v-1.9Z"/><path class="cls-41" d="M195,245.51a.4.4,0,0,0,0,.79.4.4,0,1,0,0-.79Z"/><path class="cls-42" d="M195,243.5a2.41,2.41,0,0,0-2.15,1.33.18.18,0,0,0,.08.23.14.14,0,0,0,.14,0,.16.16,0,0,0,.1-.08,2,2,0,0,1,3.67,0,.17.17,0,0,0,.16.09.13.13,0,0,0,.08,0,.14.14,0,0,0,.08-.1.12.12,0,0,0,0-.13h0A2.39,2.39,0,0,0,195,243.5Z"/><path class="cls-43" d="M195,244.84a1.06,1.06,0,0,1,1,.59.24.24,0,0,0,.11.09.2.2,0,0,0,.13,0,.18.18,0,0,0,.08-.24,1.42,1.42,0,0,0-2.53,0,.18.18,0,0,0,.08.24l.08,0a.18.18,0,0,0,.15-.1A1.08,1.08,0,0,1,195,244.84Z"/><path class="cls-14" d="M213,362.21h6.79l4.8-4.8v-6.79l-4.8-4.8H213l-4.8,4.8v6.79Z"/><path class="cls-15" d="M219.9,362.46h-7L208,357.51v-7l4.94-4.95h7l4.94,4.95v7Zm-6.9-.25h6.79l4.8-4.8v-6.79l-4.8-4.8H213l-4.8,4.8v6.79Z"/><path class="cls-44" d="M218.32,353.07h-4.45v.16h4.45a.7.7,0,1,1,0,1.4h-5a.87.87,0,0,0,0,1.73h4.46v-.17h-4.46a.7.7,0,0,1,0-1.39h5a.87.87,0,1,0,0-1.73Z"/><path class="cls-45" d="M220.38,355.82h0a.1.1,0,0,0-.1-.1h-1.06v.2h1.06A.1.1,0,0,0,220.38,355.82Z"/><path class="cls-46" d="M220.38,356.73h0a.09.09,0,0,0-.1-.09h-1.06v.19h1.06A.09.09,0,0,0,220.38,356.73Z"/><path class="cls-47" d="M218.88,355.33v.18h-.58a.61.61,0,0,0-.6.54h-.14v.45h.14a.6.6,0,0,0,.6.54h.58v.19h.23v-1.9Z"/><path class="cls-48" d="M216.4,351.35a.4.4,0,1,0,0,.79.4.4,0,0,0,0-.79Z"/><path class="cls-49" d="M216.4,349.34a2.39,2.39,0,0,0-2.15,1.33.17.17,0,0,0,.08.23.12.12,0,0,0,.13,0,.14.14,0,0,0,.1-.08,2.07,2.07,0,0,1,1.84-1.14,2,2,0,0,1,1.83,1.14.17.17,0,0,0,.16.09.11.11,0,0,0,.08,0,.18.18,0,0,0,.09-.1.2.2,0,0,0,0-.13h0A2.4,2.4,0,0,0,216.4,349.34Z"/><path class="cls-50" d="M216.4,350.68a1.07,1.07,0,0,1,.95.59.22.22,0,0,0,.1.09.23.23,0,0,0,.14,0,.16.16,0,0,0,.08-.1.14.14,0,0,0,0-.14,1.4,1.4,0,0,0-1.26-.78,1.43,1.43,0,0,0-1.27.78.19.19,0,0,0,.08.24l.08,0a.18.18,0,0,0,.16-.1A1.07,1.07,0,0,1,216.4,350.68Z"/><path class="cls-14" d="M213,176.17h6.79l4.8-4.8v-6.79l-4.8-4.8H213l-4.8,4.8v6.79Z"/><path class="cls-15" d="M219.92,176.42h-7L208,171.47v-7l4.94-4.95h7l4.94,4.95v7Zm-6.89-.25h6.79l4.8-4.8v-6.79l-4.8-4.8H213l-4.8,4.8v6.79Z"/><path class="cls-51" d="M218.35,167h-4.46v.16h4.46a.7.7,0,0,1,0,1.4h-5a.87.87,0,1,0,0,1.73h4.46v-.17h-4.46a.7.7,0,1,1,0-1.39h5a.87.87,0,0,0,0-1.73Z"/><path class="cls-52" d="M220.4,169.78h0a.1.1,0,0,0-.1-.1h-1.06v.2h1.06A.1.1,0,0,0,220.4,169.78Z"/><path class="cls-53" d="M220.4,170.69h0a.09.09,0,0,0-.1-.09h-1.06v.19h1.06A.09.09,0,0,0,220.4,170.69Z"/><path class="cls-54" d="M218.9,169.29v.18h-.58a.61.61,0,0,0-.6.54h-.14v.45h.14a.61.61,0,0,0,.6.54h.58v.18h.23v-1.89Z"/><path class="cls-55" d="M216.42,165.31a.4.4,0,0,0,0,.79.4.4,0,1,0,0-.79Z"/><path class="cls-56" d="M216.42,163.3a2.4,2.4,0,0,0-2.15,1.33.17.17,0,0,0,.08.23.15.15,0,0,0,.13,0,.14.14,0,0,0,.11-.09,2.05,2.05,0,0,1,3.67,0,.18.18,0,0,0,.15.1.11.11,0,0,0,.08,0,.13.13,0,0,0,.09-.1.15.15,0,0,0,0-.13h0A2.39,2.39,0,0,0,216.42,163.3Z"/><path class="cls-57" d="M216.42,164.64a1.06,1.06,0,0,1,1,.59.18.18,0,0,0,.24.08.2.2,0,0,0,.09-.11.2.2,0,0,0,0-.13,1.43,1.43,0,0,0-1.27-.78,1.4,1.4,0,0,0-1.26.78.18.18,0,0,0,.07.24l.08,0a.18.18,0,0,0,.16-.1A1.07,1.07,0,0,1,216.42,164.64Z"/><path class="cls-14" d="M163.41,168.52H180l11.7-11.7V140.27L180,128.57H163.41l-11.7,11.7v16.55Z"/><path class="cls-15" d="M180.21,169.12H163.16l-12-12.05V140l12-12.05h17.05L192.27,140v17Zm-16.8-.6H180l11.7-11.7V140.27L180,128.57H163.41l-11.7,11.7v16.55Z"/><path class="cls-58" d="M176.38,146.23H165.51v.41h10.87a1.7,1.7,0,0,1,0,3.4H164.1a2.11,2.11,0,0,0,0,4.22H175v-.41H164.1a1.7,1.7,0,1,1,0-3.4h12.28a2.11,2.11,0,0,0,0-4.22Z"/><path class="cls-59" d="M181.39,152.94h0a.23.23,0,0,0-.24-.23h-2.58v.47h2.58A.24.24,0,0,0,181.39,152.94Z"/><path class="cls-60" d="M181.39,155.17h0a.23.23,0,0,0-.24-.23h-2.58v.47h2.58A.24.24,0,0,0,181.39,155.17Z"/><path class="cls-61" d="M177.73,151.75v.45h-1.41a1.47,1.47,0,0,0-1.46,1.31h-.35v1.1h.35a1.48,1.48,0,0,0,1.46,1.31h1.41v.45h.55v-4.62Z"/><path class="cls-62" d="M171.69,142.05a1,1,0,1,0,1,1A1,1,0,0,0,171.69,142.05Z"/><path class="cls-63" d="M171.69,137.15a5.84,5.84,0,0,0-5.24,3.23.43.43,0,0,0,.19.58.42.42,0,0,0,.33,0,.4.4,0,0,0,.25-.21,5,5,0,0,1,8.94,0,.42.42,0,0,0,.38.24.46.46,0,0,0,.2,0,.4.4,0,0,0,.21-.25.42.42,0,0,0,0-.33h0A5.84,5.84,0,0,0,171.69,137.15Z"/><path class="cls-64" d="M171.69,140.42a2.58,2.58,0,0,1,2.31,1.43.45.45,0,0,0,.25.22.47.47,0,0,0,.33,0,.45.45,0,0,0,.22-.25.47.47,0,0,0,0-.33,3.45,3.45,0,0,0-6.17,0,.43.43,0,0,0,.2.58.41.41,0,0,0,.19.05.42.42,0,0,0,.38-.24A2.59,2.59,0,0,1,171.69,140.42Z"/><path class="cls-14" d="M89.37,279h16.54l11.7-11.71V250.71L105.91,239H89.37l-11.7,11.7v16.54Z"/><path class="cls-15" d="M106.16,279.56h-17L77.06,267.5v-17L89.12,238.4h17l12.06,12.06v17ZM89.37,279h16.54l11.7-11.71V250.71L105.91,239H89.37l-11.7,11.7v16.54Z"/><path class="cls-65" d="M102.33,256.67H91.47v.4h10.86a1.71,1.71,0,0,1,0,3.41H90.05a2.11,2.11,0,1,0,0,4.21h10.86v-.4H90.05a1.71,1.71,0,0,1,0-3.41h12.28a2.11,2.11,0,1,0,0-4.21Z"/><path class="cls-66" d="M107.34,263.38h0a.24.24,0,0,0-.24-.24h-2.58v.47h2.58A.23.23,0,0,0,107.34,263.38Z"/><path class="cls-67" d="M107.34,265.61h0a.24.24,0,0,0-.24-.24h-2.58v.47h2.58A.23.23,0,0,0,107.34,265.61Z"/><path class="cls-68" d="M103.68,262.18v.45h-1.4a1.48,1.48,0,0,0-1.47,1.31h-.35V265h.35a1.47,1.47,0,0,0,1.47,1.31h1.4v.45h.56v-4.62Z"/><path class="cls-69" d="M97.64,252.48a1,1,0,1,0,1,1A1,1,0,0,0,97.64,252.48Z"/><path class="cls-70" d="M97.64,247.58a5.83,5.83,0,0,0-5.24,3.24.43.43,0,0,0,.19.58.44.44,0,0,0,.58-.2,5,5,0,0,1,8.94,0,.42.42,0,0,0,.39.24.4.4,0,0,0,.4-.29.42.42,0,0,0,0-.33h0A5.83,5.83,0,0,0,97.64,247.58Z"/><path class="cls-71" d="M97.64,250.86a2.56,2.56,0,0,1,2.31,1.42.45.45,0,0,0,.25.22.42.42,0,0,0,.33,0,.45.45,0,0,0,.22-.25.42.42,0,0,0,0-.33,3.44,3.44,0,0,0-6.16,0,.43.43,0,0,0,.19.58.41.41,0,0,0,.19,0,.44.44,0,0,0,.39-.24A2.57,2.57,0,0,1,97.64,250.86Z"/></g></svg>