<svg xmlns="http://www.w3.org/2000/svg" xmlns:xlink="http://www.w3.org/1999/xlink" viewBox="0 0 136.5 136.5"><defs><style>.cls-1{fill:#fff;}.cls-2{fill:url(#linear-gradient);}.cls-3{fill:url(#linear-gradient-2);}.cls-4{fill:url(#linear-gradient-3);}.cls-5{fill:url(#linear-gradient-4);}.cls-6{fill:url(#linear-gradient-5);}.cls-7{fill:url(#linear-gradient-6);}.cls-8{fill:url(#linear-gradient-7);}.cls-9{fill:url(#linear-gradient-8);}</style><linearGradient id="linear-gradient" x1="19.99" y1="116.51" x2="116.51" y2="19.99" gradientUnits="userSpaceOnUse"><stop offset="0" stop-color="#272525"/><stop offset="1" stop-color="#042f3b"/></linearGradient><linearGradient id="linear-gradient-2" x1="36.08" y1="73.89" x2="90.8" y2="73.89" xlink:href="#linear-gradient"/><linearGradient id="linear-gradient-3" x1="91.07" y1="82.84" x2="100.42" y2="82.84" xlink:href="#linear-gradient"/><linearGradient id="linear-gradient-4" x1="91.07" y1="90.22" x2="100.42" y2="90.22" xlink:href="#linear-gradient"/><linearGradient id="linear-gradient-5" x1="77.6" y1="86.53" x2="90.13" y2="86.53" xlink:href="#linear-gradient"/><linearGradient id="linear-gradient-6" x1="65.06" y1="49.89" x2="71.44" y2="49.89" xlink:href="#linear-gradient"/><linearGradient id="linear-gradient-7" x1="50.72" y1="36.84" x2="85.79" y2="36.84" xlink:href="#linear-gradient"/><linearGradient id="linear-gradient-8" x1="57.87" y1="42.64" x2="78.63" y2="42.64" xlink:href="#linear-gradient"/></defs><title>Recurso 5</title><g id="Capa_2" data-name="Capa 2"><g id="Object"><path class="cls-1" d="M40.81,134.5H95.69L134.5,95.69V40.81L95.69,2H40.81L2,40.81V95.69Z"/><path class="cls-2" d="M96.52,136.5H40l-40-40V40L40,0H96.52l40,40V96.52Zm-55.71-2H95.69L134.5,95.69V40.81L95.69,2H40.81L2,40.81V95.69Z"/><path class="cls-3" d="M83.81,60.58h-36v1.35h36a5.65,5.65,0,1,1,0,11.29H43.07a7,7,0,0,0,0,14h36V85.86h-36a5.65,5.65,0,0,1,0-11.3H83.81a7,7,0,0,0,0-14Z"/><path class="cls-4" d="M100.42,82.84h0a.78.78,0,0,0-.78-.78H91.07v1.55h8.57A.78.78,0,0,0,100.42,82.84Z"/><path class="cls-5" d="M100.42,90.22h0a.77.77,0,0,0-.78-.77H91.07V91h8.57A.78.78,0,0,0,100.42,90.22Z"/><path class="cls-6" d="M88.29,78.86v1.5H83.63a4.87,4.87,0,0,0-4.85,4.35H77.6v3.64h1.18a4.87,4.87,0,0,0,4.85,4.35h4.66v1.5h1.84V78.86Z"/><path class="cls-7" d="M68.25,46.7a3.19,3.19,0,1,0,3.19,3.19A3.19,3.19,0,0,0,68.25,46.7Z"/><path class="cls-8" d="M68.25,30.44A19.34,19.34,0,0,0,50.87,41.17a1.43,1.43,0,0,0,1.72,2,1.39,1.39,0,0,0,.83-.71,16.58,16.58,0,0,1,29.66,0,1.44,1.44,0,0,0,1.92.63,1.39,1.39,0,0,0,.71-.83,1.42,1.42,0,0,0-.08-1.09h0A19.34,19.34,0,0,0,68.25,30.44Z"/><path class="cls-9" d="M68.25,41.3A8.56,8.56,0,0,1,75.93,46a1.39,1.39,0,0,0,.83.71,1.36,1.36,0,0,0,1.08-.08,1.39,1.39,0,0,0,.72-.82,1.42,1.42,0,0,0-.08-1.09,11.44,11.44,0,0,0-20.46,0,1.42,1.42,0,0,0,.64,1.91,1.29,1.29,0,0,0,.64.16A1.41,1.41,0,0,0,60.57,46,8.56,8.56,0,0,1,68.25,41.3Z"/></g></g></svg>